<svg width="480" height="1067" viewBox="0 0 480 1067" fill="none" xmlns="http://www.w3.org/2000/svg">
<rect width="480" height="1067" fill="white"/>
<path d="M0 0H480V56H0V0Z" fill="white"/>
<path d="M480 55.5H0V56.5H480V55.5Z" fill="#DDDDDD"/>
<rect opacity="0.35" x="431.007" y="22.5606" width="27.16" height="13.4242" rx="2.16667" stroke="black"/>
<path opacity="0.4" d="M459.947 26.7273V31.8182C460.977 31.387 461.647 30.384 461.647 29.2727C461.647 28.1615 460.977 27.1584 459.947 26.7273Z" fill="black"/>
<rect x="433.067" y="24.606" width="23.04" height="9.33333" rx="1.33333" fill="black"/>
<path fill-rule="evenodd" clip-rule="evenodd" d="M414.294 24.9647C417.142 24.9649 419.88 26.0519 421.944 28.0012C422.1 28.1517 422.348 28.1498 422.501 27.997L423.987 26.5074C424.064 26.4299 424.107 26.3249 424.107 26.2156C424.106 26.1064 424.062 26.0019 423.983 25.9253C418.566 20.7679 410.021 20.7679 404.604 25.9253C404.525 26.0018 404.481 26.1063 404.48 26.2156C404.479 26.3248 404.522 26.4299 404.6 26.5074L406.086 27.997C406.239 28.15 406.487 28.1519 406.643 28.0012C408.707 26.0518 411.446 24.9647 414.294 24.9647ZM414.294 29.8108C415.858 29.8107 417.367 30.3884 418.527 31.4318C418.684 31.5798 418.931 31.5766 419.084 31.4245L420.568 29.935C420.646 29.8569 420.689 29.7509 420.688 29.6408C420.687 29.5306 420.641 29.4255 420.562 29.349C417.03 26.0852 411.561 26.0852 408.029 29.349C407.949 29.4255 407.904 29.5307 407.903 29.6409C407.902 29.751 407.945 29.857 408.023 29.935L409.507 31.4245C409.66 31.5766 409.907 31.5798 410.064 31.4318C411.223 30.3891 412.73 29.8114 414.294 29.8108ZM417.266 33.0713C417.269 33.1817 417.225 33.2882 417.146 33.3656L414.579 35.939C414.503 36.0147 414.401 36.0572 414.294 36.0572C414.187 36.0572 414.084 36.0147 414.009 35.939L411.442 33.3656C411.362 33.2881 411.319 33.1816 411.321 33.0712C411.324 32.9607 411.372 32.8561 411.454 32.7821C413.093 31.4047 415.494 31.4047 417.134 32.7821C417.216 32.8562 417.264 32.9608 417.266 33.0713Z" fill="black"/>
<path fill-rule="evenodd" clip-rule="evenodd" d="M396.8 22.4849H395.52C394.813 22.4849 394.24 23.0547 394.24 23.7576V34.7879C394.24 35.4908 394.813 36.0606 395.52 36.0606H396.8C397.507 36.0606 398.08 35.4908 398.08 34.7879V23.7576C398.08 23.0547 397.507 22.4849 396.8 22.4849ZM389.547 25.4546H390.827C391.534 25.4546 392.107 26.0244 392.107 26.7273V34.7879C392.107 35.4908 391.534 36.0606 390.827 36.0606H389.547C388.84 36.0606 388.267 35.4908 388.267 34.7879V26.7273C388.267 26.0244 388.84 25.4546 389.547 25.4546ZM384.853 28.4243H383.573C382.866 28.4243 382.293 28.9941 382.293 29.697V34.7879C382.293 35.4908 382.866 36.0606 383.573 36.0606H384.853C385.56 36.0606 386.133 35.4908 386.133 34.7879V29.697C386.133 28.9941 385.56 28.4243 384.853 28.4243ZM378.88 30.9697H377.6C376.893 30.9697 376.32 31.5395 376.32 32.2424V34.7879C376.32 35.4908 376.893 36.0606 377.6 36.0606H378.88C379.587 36.0606 380.16 35.4908 380.16 34.7879V32.2424C380.16 31.5395 379.587 30.9697 378.88 30.9697Z" fill="black"/>
<path d="M42.9607 32.1654C45.6487 32.1654 47.2454 30.0634 47.2454 26.4965C47.2454 22.9955 45.5461 21.0766 43.0193 21.0766C40.7195 21.0766 39.0935 22.622 39.0935 24.7826C39.0935 26.8114 40.5584 28.2909 42.5725 28.2909C43.8103 28.2909 44.8137 27.7196 45.3118 26.7162H45.4363C45.4143 29.1991 44.5281 30.62 42.9827 30.62C42.0745 30.62 41.3494 30.122 41.1223 29.3163H39.24C39.5476 31.0375 41.0271 32.1654 42.9607 32.1654ZM43.0266 26.8334C41.7961 26.8334 40.9465 25.9691 40.9465 24.724C40.9465 23.5302 41.8401 22.6147 43.0339 22.6147C44.2278 22.6147 45.1213 23.5448 45.1213 24.7607C45.1213 25.9618 44.2498 26.8334 43.0266 26.8334ZM50.3965 26.6796C51.0923 26.6796 51.5684 26.1889 51.5684 25.5443C51.5684 24.8925 51.0923 24.4091 50.3965 24.4091C49.708 24.4091 49.2246 24.8925 49.2246 25.5443C49.2246 26.1889 49.708 26.6796 50.3965 26.6796ZM50.3965 32.0556C51.0923 32.0556 51.5684 31.5648 51.5684 30.913C51.5684 30.2685 51.0923 29.7777 50.3965 29.7777C49.708 29.7777 49.2246 30.2685 49.2246 30.913C49.2246 31.5648 49.708 32.0556 50.3965 32.0556ZM58.4841 31.9091H60.2932V29.8803H61.7214V28.3202H60.2932V21.3402H57.6272C56.1916 23.5229 54.6902 25.9545 53.3205 28.3349V29.8803H58.4841V31.9091ZM55.071 28.2543C56.1037 26.4599 57.3269 24.5043 58.4109 22.849H58.5134V28.3642H55.071V28.2543ZM65.81 31.9091H67.6997V21.3402H65.8174L63.0561 23.2812V25.0609L65.6855 23.2006H65.81V31.9091Z" fill="black"/>
<rect width="480" height="64" transform="translate(0 56)" fill="white" fill-opacity="0.5"/>
<path fill-rule="evenodd" clip-rule="evenodd" d="M230 84.3107C230 80.8254 232.825 78 236.311 78C237.688 78 238.962 78.4413 240 79.1902C241.038 78.4413 242.312 78 243.689 78C247.175 78 250 80.8254 250 84.3107V98H244.757V84.5709C244.757 84.0347 244.323 83.6 243.786 83.6C243.25 83.6 242.816 84.0347 242.816 84.5709V98H242.621H237.379L237.379 84.567C237.377 84.0326 236.943 83.6 236.408 83.6C235.872 83.6 235.437 84.0347 235.437 84.5709V98H230V84.3107Z" fill="#00B0F0"/>
<path fill-rule="evenodd" clip-rule="evenodd" d="M261.8 78H272C272 81.0928 269.493 83.6 266.4 83.6H261.8H258.6C258.048 83.6 257.6 84.0477 257.6 84.6V98H252V83.6C252 80.5072 254.507 78 257.6 78H261.8ZM260 88.6935V94.6757C260 96.1835 261.605 97.149 262.937 96.4427L268.634 93.4217C270.058 92.6666 270.05 90.6234 268.62 89.8801L262.922 86.9189C261.591 86.2269 260 87.193 260 88.6935Z" fill="#00B0F0"/>
<path fill-rule="evenodd" clip-rule="evenodd" d="M218 78C212.477 78 208 82.4772 208 88V89.1111C208 94.0203 211.98 98 216.889 98H217.6C220.373 98 222.222 96.1333 222.8 95.2V98H228V88C228 82.4772 223.523 78 218 78ZM218 92.4C220.43 92.4 222.4 90.4301 222.4 88C222.4 85.5699 220.43 83.6 218 83.6C215.57 83.6 213.6 85.5699 213.6 88C213.6 90.4301 215.57 92.4 218 92.4Z" fill="#00B0F0"/>
<path d="M444.088 100C440.729 100 437.875 98.8265 435.525 96.4794C433.175 94.1323 432 91.2817 432 87.9276C432 84.8702 432.997 82.2193 434.992 79.9748C436.986 77.7304 439.456 76.4054 442.401 76C442.483 76 442.563 76.003 442.642 76.0091C442.72 76.0151 442.797 76.0236 442.873 76.0347C442.363 76.745 441.96 77.5347 441.663 78.4039C441.365 79.2731 441.217 80.1841 441.217 81.1368C441.217 83.8199 442.157 86.1001 444.036 87.9774C445.916 89.8546 448.199 90.7938 450.887 90.7948C451.845 90.7948 452.758 90.6464 453.626 90.3496C454.495 90.0528 455.274 89.6499 455.965 89.1408C455.977 89.2163 455.986 89.2933 455.991 89.3717C455.996 89.4502 455.999 89.5302 456 89.6117C455.613 92.5523 454.296 95.0186 452.049 97.0106C449.802 99.0025 447.149 99.999 444.088 100Z" fill="black"/>
<path d="M182 238H224C227.85 238 231 234.85 231 231V175C231 171.15 227.85 168 224 168H182C178.15 168 175 171.15 175 175V231C175 234.85 178.15 238 182 238ZM182 294H224C227.85 294 231 290.85 231 287V259C231 255.15 227.85 252 224 252H182C178.15 252 175 255.15 175 259V287C175 290.85 178.15 294 182 294ZM252 294H294C297.85 294 301 290.85 301 287V231C301 227.15 297.85 224 294 224H252C248.15 224 245 227.15 245 231V287C245 290.85 248.15 294 252 294ZM245 175V203C245 206.85 248.15 210 252 210H294C297.85 210 301 206.85 301 203V175C301 171.15 297.85 168 294 168H252C248.15 168 245 171.15 245 175Z" fill="#F64A63"/>
<path d="M100.5 351H92.5905L104.642 316.091H114.153L126.187 351H118.278L109.534 324.068H109.261L100.5 351ZM100.005 337.278H118.687V343.04H100.005V337.278ZM142.364 351H129.989V316.091H142.466C145.977 316.091 149 316.79 151.534 318.188C154.068 319.574 156.017 321.568 157.381 324.17C158.756 326.773 159.443 329.886 159.443 333.511C159.443 337.148 158.756 340.273 157.381 342.886C156.017 345.5 154.057 347.506 151.5 348.903C148.955 350.301 145.909 351 142.364 351ZM137.369 344.676H142.057C144.239 344.676 146.074 344.29 147.563 343.517C149.063 342.733 150.188 341.523 150.938 339.886C151.699 338.239 152.08 336.114 152.08 333.511C152.08 330.932 151.699 328.824 150.938 327.188C150.188 325.551 149.068 324.347 147.58 323.574C146.091 322.801 144.256 322.415 142.074 322.415H137.369V344.676ZM176.886 351H164.511V316.091H176.988C180.499 316.091 183.522 316.79 186.056 318.188C188.59 319.574 190.539 321.568 191.903 324.17C193.278 326.773 193.965 329.886 193.965 333.511C193.965 337.148 193.278 340.273 191.903 342.886C190.539 345.5 188.579 347.506 186.022 348.903C183.477 350.301 180.431 351 176.886 351ZM171.891 344.676H176.579C178.761 344.676 180.596 344.29 182.085 343.517C183.585 342.733 184.71 341.523 185.46 339.886C186.221 338.239 186.602 336.114 186.602 333.511C186.602 330.932 186.221 328.824 185.46 327.188C184.71 325.551 183.59 324.347 182.102 323.574C180.613 322.801 178.778 322.415 176.596 322.415H171.891V344.676ZM206.413 316.091V351H199.033V316.091H206.413ZM210.756 322.176V316.091H239.427V322.176H228.739V351H221.444V322.176H210.756ZM251.129 316.091V351H243.748V316.091H251.129ZM288.881 333.545C288.881 337.352 288.159 340.591 286.716 343.261C285.284 345.932 283.33 347.972 280.852 349.381C278.387 350.778 275.614 351.477 272.534 351.477C269.432 351.477 266.648 350.773 264.182 349.364C261.716 347.955 259.767 345.915 258.335 343.244C256.904 340.574 256.188 337.341 256.188 333.545C256.188 329.739 256.904 326.5 258.335 323.83C259.767 321.159 261.716 319.125 264.182 317.727C266.648 316.318 269.432 315.614 272.534 315.614C275.614 315.614 278.387 316.318 280.852 317.727C283.33 319.125 285.284 321.159 286.716 323.83C288.159 326.5 288.881 329.739 288.881 333.545ZM281.398 333.545C281.398 331.08 281.029 329 280.29 327.307C279.563 325.614 278.534 324.33 277.205 323.455C275.875 322.58 274.318 322.142 272.534 322.142C270.75 322.142 269.193 322.58 267.864 323.455C266.534 324.33 265.5 325.614 264.762 327.307C264.034 329 263.671 331.08 263.671 333.545C263.671 336.011 264.034 338.091 264.762 339.784C265.5 341.477 266.534 342.761 267.864 343.636C269.193 344.511 270.75 344.949 272.534 344.949C274.318 344.949 275.875 344.511 277.205 343.636C278.534 342.761 279.563 341.477 280.29 339.784C281.029 338.091 281.398 336.011 281.398 333.545ZM323.147 316.091V351H316.772L301.585 329.028H301.329V351H293.948V316.091H300.425L315.494 338.045H315.8V316.091H323.147ZM334.862 351H326.953L339.004 316.091H348.515L360.55 351H352.64L343.896 324.068H343.623L334.862 351ZM334.368 337.278H353.05V343.04H334.368V337.278ZM364.351 351V316.091H371.732V344.915H386.698V351H364.351Z" fill="#F64A63"/>
<path d="M174.605 413.222H171.946C171.844 412.653 171.654 412.153 171.375 411.722C171.097 411.29 170.756 410.923 170.352 410.622C169.949 410.321 169.497 410.094 168.997 409.94C168.503 409.787 167.977 409.71 167.421 409.71C166.415 409.71 165.514 409.963 164.719 410.469C163.929 410.974 163.304 411.716 162.844 412.693C162.389 413.67 162.162 414.864 162.162 416.273C162.162 417.693 162.389 418.892 162.844 419.869C163.304 420.847 163.932 421.585 164.727 422.085C165.523 422.585 166.418 422.835 167.412 422.835C167.963 422.835 168.486 422.761 168.98 422.614C169.48 422.46 169.932 422.236 170.335 421.94C170.739 421.645 171.08 421.284 171.358 420.858C171.642 420.426 171.838 419.932 171.946 419.375L174.605 419.384C174.463 420.241 174.188 421.031 173.779 421.753C173.375 422.469 172.855 423.088 172.219 423.611C171.588 424.128 170.867 424.528 170.054 424.812C169.242 425.097 168.355 425.239 167.395 425.239C165.884 425.239 164.537 424.881 163.355 424.165C162.173 423.443 161.242 422.412 160.56 421.071C159.884 419.73 159.546 418.131 159.546 416.273C159.546 414.409 159.886 412.81 160.568 411.474C161.25 410.134 162.182 409.105 163.364 408.389C164.546 407.668 165.889 407.307 167.395 407.307C168.321 407.307 169.185 407.44 169.986 407.707C170.793 407.969 171.517 408.355 172.159 408.866C172.801 409.372 173.333 409.991 173.753 410.724C174.173 411.452 174.458 412.284 174.605 413.222ZM177.517 425V407.545H183.909C185.147 407.545 186.173 407.75 186.985 408.159C187.798 408.562 188.406 409.111 188.809 409.804C189.213 410.491 189.414 411.267 189.414 412.131C189.414 412.858 189.281 413.472 189.014 413.972C188.747 414.466 188.389 414.864 187.94 415.165C187.497 415.46 187.008 415.676 186.474 415.812V415.983C187.053 416.011 187.619 416.199 188.17 416.545C188.727 416.886 189.187 417.372 189.551 418.003C189.914 418.634 190.096 419.401 190.096 420.304C190.096 421.196 189.886 421.997 189.465 422.707C189.051 423.412 188.409 423.972 187.539 424.386C186.67 424.795 185.559 425 184.207 425H177.517ZM180.15 422.741H183.951C185.213 422.741 186.116 422.497 186.661 422.009C187.207 421.52 187.48 420.909 187.48 420.176C187.48 419.625 187.34 419.119 187.062 418.659C186.784 418.199 186.386 417.832 185.869 417.56C185.357 417.287 184.749 417.151 184.045 417.151H180.15V422.741ZM180.15 415.097H183.678C184.269 415.097 184.801 414.983 185.272 414.756C185.749 414.528 186.127 414.21 186.406 413.801C186.69 413.386 186.832 412.898 186.832 412.335C186.832 411.614 186.579 411.009 186.073 410.52C185.568 410.031 184.792 409.787 183.747 409.787H180.15V415.097ZM202.5 412.131C202.409 411.324 202.034 410.699 201.375 410.256C200.715 409.807 199.886 409.582 198.886 409.582C198.17 409.582 197.551 409.696 197.028 409.923C196.505 410.145 196.099 410.452 195.809 410.844C195.525 411.23 195.383 411.67 195.383 412.165C195.383 412.58 195.48 412.937 195.673 413.239C195.872 413.54 196.13 413.793 196.448 413.997C196.772 414.196 197.119 414.364 197.488 414.5C197.857 414.631 198.213 414.739 198.554 414.824L200.258 415.267C200.815 415.403 201.386 415.588 201.971 415.821C202.556 416.054 203.099 416.361 203.599 416.741C204.099 417.122 204.502 417.594 204.809 418.156C205.122 418.719 205.278 419.392 205.278 420.176C205.278 421.165 205.022 422.043 204.511 422.81C204.005 423.577 203.269 424.182 202.304 424.625C201.343 425.068 200.181 425.29 198.818 425.29C197.511 425.29 196.38 425.082 195.426 424.668C194.471 424.253 193.724 423.665 193.184 422.903C192.644 422.136 192.346 421.227 192.289 420.176H194.931C194.982 420.807 195.187 421.332 195.545 421.753C195.909 422.168 196.372 422.477 196.934 422.682C197.502 422.881 198.125 422.98 198.801 422.98C199.545 422.98 200.207 422.864 200.786 422.631C201.372 422.392 201.832 422.062 202.167 421.642C202.502 421.216 202.67 420.719 202.67 420.151C202.67 419.634 202.522 419.21 202.227 418.881C201.937 418.551 201.542 418.278 201.042 418.062C200.548 417.847 199.988 417.656 199.363 417.491L197.301 416.929C195.903 416.548 194.795 415.989 193.977 415.25C193.164 414.511 192.758 413.534 192.758 412.318C192.758 411.312 193.031 410.435 193.576 409.685C194.122 408.935 194.86 408.352 195.792 407.938C196.724 407.517 197.775 407.307 198.946 407.307C200.127 407.307 201.17 407.514 202.073 407.929C202.982 408.344 203.698 408.915 204.221 409.642C204.744 410.364 205.017 411.193 205.039 412.131H202.5ZM229.443 405.152H231.411V426.896H229.443V405.152ZM224.763 413.072H230.019V414.704H224.763V413.072ZM219.075 408.272H220.683V411.512C220.683 416.192 217.995 420.824 214.563 422.6L213.387 421.016C216.507 419.48 219.075 415.376 219.075 411.512V408.272ZM219.483 408.272H221.067V411.512C221.067 415.136 223.587 419.096 226.731 420.584L225.555 422.144C222.123 420.44 219.483 415.976 219.483 411.512V408.272ZM214.179 407.384H225.987V409.04H214.179V407.384ZM240.745 407.408H242.377V409.16C242.377 413.144 239.977 416.456 236.353 417.752L235.297 416.192C238.585 415.04 240.745 412.256 240.745 409.16V407.408ZM241.105 407.408H242.737V409.136C242.737 412.016 244.825 414.68 248.017 415.76L246.985 417.32C243.409 416.072 241.105 412.88 241.105 409.136V407.408ZM235.921 406.688H247.513V408.32H235.921V406.688ZM250.249 405.176H252.241V418.232H250.249V405.176ZM251.689 410.888H255.457V412.544H251.689V410.888ZM238.153 419.384H252.241V426.872H250.249V421.04H238.153V419.384ZM262.607 408.272H264.191V411.8C264.191 416.312 261.431 420.968 258.047 422.696L256.895 421.112C259.991 419.6 262.607 415.472 262.607 411.8V408.272ZM262.967 408.272H264.551V411.8C264.551 415.232 266.999 419.096 270.143 420.584L269.015 422.168C265.583 420.464 262.967 416.096 262.967 411.8V408.272ZM257.663 407.384H269.351V409.064H257.663V407.384ZM271.919 405.176H273.935V426.872H271.919V405.176ZM273.455 413.936H277.487V415.616H273.455V413.936ZM287.877 413.6H291.981V415.256H287.877V413.6ZM295.605 405.176H297.525V426.872H295.605V405.176ZM291.309 405.632H293.205V425.792H291.309V405.632ZM283.965 406.976C286.773 406.976 288.597 409.88 288.597 414.536C288.597 419.192 286.773 422.096 283.965 422.096C281.157 422.096 279.357 419.192 279.357 414.536C279.357 409.88 281.157 406.976 283.965 406.976ZM283.965 408.824C282.261 408.824 281.181 411.032 281.181 414.536C281.181 418.04 282.261 420.248 283.965 420.248C285.693 420.248 286.773 418.04 286.773 414.536C286.773 411.032 285.693 408.824 283.965 408.824ZM317.443 405.176H319.363V426.872H317.443V405.176ZM308.035 414.032H313.507V415.64H308.035V414.032ZM312.931 405.728H314.803V425.768H312.931V405.728ZM308.299 407.912H310.219C310.219 413.6 307.939 418.712 302.083 422.192L300.907 420.776C306.019 417.704 308.299 413.384 308.299 408.272V407.912ZM301.867 407.912H309.043V409.544H301.867V407.912ZM89.1584 451.304H104.062V452.936H89.1584V451.304ZM86.6864 458.48H106.342V460.16H86.6864V458.48ZM95.4704 452H97.4624V459.152H95.4704V452ZM89.1584 442.904H103.846V444.536H91.1504V452.024H89.1584V442.904ZM117.333 452.24H119.301V456.008H117.333V452.24ZM118.317 441.584C122.997 441.584 125.949 443.096 125.949 445.664C125.949 448.232 122.997 449.72 118.317 449.72C113.613 449.72 110.685 448.232 110.685 445.664C110.685 443.096 113.613 441.584 118.317 441.584ZM118.317 443.144C114.861 443.144 112.725 444.08 112.725 445.664C112.725 447.248 114.861 448.16 118.317 448.16C121.749 448.16 123.909 447.248 123.909 445.664C123.909 444.08 121.749 443.144 118.317 443.144ZM110.901 455.432H125.709V462.584H110.901V455.432ZM123.765 457.04H112.869V460.976H123.765V457.04ZM108.501 451.376H128.109V453.008H108.501V451.376ZM146.107 441.152H148.099V462.896H146.107V441.152ZM136.651 442.832C139.867 442.832 142.171 445.784 142.171 450.392C142.171 455.024 139.867 457.976 136.651 457.976C133.459 457.976 131.155 455.024 131.155 450.392C131.155 445.784 133.459 442.832 136.651 442.832ZM136.651 444.632C134.539 444.632 133.051 446.888 133.051 450.392C133.051 453.92 134.539 456.224 136.651 456.224C138.787 456.224 140.251 453.92 140.251 450.392C140.251 446.888 138.787 444.632 136.651 444.632ZM160.016 450.512H171.128V452.144H160.016V450.512ZM164.456 451.808H166.472V456.8H164.456V451.808ZM160.016 443.216H171.008V444.848H162.008V451.088H160.016V443.216ZM173.984 441.152H175.976V462.896H173.984V441.152ZM158.696 458.192L158.408 456.536C162.656 456.512 167.984 456.464 172.568 455.912L172.736 457.4C167.984 458.12 162.8 458.216 158.696 458.192ZM182.79 447.68H197.526V449.312H182.79V447.68ZM180.126 452.216H199.806V453.848H180.126V452.216ZM182.79 441.968H184.758V448.496H182.79V441.968ZM182.646 460.712H197.646V462.344H182.646V460.712ZM182.646 456.008H184.614V461.144H182.646V456.008ZM223.892 441.176H225.884V462.872H223.892V441.176ZM217.532 443.504H219.5C219.5 449.792 216.668 455.288 209.42 458.84L208.364 457.232C214.628 454.208 217.532 449.6 217.532 443.84V443.504ZM209.348 443.504H218.396V445.136H209.348V443.504ZM232.602 447.2H247.314V448.832H232.602V447.2ZM232.602 441.608H234.57V447.92H232.602V441.608ZM229.938 451.352H249.546V452.96H229.938V451.352ZM239.706 454.904C244.338 454.904 247.146 456.32 247.146 458.864C247.146 461.36 244.338 462.8 239.706 462.8C235.074 462.8 232.266 461.36 232.266 458.864C232.266 456.32 235.074 454.904 239.706 454.904ZM239.706 456.464C236.322 456.464 234.282 457.328 234.282 458.864C234.282 460.352 236.322 461.216 239.706 461.216C243.114 461.216 245.13 460.352 245.13 458.864C245.13 457.328 243.114 456.464 239.706 456.464ZM261.568 441.536C266.344 441.536 269.2 442.88 269.2 445.304C269.2 447.728 266.344 449.072 261.568 449.072C256.768 449.072 253.936 447.728 253.936 445.304C253.936 442.88 256.768 441.536 261.568 441.536ZM261.568 443.048C258.016 443.048 255.976 443.864 255.976 445.304C255.976 446.744 258.016 447.56 261.568 447.56C265.096 447.56 267.136 446.744 267.136 445.304C267.136 443.864 265.096 443.048 261.568 443.048ZM251.752 450.512H271.36V452.12H251.752V450.512ZM254.128 453.968H268.864V458.864H256.144V461.504H254.176V457.424H266.896V455.504H254.128V453.968ZM254.176 461.072H269.512V462.632H254.176V461.072ZM296.214 441.176H298.134V462.872H296.214V441.176ZM288.318 448.952H292.47V450.608H288.318V448.952ZM291.87 441.68H293.742V461.768H291.87V441.68ZM284.142 444.536H285.678V447.296C285.678 452.048 283.854 456.536 280.662 458.552L279.438 457.064C282.462 455.24 284.142 451.28 284.142 447.296V444.536ZM284.55 444.536H286.086V447.296C286.086 451.064 287.718 454.832 290.694 456.56L289.47 458.024C286.302 456.104 284.55 451.832 284.55 447.296V444.536ZM280.038 443.696H289.95V445.352H280.038V443.696ZM311.284 454.856C315.892 454.856 318.844 456.368 318.844 458.864C318.844 461.336 315.892 462.824 311.284 462.824C306.652 462.824 303.724 461.336 303.724 458.864C303.724 456.368 306.652 454.856 311.284 454.856ZM311.284 456.416C307.876 456.416 305.692 457.352 305.692 458.864C305.692 460.352 307.876 461.288 311.284 461.288C314.692 461.288 316.852 460.352 316.852 458.864C316.852 457.352 314.692 456.416 311.284 456.416ZM303.892 442.256H317.86V443.888H303.892V442.256ZM301.564 451.28H321.148V452.888H301.564V451.28ZM309.604 447.104H311.572V451.736H309.604V447.104ZM316.708 442.256H318.652V444.104C318.652 445.856 318.652 447.608 318.076 449.864L316.108 449.624C316.708 447.392 316.708 445.808 316.708 444.104V442.256ZM338.234 441.176H340.226V453.776H338.234V441.176ZM339.362 446.696H343.442V448.376H339.362V446.696ZM326.594 454.736H328.538V457.04H338.258V454.736H340.226V462.584H326.594V454.736ZM328.538 458.576V460.976H338.258V458.576H328.538ZM323.45 443.384H336.266V445.016H323.45V443.384ZM329.858 446C332.954 446 335.042 447.512 335.042 449.816C335.042 452.12 332.954 453.632 329.858 453.632C326.738 453.632 324.65 452.12 324.65 449.816C324.65 447.512 326.738 446 329.858 446ZM329.858 447.512C327.866 447.512 326.546 448.424 326.546 449.816C326.546 451.208 327.866 452.12 329.858 452.12C331.802 452.12 333.146 451.208 333.146 449.816C333.146 448.424 331.802 447.512 329.858 447.512ZM328.85 440.96H330.842V444.272H328.85V440.96ZM361.008 441.176H363V462.872H361.008V441.176ZM346.608 443.288H348.576V456.728H346.608V443.288ZM346.608 455.552H348.384C351.672 455.552 355.104 455.312 358.776 454.544L359.016 456.248C355.248 457.016 351.816 457.28 348.384 457.28H346.608V455.552ZM381.743 441.152H383.759V462.896H381.743V441.152ZM383.279 449.72H387.311V451.4H383.279V449.72ZM367.991 455.816H369.695C373.703 455.816 376.511 455.672 379.751 455.072L379.967 456.752C376.631 457.376 373.775 457.496 369.695 457.496H367.991V455.816ZM367.991 443.264H378.071V444.896H369.959V456.56H367.991V443.264ZM391.109 461.162C390.643 461.162 390.242 460.997 389.907 460.668C389.572 460.332 389.404 459.929 389.404 459.457C389.404 458.991 389.572 458.594 389.907 458.264C390.242 457.929 390.643 457.761 391.109 457.761C391.575 457.761 391.975 457.929 392.31 458.264C392.646 458.594 392.813 458.991 392.813 459.457C392.813 459.77 392.734 460.057 392.575 460.318C392.421 460.574 392.217 460.778 391.961 460.932C391.705 461.085 391.421 461.162 391.109 461.162Z" fill="#213547"/>
<rect x="50" y="510" width="380" height="56" rx="16" fill="#213547"/>
<path d="M205.852 532.588V529.545H220.188V532.588H214.844V547H211.196V532.588H205.852ZM237.551 538.273C237.551 540.176 237.19 541.795 236.469 543.131C235.753 544.466 234.776 545.486 233.537 546.19C232.304 546.889 230.918 547.239 229.378 547.239C227.827 547.239 226.435 546.886 225.202 546.182C223.969 545.477 222.994 544.457 222.278 543.122C221.563 541.787 221.205 540.17 221.205 538.273C221.205 536.369 221.563 534.75 222.278 533.415C222.994 532.08 223.969 531.062 225.202 530.364C226.435 529.659 227.827 529.307 229.378 529.307C230.918 529.307 232.304 529.659 233.537 530.364C234.776 531.062 235.753 532.08 236.469 533.415C237.19 534.75 237.551 536.369 237.551 538.273ZM233.81 538.273C233.81 537.04 233.625 536 233.256 535.153C232.892 534.307 232.378 533.665 231.713 533.227C231.048 532.79 230.27 532.571 229.378 532.571C228.486 532.571 227.707 532.79 227.043 533.227C226.378 533.665 225.861 534.307 225.492 535.153C225.128 536 224.946 537.04 224.946 538.273C224.946 539.506 225.128 540.545 225.492 541.392C225.861 542.239 226.378 542.881 227.043 543.318C227.707 543.756 228.486 543.974 229.378 543.974C230.27 543.974 231.048 543.756 231.713 543.318C232.378 542.881 232.892 542.239 233.256 541.392C233.625 540.545 233.81 539.506 233.81 538.273ZM246.232 547H240.045V529.545H246.283C248.039 529.545 249.551 529.895 250.818 530.594C252.085 531.287 253.059 532.284 253.741 533.585C254.428 534.886 254.772 536.443 254.772 538.256C254.772 540.074 254.428 541.636 253.741 542.943C253.059 544.25 252.079 545.253 250.801 545.952C249.528 546.651 248.005 547 246.232 547ZM243.735 543.838H246.079C247.17 543.838 248.087 543.645 248.832 543.259C249.582 542.866 250.144 542.261 250.519 541.443C250.9 540.619 251.09 539.557 251.09 538.256C251.09 536.966 250.9 535.912 250.519 535.094C250.144 534.276 249.585 533.673 248.84 533.287C248.096 532.901 247.178 532.707 246.087 532.707H243.735V543.838ZM273.306 538.273C273.306 540.176 272.945 541.795 272.223 543.131C271.507 544.466 270.53 545.486 269.291 546.19C268.058 546.889 266.672 547.239 265.132 547.239C263.581 547.239 262.189 546.886 260.956 546.182C259.723 545.477 258.749 544.457 258.033 543.122C257.317 541.787 256.959 540.17 256.959 538.273C256.959 536.369 257.317 534.75 258.033 533.415C258.749 532.08 259.723 531.062 260.956 530.364C262.189 529.659 263.581 529.307 265.132 529.307C266.672 529.307 268.058 529.659 269.291 530.364C270.53 531.062 271.507 532.08 272.223 533.415C272.945 534.75 273.306 536.369 273.306 538.273ZM269.564 538.273C269.564 537.04 269.379 536 269.01 535.153C268.646 534.307 268.132 533.665 267.467 533.227C266.803 532.79 266.024 532.571 265.132 532.571C264.24 532.571 263.462 532.79 262.797 533.227C262.132 533.665 261.615 534.307 261.246 535.153C260.882 536 260.7 537.04 260.7 538.273C260.7 539.506 260.882 540.545 261.246 541.392C261.615 542.239 262.132 542.881 262.797 543.318C263.462 543.756 264.24 543.974 265.132 543.974C266.024 543.974 266.803 543.756 267.467 543.318C268.132 542.881 268.646 542.239 269.01 541.392C269.379 540.545 269.564 539.506 269.564 538.273Z" fill="white"/>
<rect x="50" y="582" width="380" height="56" rx="16" fill="#213547"/>
<path d="M203.517 601.545H208.068L212.875 613.273H213.08L217.886 601.545H222.438V619H218.858V607.639H218.713L214.196 618.915H211.759L207.241 607.597H207.097V619H203.517V601.545ZM225.238 619V601.545H236.999V604.588H228.928V608.747H236.394V611.79H228.928V615.957H237.033V619H225.238ZM239.693 601.545H244.244L249.051 613.273H249.256L254.063 601.545H258.614V619H255.034V607.639H254.889L250.372 618.915H247.935L243.418 607.597H243.273V619H239.693V601.545ZM277.454 610.273C277.454 612.176 277.093 613.795 276.372 615.131C275.656 616.466 274.678 617.486 273.44 618.19C272.207 618.889 270.82 619.239 269.281 619.239C267.73 619.239 266.338 618.886 265.105 618.182C263.872 617.477 262.897 616.457 262.181 615.122C261.465 613.787 261.107 612.17 261.107 610.273C261.107 608.369 261.465 606.75 262.181 605.415C262.897 604.08 263.872 603.062 265.105 602.364C266.338 601.659 267.73 601.307 269.281 601.307C270.82 601.307 272.207 601.659 273.44 602.364C274.678 603.062 275.656 604.08 276.372 605.415C277.093 606.75 277.454 608.369 277.454 610.273ZM273.713 610.273C273.713 609.04 273.528 608 273.159 607.153C272.795 606.307 272.281 605.665 271.616 605.227C270.951 604.79 270.173 604.571 269.281 604.571C268.389 604.571 267.61 604.79 266.945 605.227C266.281 605.665 265.764 606.307 265.394 607.153C265.031 608 264.849 609.04 264.849 610.273C264.849 611.506 265.031 612.545 265.394 613.392C265.764 614.239 266.281 614.881 266.945 615.318C267.61 615.756 268.389 615.974 269.281 615.974C270.173 615.974 270.951 615.756 271.616 615.318C272.281 614.881 272.795 614.239 273.159 613.392C273.528 612.545 273.713 611.506 273.713 610.273Z" fill="white"/>
<rect x="50" y="654" width="380" height="56" rx="16" fill="#213547"/>
<path d="M203.852 676.588V673.545H218.188V676.588H212.844V691H209.196V676.588H203.852ZM223.999 673.545V691H220.308V673.545H223.999ZM226.795 673.545H231.346L236.153 685.273H236.357L241.164 673.545H245.715V691H242.136V679.639H241.991L237.474 690.915H235.036L230.519 679.597H230.374V691H226.795V673.545ZM248.516 691V673.545H260.277V676.588H252.206V680.747H259.672V683.79H252.206V687.957H260.311V691H248.516ZM262.971 691V673.545H269.857C271.176 673.545 272.301 673.781 273.232 674.253C274.17 674.719 274.883 675.381 275.372 676.239C275.866 677.091 276.113 678.094 276.113 679.247C276.113 680.406 275.863 681.403 275.363 682.239C274.863 683.068 274.139 683.705 273.19 684.148C272.247 684.591 271.105 684.812 269.764 684.812H265.153V681.847H269.167C269.872 681.847 270.457 681.75 270.923 681.557C271.389 681.364 271.735 681.074 271.963 680.688C272.196 680.301 272.312 679.821 272.312 679.247C272.312 678.668 272.196 678.179 271.963 677.781C271.735 677.384 271.386 677.082 270.914 676.878C270.448 676.668 269.86 676.562 269.15 676.562H266.661V691H262.971ZM272.397 683.057L276.735 691H272.661L268.417 683.057H272.397Z" fill="white"/>
<g filter="url(#filter0_b_66_333)">
<rect x="24" y="959" width="432" height="92" rx="32" fill="#BFBFBF" fill-opacity="0.4"/>
<rect x="24" y="959" width="432" height="92" rx="32" fill="#0D0D0D" style="mix-blend-mode:color-dodge"/>
<rect x="56" y="975" width="60" height="60" rx="16" fill="url(#paint0_linear_66_333)"/>
<path d="M83.5284 988.032C84.312 987.366 85.3069 987 86.3354 987C87.3638 987 88.3588 987.366 89.1424 988.032L102.144 999.083C102.622 999.489 103.007 999.995 103.271 1000.57C103.534 1001.14 103.671 1001.76 103.671 1002.38V1019.67C103.671 1020.55 103.32 1021.4 102.694 1022.02C102.069 1022.65 101.221 1023 100.337 1023H95.0031C94.1189 1023 93.271 1022.65 92.6458 1022.02C92.0206 1021.4 91.6693 1020.55 91.6693 1019.67V1011C91.6693 1010.29 91.39 1009.62 90.8924 1009.12C90.3949 1008.62 89.7196 1008.33 89.0144 1008.33H83.6551C82.95 1008.34 82.2751 1008.62 81.7778 1009.12C81.2806 1009.62 81.0014 1010.29 81.0014 1011V1019.67C81.0014 1020.1 80.9152 1020.54 80.7477 1020.94C80.5801 1021.35 80.3346 1021.71 80.025 1022.02C79.7154 1022.33 79.3479 1022.58 78.9434 1022.75C78.539 1022.91 78.1055 1023 77.6677 1023H72.3337C71.4496 1023 70.6016 1022.65 69.9764 1022.02C69.3512 1021.4 69 1020.55 69 1019.67V1002.38C69 1001.76 69.1366 1001.14 69.4002 1000.57C69.6639 999.995 70.0483 999.489 70.5268 999.083L83.5284 988.032Z" fill="white"/>
<rect x="158.667" y="975" width="60" height="60" rx="16" fill="url(#paint1_linear_66_333)"/>
<path d="M190.842 1012.49C189.601 1012.49 188.884 1013.67 188.884 1015.24C188.884 1016.83 189.63 1017.95 190.852 1017.95C192.092 1017.95 192.8 1016.77 192.8 1015.2C192.8 1013.75 192.102 1012.49 190.842 1012.49Z" fill="white"/>
<path d="M193.667 981H174.467C173.194 981 171.973 981.506 171.073 982.406C170.172 983.306 169.667 984.527 169.667 985.8V1024.2C169.667 1025.47 170.172 1026.69 171.073 1027.59C171.973 1028.49 173.194 1029 174.467 1029H203.267C204.54 1029 205.761 1028.49 206.661 1027.59C207.561 1026.69 208.067 1025.47 208.067 1024.2V995.4L193.667 981ZM179.319 1016.29C179.319 1018.6 178.213 1019.4 176.439 1019.4C176.017 1019.4 175.465 1019.33 175.103 1019.21L175.309 1017.73C175.559 1017.82 175.883 1017.88 176.247 1017.88C177.013 1017.88 177.495 1017.53 177.495 1016.27V1011.18H179.322L179.319 1016.29ZM182.821 1019.39C181.897 1019.39 180.983 1019.15 180.529 1018.9L180.901 1017.38C181.391 1017.63 182.151 1017.89 182.931 1017.89C183.771 1017.89 184.213 1017.54 184.213 1017.01C184.213 1016.51 183.831 1016.22 182.859 1015.87C181.511 1015.4 180.635 1014.66 180.635 1013.48C180.635 1012.1 181.789 1011.04 183.699 1011.04C184.611 1011.04 185.281 1011.23 185.766 1011.45L185.353 1012.92C185.029 1012.77 184.453 1012.54 183.661 1012.54C182.869 1012.54 182.483 1012.9 182.483 1013.32C182.483 1013.84 182.939 1014.07 183.987 1014.46C185.418 1014.99 186.09 1015.74 186.09 1016.88C186.092 1018.24 185.043 1019.39 182.821 1019.39ZM190.755 1019.4C188.353 1019.4 186.949 1017.59 186.949 1015.28C186.949 1012.85 188.499 1011.04 190.89 1011.04C193.374 1011.04 194.732 1012.9 194.732 1015.14C194.73 1017.79 193.122 1019.4 190.755 1019.4ZM202.628 1019.27H200.703L198.973 1016.14C198.455 1015.22 197.987 1014.26 197.569 1013.29L197.531 1013.3C197.581 1014.37 197.605 1015.51 197.605 1016.83V1019.27H195.923V1011.18H198.061L199.743 1014.14C200.223 1014.99 200.703 1016 201.068 1016.91H201.102C200.982 1015.85 200.946 1014.75 200.946 1013.54V1011.18H202.631L202.628 1019.27ZM193.667 997.8H191.267V985.8L203.267 997.8H193.667Z" fill="white"/>
<g clip-path="url(#clip0_66_333)">
<rect x="261.333" y="975" width="60" height="60" rx="16" fill="url(#paint2_linear_66_333)"/>
<path d="M310.199 997.263L301.33 983.242C301.094 982.865 300.766 982.555 300.378 982.339C299.989 982.124 299.552 982.011 299.108 982.01L282.516 981.922C282.042 981.919 281.576 982.044 281.167 982.283C280.758 982.522 280.42 982.866 280.189 983.28L272.521 997.115C272.292 997.53 272.179 997.999 272.193 998.472C272.207 998.946 272.348 999.407 272.602 999.807L281.469 1013.83C281.705 1014.21 282.032 1014.52 282.421 1014.73C282.81 1014.95 283.247 1015.06 283.691 1015.06L300.283 1015.15C300.757 1015.15 301.223 1015.03 301.632 1014.79C302.041 1014.55 302.379 1014.21 302.609 1013.79L310.277 999.96C310.507 999.545 310.621 999.075 310.608 998.601C310.594 998.126 310.453 997.664 310.199 997.263ZM299.096 984.651L307.19 997.458L292.04 997.381L283.946 984.574L299.096 984.651ZM281.716 985.985L289.778 998.733L282.899 1011.14L274.834 998.399L281.716 985.985ZM285.213 1012.43L292.089 1000.02L307.175 1000.1L300.297 1012.51L285.213 1012.43Z" fill="white"/>
<path d="M287.282 1021.33H285.416C285.381 1021.09 285.312 1020.87 285.207 1020.68C285.102 1020.49 284.967 1020.33 284.802 1020.2C284.637 1020.07 284.447 1019.96 284.231 1019.89C284.018 1019.82 283.786 1019.79 283.536 1019.79C283.085 1019.79 282.691 1019.9 282.356 1020.12C282.021 1020.34 281.761 1020.67 281.576 1021.09C281.391 1021.52 281.299 1022.03 281.299 1022.64C281.299 1023.26 281.391 1023.78 281.576 1024.2C281.764 1024.63 282.025 1024.95 282.36 1025.16C282.695 1025.38 283.083 1025.49 283.524 1025.49C283.771 1025.49 283.999 1025.45 284.21 1025.39C284.423 1025.32 284.612 1025.23 284.776 1025.1C284.941 1024.98 285.077 1024.82 285.185 1024.64C285.296 1024.46 285.373 1024.25 285.416 1024.02L287.282 1024.03C287.234 1024.43 287.113 1024.81 286.92 1025.18C286.729 1025.55 286.472 1025.88 286.149 1026.18C285.827 1026.47 285.444 1026.7 284.998 1026.87C284.555 1027.04 284.053 1027.12 283.494 1027.12C282.715 1027.12 282.019 1026.94 281.406 1026.59C280.795 1026.24 280.312 1025.73 279.957 1025.06C279.604 1024.39 279.428 1023.59 279.428 1022.64C279.428 1021.68 279.607 1020.88 279.965 1020.21C280.323 1019.54 280.809 1019.03 281.423 1018.68C282.036 1018.33 282.727 1018.15 283.494 1018.15C283.999 1018.15 284.468 1018.22 284.9 1018.37C285.335 1018.51 285.72 1018.72 286.055 1018.99C286.39 1019.26 286.663 1019.59 286.873 1019.98C287.086 1020.37 287.222 1020.82 287.282 1021.33ZM288.205 1027V1018.27H291.699C292.342 1018.27 292.877 1018.37 293.306 1018.56C293.735 1018.75 294.057 1019.01 294.273 1019.35C294.489 1019.69 294.597 1020.07 294.597 1020.51C294.597 1020.85 294.529 1021.15 294.393 1021.41C294.256 1021.66 294.069 1021.87 293.83 1022.04C293.594 1022.2 293.324 1022.32 293.021 1022.38V1022.47C293.353 1022.48 293.664 1022.58 293.954 1022.75C294.246 1022.92 294.484 1023.17 294.665 1023.48C294.847 1023.79 294.938 1024.16 294.938 1024.59C294.938 1025.05 294.823 1025.46 294.593 1025.83C294.366 1026.19 294.029 1026.47 293.583 1026.68C293.137 1026.89 292.587 1027 291.934 1027H288.205ZM290.05 1025.49H291.555C292.069 1025.49 292.444 1025.39 292.68 1025.2C292.915 1025 293.033 1024.73 293.033 1024.4C293.033 1024.16 292.975 1023.95 292.859 1023.77C292.742 1023.58 292.576 1023.44 292.36 1023.33C292.147 1023.23 291.893 1023.17 291.597 1023.17H290.05V1025.49ZM290.05 1021.92H291.418C291.671 1021.92 291.896 1021.88 292.092 1021.79C292.29 1021.7 292.447 1021.57 292.56 1021.41C292.677 1021.24 292.735 1021.05 292.735 1020.82C292.735 1020.5 292.623 1020.25 292.398 1020.05C292.177 1019.86 291.861 1019.76 291.452 1019.76H290.05V1021.92ZM300.473 1020.78C300.439 1020.44 300.293 1020.17 300.034 1019.98C299.776 1019.79 299.425 1019.7 298.982 1019.7C298.681 1019.7 298.426 1019.74 298.219 1019.82C298.011 1019.91 297.852 1020.02 297.742 1020.17C297.634 1020.32 297.58 1020.48 297.58 1020.67C297.574 1020.83 297.607 1020.96 297.678 1021.08C297.752 1021.2 297.852 1021.3 297.98 1021.38C298.108 1021.47 298.256 1021.54 298.423 1021.6C298.591 1021.66 298.77 1021.71 298.96 1021.75L299.744 1021.94C300.125 1022.03 300.475 1022.14 300.793 1022.28C301.111 1022.42 301.386 1022.6 301.619 1022.81C301.852 1023.01 302.033 1023.26 302.161 1023.54C302.291 1023.82 302.358 1024.14 302.361 1024.51C302.358 1025.04 302.222 1025.5 301.952 1025.9C301.685 1026.29 301.298 1026.59 300.793 1026.8C300.29 1027.02 299.683 1027.12 298.973 1027.12C298.269 1027.12 297.655 1027.02 297.132 1026.8C296.612 1026.58 296.206 1026.26 295.913 1025.84C295.624 1025.41 295.472 1024.89 295.458 1024.26H297.243C297.263 1024.55 297.347 1024.8 297.494 1024.99C297.645 1025.19 297.845 1025.33 298.095 1025.43C298.348 1025.53 298.634 1025.58 298.952 1025.58C299.264 1025.58 299.536 1025.53 299.766 1025.44C299.999 1025.35 300.179 1025.22 300.307 1025.06C300.435 1024.9 300.499 1024.71 300.499 1024.5C300.499 1024.31 300.44 1024.14 300.324 1024.01C300.21 1023.87 300.043 1023.76 299.821 1023.67C299.602 1023.57 299.334 1023.49 299.016 1023.41L298.065 1023.17C297.33 1022.99 296.749 1022.71 296.323 1022.33C295.896 1021.95 295.685 1021.44 295.688 1020.8C295.685 1020.27 295.825 1019.81 296.11 1019.41C296.396 1019.02 296.79 1018.71 297.29 1018.49C297.79 1018.26 298.358 1018.15 298.994 1018.15C299.642 1018.15 300.208 1018.26 300.69 1018.49C301.176 1018.71 301.554 1019.02 301.824 1019.41C302.094 1019.81 302.233 1020.26 302.242 1020.78H300.473Z" fill="white"/>
</g>
<rect x="364" y="975" width="60" height="60" rx="16" fill="url(#paint3_linear_66_333)"/>
<path d="M378 1007H390C391.1 1007 392 1006.1 392 1005V989C392 987.9 391.1 987 390 987H378C376.9 987 376 987.9 376 989V1005C376 1006.1 376.9 1007 378 1007ZM378 1023H390C391.1 1023 392 1022.1 392 1021V1013C392 1011.9 391.1 1011 390 1011H378C376.9 1011 376 1011.9 376 1013V1021C376 1022.1 376.9 1023 378 1023ZM398 1023H410C411.1 1023 412 1022.1 412 1021V1005C412 1003.9 411.1 1003 410 1003H398C396.9 1003 396 1003.9 396 1005V1021C396 1022.1 396.9 1023 398 1023ZM396 989V997C396 998.1 396.9 999 398 999H410C411.1 999 412 998.1 412 997V989C412 987.9 411.1 987 410 987H398C396.9 987 396 987.9 396 989Z" fill="white"/>
</g>
<defs>
<filter id="filter0_b_66_333" x="-26" y="909" width="532" height="192" filterUnits="userSpaceOnUse" color-interpolation-filters="sRGB">
<feFlood flood-opacity="0" result="BackgroundImageFix"/>
<feGaussianBlur in="BackgroundImageFix" stdDeviation="25"/>
<feComposite in2="SourceAlpha" operator="in" result="effect1_backgroundBlur_66_333"/>
<feBlend mode="normal" in="SourceGraphic" in2="effect1_backgroundBlur_66_333" result="shape"/>
</filter>
<linearGradient id="paint0_linear_66_333" x1="86" y1="975" x2="86" y2="1035" gradientUnits="userSpaceOnUse">
<stop offset="0.5" stop-color="#57F371"/>
<stop offset="1" stop-color="#58BA68"/>
</linearGradient>
<linearGradient id="paint1_linear_66_333" x1="188.667" y1="975" x2="188.667" y2="1035" gradientUnits="userSpaceOnUse">
<stop stop-color="#F5DE19"/>
<stop offset="1" stop-color="#F5DE19"/>
</linearGradient>
<linearGradient id="paint2_linear_66_333" x1="291.333" y1="975" x2="291.333" y2="1035" gradientUnits="userSpaceOnUse">
<stop stop-color="#1C74F2"/>
<stop offset="1" stop-color="#38BDF8"/>
</linearGradient>
<linearGradient id="paint3_linear_66_333" x1="394" y1="975" x2="394" y2="1035" gradientUnits="userSpaceOnUse">
<stop stop-color="#FB576F"/>
<stop offset="1" stop-color="#E9213E"/>
</linearGradient>
<clipPath id="clip0_66_333">
<rect x="261.333" y="975" width="60" height="60" rx="16" fill="white"/>
</clipPath>
</defs>
</svg>
