<svg width="480" height="1067" viewBox="0 0 480 1067" fill="none" xmlns="http://www.w3.org/2000/svg">
<rect width="480" height="1067" fill="white"/>
<path d="M0 0H480V56H0V0Z" fill="white"/>
<path d="M480 55.5H0V56.5H480V55.5Z" fill="#DDDDDD"/>
<rect opacity="0.35" x="431.007" y="22.5606" width="27.16" height="13.4242" rx="2.16667" stroke="black"/>
<path opacity="0.4" d="M459.947 26.7273V31.8182C460.977 31.387 461.647 30.384 461.647 29.2727C461.647 28.1615 460.977 27.1584 459.947 26.7273Z" fill="black"/>
<rect x="433.067" y="24.606" width="23.04" height="9.33333" rx="1.33333" fill="black"/>
<path fill-rule="evenodd" clip-rule="evenodd" d="M414.294 24.9647C417.142 24.9649 419.88 26.0519 421.944 28.0012C422.1 28.1517 422.348 28.1498 422.501 27.997L423.987 26.5074C424.064 26.4299 424.107 26.3249 424.107 26.2156C424.106 26.1064 424.062 26.0019 423.983 25.9253C418.566 20.7679 410.021 20.7679 404.604 25.9253C404.525 26.0018 404.481 26.1063 404.48 26.2156C404.479 26.3248 404.522 26.4299 404.6 26.5074L406.086 27.997C406.239 28.15 406.487 28.1519 406.643 28.0012C408.707 26.0518 411.446 24.9647 414.294 24.9647ZM414.294 29.8108C415.858 29.8107 417.367 30.3884 418.527 31.4318C418.684 31.5798 418.931 31.5766 419.084 31.4245L420.568 29.935C420.646 29.8569 420.689 29.7509 420.688 29.6408C420.687 29.5306 420.641 29.4255 420.562 29.349C417.03 26.0852 411.561 26.0852 408.029 29.349C407.949 29.4255 407.904 29.5307 407.903 29.6409C407.902 29.751 407.945 29.857 408.023 29.935L409.507 31.4245C409.66 31.5766 409.907 31.5798 410.064 31.4318C411.223 30.3891 412.73 29.8114 414.294 29.8108ZM417.266 33.0713C417.269 33.1817 417.225 33.2882 417.146 33.3656L414.579 35.939C414.503 36.0147 414.401 36.0572 414.294 36.0572C414.187 36.0572 414.084 36.0147 414.009 35.939L411.442 33.3656C411.362 33.2881 411.319 33.1816 411.321 33.0712C411.324 32.9607 411.372 32.8561 411.454 32.7821C413.093 31.4047 415.494 31.4047 417.134 32.7821C417.216 32.8562 417.264 32.9608 417.266 33.0713Z" fill="black"/>
<path fill-rule="evenodd" clip-rule="evenodd" d="M396.8 22.4849H395.52C394.813 22.4849 394.24 23.0547 394.24 23.7576V34.7879C394.24 35.4908 394.813 36.0606 395.52 36.0606H396.8C397.507 36.0606 398.08 35.4908 398.08 34.7879V23.7576C398.08 23.0547 397.507 22.4849 396.8 22.4849ZM389.547 25.4546H390.827C391.534 25.4546 392.107 26.0244 392.107 26.7273V34.7879C392.107 35.4908 391.534 36.0606 390.827 36.0606H389.547C388.84 36.0606 388.267 35.4908 388.267 34.7879V26.7273C388.267 26.0244 388.84 25.4546 389.547 25.4546ZM384.853 28.4243H383.573C382.866 28.4243 382.293 28.9941 382.293 29.697V34.7879C382.293 35.4908 382.866 36.0606 383.573 36.0606H384.853C385.56 36.0606 386.133 35.4908 386.133 34.7879V29.697C386.133 28.9941 385.56 28.4243 384.853 28.4243ZM378.88 30.9697H377.6C376.893 30.9697 376.32 31.5395 376.32 32.2424V34.7879C376.32 35.4908 376.893 36.0606 377.6 36.0606H378.88C379.587 36.0606 380.16 35.4908 380.16 34.7879V32.2424C380.16 31.5395 379.587 30.9697 378.88 30.9697Z" fill="black"/>
<path d="M42.9607 32.1654C45.6487 32.1654 47.2454 30.0634 47.2454 26.4965C47.2454 22.9955 45.5462 21.0766 43.0193 21.0766C40.7195 21.0766 39.0935 22.622 39.0935 24.7826C39.0935 26.8114 40.5584 28.2909 42.5725 28.2909C43.8103 28.2909 44.8137 27.7196 45.3118 26.7162H45.4363C45.4143 29.1991 44.5281 30.62 42.9827 30.62C42.0745 30.62 41.3494 30.122 41.1223 29.3163H39.24C39.5476 31.0375 41.0271 32.1654 42.9607 32.1654ZM43.0266 26.8334C41.7962 26.8334 40.9465 25.9691 40.9465 24.724C40.9465 23.5302 41.8401 22.6147 43.0339 22.6147C44.2278 22.6147 45.1214 23.5448 45.1214 24.7607C45.1214 25.9618 44.2498 26.8334 43.0266 26.8334ZM50.3965 26.6796C51.0923 26.6796 51.5684 26.1889 51.5684 25.5443C51.5684 24.8925 51.0923 24.4091 50.3965 24.4091C49.708 24.4091 49.2246 24.8925 49.2246 25.5443C49.2246 26.1889 49.708 26.6796 50.3965 26.6796ZM50.3965 32.0556C51.0923 32.0556 51.5684 31.5648 51.5684 30.913C51.5684 30.2685 51.0923 29.7777 50.3965 29.7777C49.708 29.7777 49.2246 30.2685 49.2246 30.913C49.2246 31.5648 49.708 32.0556 50.3965 32.0556ZM58.4841 31.9091H60.2932V29.8803H61.7214V28.3202H60.2932V21.3402H57.6272C56.1916 23.5229 54.6902 25.9545 53.3206 28.3349V29.8803H58.4841V31.9091ZM55.071 28.2543C56.1038 26.4599 57.3269 24.5043 58.4109 22.849H58.5134V28.3642H55.071V28.2543ZM65.81 31.9091H67.6997V21.3402H65.8174L63.0561 23.2812V25.0609L65.6855 23.2006H65.81V31.9091Z" fill="black"/>
<rect width="480" height="64" transform="translate(0 57)" fill="white" fill-opacity="0.5"/>
<path fill-rule="evenodd" clip-rule="evenodd" d="M230 85.3107C230 81.8254 232.825 79 236.311 79C237.688 79 238.962 79.4413 240 80.1902C241.038 79.4413 242.312 79 243.689 79C247.175 79 250 81.8254 250 85.3107V99H244.757V85.5709C244.757 85.0347 244.323 84.6 243.786 84.6C243.25 84.6 242.816 85.0347 242.816 85.5709V99H242.621H237.379L237.379 85.567C237.377 85.0326 236.943 84.6 236.408 84.6C235.872 84.6 235.437 85.0347 235.437 85.5709V99H230V85.3107Z" fill="#00B0F0"/>
<path fill-rule="evenodd" clip-rule="evenodd" d="M261.8 79H272C272 82.0928 269.493 84.6 266.4 84.6H261.8H258.6C258.048 84.6 257.6 85.0477 257.6 85.6V99H252V84.6C252 81.5072 254.507 79 257.6 79H261.8ZM260 89.6935V95.6757C260 97.1835 261.605 98.149 262.937 97.4427L268.634 94.4217C270.058 93.6666 270.05 91.6234 268.62 90.8801L262.922 87.9189C261.591 87.2269 260 88.193 260 89.6935Z" fill="#00B0F0"/>
<path fill-rule="evenodd" clip-rule="evenodd" d="M218 79C212.477 79 208 83.4772 208 89V90.1111C208 95.0203 211.98 99 216.889 99H217.6C220.373 99 222.222 97.1333 222.8 96.2V99H228V89C228 83.4772 223.523 79 218 79ZM218 93.4C220.43 93.4 222.4 91.4301 222.4 89C222.4 86.5699 220.43 84.6 218 84.6C215.57 84.6 213.6 86.5699 213.6 89C213.6 91.4301 215.57 93.4 218 93.4Z" fill="#00B0F0"/>
<path d="M444.088 101C440.729 101 437.875 99.8265 435.525 97.4794C433.175 95.1323 432 92.2817 432 88.9276C432 85.8702 432.997 83.2193 434.992 80.9748C436.986 78.7304 439.456 77.4054 442.401 77C442.483 77 442.563 77.003 442.642 77.0091C442.72 77.0151 442.797 77.0236 442.873 77.0347C442.363 77.745 441.96 78.5347 441.663 79.4039C441.365 80.2731 441.217 81.1841 441.217 82.1368C441.217 84.8199 442.157 87.1001 444.036 88.9774C445.916 90.8546 448.199 91.7938 450.887 91.7948C451.845 91.7948 452.758 91.6464 453.626 91.3496C454.495 91.0528 455.274 90.6499 455.965 90.1408C455.977 90.2163 455.986 90.2933 455.991 90.3717C455.996 90.4502 455.999 90.5302 456 90.6117C455.613 93.5523 454.296 96.0186 452.049 98.0106C449.802 100.003 447.149 100.999 444.088 101Z" fill="black"/>
<rect x="50" y="511" width="380" height="56" rx="16" fill="#213547"/>
<path d="M193.344 533.552H196.728V536.096H193.344V533.552ZM184.824 538.328H186.336C189.504 538.328 191.544 538.256 193.968 537.848L194.256 540.344C191.736 540.776 189.624 540.824 186.336 540.824H184.824V538.328ZM184.824 529.376H193.2V531.896H187.896V539.432H184.824V529.376ZM186.984 533.864H192.384V536.264H186.984V533.864ZM187.608 542.672H202.896V550.136H199.728V545.192H187.608V542.672ZM199.872 527.912H202.896V541.784H199.872V527.912ZM195.528 528.344H198.504V541.64H195.528V528.344ZM214.054 529.184H216.838V530.792C216.838 535.616 213.406 539.888 207.646 541.016L206.278 538.376C211.294 537.512 214.054 533.984 214.054 530.792V529.184ZM214.702 529.184H217.462V530.792C217.462 534.056 220.198 537.512 225.238 538.376L223.87 541.016C218.11 539.888 214.702 535.688 214.702 530.792V529.184ZM205.822 544.832H225.934V547.424H205.822V544.832ZM230.012 539.36H245.636V541.856H230.012V539.36ZM227.66 545H247.772V547.592H227.66V545ZM230.012 529.52H245.444V532.088H233.252V540.056H230.012V529.52ZM232.268 534.416H244.94V536.888H232.268V534.416ZM254.789 538.88H274.877V541.448H254.789V538.88ZM263.213 536.048H266.405V539.432H263.213V536.048ZM257.021 542.96H272.453V550.136H269.261V545.48H257.021V542.96ZM257.357 528.464H260.501V530.432H269.165V528.464H272.333V537.056H257.357V528.464ZM260.501 532.808V534.56H269.165V532.808H260.501ZM281.619 529.616H284.211V532.856C284.211 538.352 282.291 543.512 278.091 545.576L276.171 543.008C279.915 541.256 281.619 536.984 281.619 532.856V529.616ZM282.267 529.616H284.811V532.856C284.811 536.84 286.395 540.896 289.947 542.624L288.027 545.168C284.019 543.128 282.267 538.184 282.267 532.856V529.616ZM290.835 527.912H294.051V550.136H290.835V527.912ZM293.331 536.456H297.267V539.12H293.331V536.456Z" fill="white"/>
<rect x="50" y="583" width="380" height="56" rx="16" fill="#213547"/>
<path d="M185.904 612.008H189.096V617.984H185.904V612.008ZM192.888 612.032H196.056V618.008H192.888V612.032ZM180.984 617.12H201.096V619.712H180.984V617.12ZM182.52 601.664H199.44V604.208H182.52V601.664ZM182.616 610.448H199.368V612.968H182.616V610.448ZM185.544 603.776H188.736V610.808H185.544V603.776ZM193.248 603.776H196.416V610.808H193.248V603.776ZM208.113 610.88H228.201V613.448H208.113V610.88ZM216.537 608.048H219.729V611.432H216.537V608.048ZM210.345 614.96H225.777V622.136H222.585V617.48H210.345V614.96ZM210.681 600.464H213.825V602.432H222.489V600.464H225.657V609.056H210.681V600.464ZM213.825 604.808V606.56H222.489V604.808H213.825ZM234.943 601.616H237.535V604.856C237.535 610.352 235.615 615.512 231.415 617.576L229.495 615.008C233.239 613.256 234.943 608.984 234.943 604.856V601.616ZM235.591 601.616H238.135V604.856C238.135 608.84 239.719 612.896 243.271 614.624L241.351 617.168C237.343 615.128 235.591 610.184 235.591 604.856V601.616ZM244.159 599.912H247.375V622.136H244.159V599.912ZM246.655 608.456H250.591V611.12H246.655V608.456ZM272.416 599.912H275.632V622.136H272.416V599.912ZM265.864 602.216H269.032C269.032 609.008 266.728 614.576 258.832 618.392L257.176 615.848C263.56 612.776 265.864 608.744 265.864 602.792V602.216ZM258.352 602.216H267.376V604.736H258.352V602.216ZM281.486 605.432H296.822V607.976H281.486V605.432ZM281.486 600.272H284.654V606.584H281.486V600.272ZM278.966 609.872H299.078V612.416H278.966V609.872ZM288.95 613.832C293.75 613.832 296.654 615.32 296.654 617.96C296.654 620.576 293.75 622.088 288.95 622.088C284.15 622.088 281.222 620.576 281.222 617.96C281.222 615.32 284.15 613.832 288.95 613.832ZM288.95 616.28C285.974 616.28 284.462 616.808 284.462 617.96C284.462 619.088 285.974 619.64 288.95 619.64C291.926 619.64 293.438 619.088 293.438 617.96C293.438 616.808 291.926 616.28 288.95 616.28Z" fill="white"/>
<rect x="50" y="655" width="380" height="56" rx="16" fill="#213547"/>
<path d="M198.624 671.864H201.816V694.16H198.624V671.864ZM200.52 680.216H204.432V682.832H200.52V680.216ZM184.392 686.096H185.52C187.224 686.096 188.568 686.072 190.224 685.736L190.464 688.328C188.712 688.688 187.32 688.712 185.52 688.712H184.392V686.096ZM184.392 674.144H190.104V676.664H187.56V687.272H184.392V674.144ZM191.256 686.096H192.432C194.952 686.096 196.128 686.048 197.52 685.688L197.76 688.28C196.296 688.664 195.096 688.712 192.432 688.712H191.256V686.096ZM191.256 674.144H197.232V676.664H194.4V687.32H191.256V674.144ZM214.222 680.024H217.39V683.264H214.222V680.024ZM215.854 672.224C220.75 672.224 223.894 673.856 223.894 676.544C223.894 679.232 220.75 680.864 215.854 680.864C210.958 680.864 207.814 679.232 207.814 676.544C207.814 673.856 210.958 672.224 215.854 672.224ZM215.854 674.672C212.806 674.672 211.102 675.296 211.102 676.544C211.102 677.816 212.806 678.416 215.854 678.416C218.878 678.416 220.606 677.816 220.606 676.544C220.606 675.296 218.878 674.672 215.854 674.672ZM208.126 686.312H223.486V693.896H208.126V686.312ZM220.366 688.832H211.27V691.376H220.366V688.832ZM205.798 682.352H225.886V684.872H205.798V682.352ZM232.58 684.008H235.772V689.984H232.58V684.008ZM239.564 684.032H242.732V690.008H239.564V684.032ZM227.66 689.12H247.772V691.712H227.66V689.12ZM229.196 673.664H246.116V676.208H229.196V673.664ZM229.292 682.448H246.044V684.968H229.292V682.448ZM232.22 675.776H235.412V682.808H232.22V675.776ZM239.924 675.776H243.092V682.808H239.924V675.776ZM265.685 675.632H271.349V678.152H265.685V675.632ZM265.685 680.408H271.445V682.928H265.685V680.408ZM270.197 671.936H273.389V688.328H270.197V671.936ZM258.677 691.208H273.869V693.752H258.677V691.208ZM258.677 686.72H261.893V692.672H258.677V686.72ZM255.725 673.376H258.893V676.76H263.117V673.376H266.237V684.848H255.725V673.376ZM258.893 679.184V682.328H263.117V679.184H258.893ZM291.075 671.912H294.267V689.288H291.075V671.912ZM293.139 679.184H297.051V681.776H293.139V679.184ZM279.435 691.208H295.011V693.752H279.435V691.208ZM279.435 688.16H282.651V691.952H279.435V688.16ZM281.667 682.592H284.859V685.832H281.667V682.592ZM276.723 687.128L276.363 684.68C280.227 684.68 285.579 684.608 290.091 683.936L290.331 686.12C285.723 686.984 280.515 687.08 276.723 687.128ZM276.939 673.688H289.539V675.992H276.939V673.688ZM283.251 676.568C286.515 676.568 288.651 677.864 288.651 680.024C288.651 682.136 286.515 683.456 283.251 683.456C279.987 683.456 277.827 682.136 277.827 680.024C277.827 677.864 279.987 676.568 283.251 676.568ZM283.251 678.704C281.739 678.704 280.851 679.136 280.851 680.024C280.851 680.864 281.739 681.296 283.251 681.296C284.739 681.296 285.627 680.864 285.627 680.024C285.627 679.136 284.739 678.704 283.251 678.704ZM281.667 671.816H284.859V674.672H281.667V671.816Z" fill="white"/>
<rect x="50" y="727" width="380" height="56" rx="16" fill="#213547"/>
<path d="M206.168 750.848H212.024V753.416H206.168V750.848ZM200.12 745.616H202.712V748.832C202.712 754.424 200.816 759.584 196.64 761.672L194.648 759.104C198.44 757.352 200.12 753.056 200.12 748.832V745.616ZM200.792 745.616H203.336V748.832C203.336 753.056 204.944 757.112 208.616 758.744L206.72 761.288C202.544 759.272 200.792 754.376 200.792 748.832V745.616ZM210.44 743.888H213.608V766.184H210.44V743.888ZM222.006 744.92H224.646V747.056C224.646 751.256 222.606 755.072 218.262 756.464L216.702 753.944C220.446 752.744 222.006 749.864 222.006 747.056V744.92ZM222.654 744.92H225.27V747.056C225.27 749.792 226.806 752.48 230.43 753.584L228.87 756.08C224.622 754.736 222.654 751.184 222.654 747.056V744.92ZM220.11 758.144H235.278V766.136H232.062V760.688H220.11V758.144ZM232.062 743.912H235.278V757.16H232.062V743.912ZM243.951 754.88H264.039V757.448H243.951V754.88ZM252.375 752.048H255.567V755.432H252.375V752.048ZM246.183 758.96H261.615V766.136H258.423V761.48H246.183V758.96ZM246.519 744.464H249.663V746.432H258.327V744.464H261.495V753.056H246.519V744.464ZM249.663 748.808V750.56H258.327V748.808H249.663ZM270.781 745.616H273.373V748.856C273.373 754.352 271.453 759.512 267.253 761.576L265.333 759.008C269.077 757.256 270.781 752.984 270.781 748.856V745.616ZM271.429 745.616H273.973V748.856C273.973 752.84 275.557 756.896 279.109 758.624L277.189 761.168C273.181 759.128 271.429 754.184 271.429 748.856V745.616ZM279.997 743.912H283.213V766.136H279.997V743.912ZM282.493 752.456H286.429V755.12H282.493V752.456Z" fill="white"/>
<g filter="url(#filter0_b_66_157)">
<rect x="24" y="959" width="432" height="92" rx="32" fill="#BFBFBF" fill-opacity="0.4"/>
<rect x="24" y="959" width="432" height="92" rx="32" fill="#0D0D0D" style="mix-blend-mode:color-dodge"/>
<rect x="56" y="975" width="60" height="60" rx="16" fill="url(#paint0_linear_66_157)"/>
<path d="M83.5284 988.032C84.312 987.366 85.3069 987 86.3354 987C87.3638 987 88.3588 987.366 89.1424 988.032L102.144 999.083C102.622 999.489 103.007 999.995 103.271 1000.57C103.534 1001.14 103.671 1001.76 103.671 1002.38V1019.67C103.671 1020.55 103.32 1021.4 102.694 1022.02C102.069 1022.65 101.221 1023 100.337 1023H95.0031C94.1189 1023 93.271 1022.65 92.6458 1022.02C92.0206 1021.4 91.6693 1020.55 91.6693 1019.67V1011C91.6693 1010.29 91.39 1009.62 90.8924 1009.12C90.3949 1008.62 89.7196 1008.33 89.0144 1008.33H83.6551C82.95 1008.34 82.2751 1008.62 81.7778 1009.12C81.2806 1009.62 81.0014 1010.29 81.0014 1011V1019.67C81.0014 1020.1 80.9152 1020.54 80.7477 1020.94C80.5801 1021.35 80.3346 1021.71 80.025 1022.02C79.7154 1022.33 79.3479 1022.58 78.9434 1022.75C78.539 1022.91 78.1055 1023 77.6677 1023H72.3337C71.4496 1023 70.6016 1022.65 69.9764 1022.02C69.3512 1021.4 69 1020.55 69 1019.67V1002.38C69 1001.76 69.1366 1001.14 69.4002 1000.57C69.6639 999.995 70.0483 999.489 70.5268 999.083L83.5284 988.032Z" fill="white"/>
<rect x="158.667" y="975" width="60" height="60" rx="16" fill="url(#paint1_linear_66_157)"/>
<path d="M190.842 1012.49C189.601 1012.49 188.884 1013.67 188.884 1015.24C188.884 1016.83 189.63 1017.95 190.852 1017.95C192.092 1017.95 192.8 1016.77 192.8 1015.2C192.8 1013.75 192.102 1012.49 190.842 1012.49Z" fill="white"/>
<path d="M193.667 981H174.467C173.194 981 171.973 981.506 171.073 982.406C170.172 983.306 169.667 984.527 169.667 985.8V1024.2C169.667 1025.47 170.172 1026.69 171.073 1027.59C171.973 1028.49 173.194 1029 174.467 1029H203.267C204.54 1029 205.761 1028.49 206.661 1027.59C207.561 1026.69 208.067 1025.47 208.067 1024.2V995.4L193.667 981ZM179.319 1016.29C179.319 1018.6 178.213 1019.4 176.439 1019.4C176.017 1019.4 175.465 1019.33 175.103 1019.21L175.309 1017.73C175.559 1017.82 175.883 1017.88 176.247 1017.88C177.013 1017.88 177.495 1017.53 177.495 1016.27V1011.18H179.322L179.319 1016.29ZM182.821 1019.39C181.897 1019.39 180.983 1019.15 180.529 1018.9L180.901 1017.38C181.391 1017.63 182.151 1017.89 182.931 1017.89C183.771 1017.89 184.213 1017.54 184.213 1017.01C184.213 1016.51 183.831 1016.22 182.859 1015.87C181.511 1015.4 180.635 1014.66 180.635 1013.48C180.635 1012.1 181.789 1011.04 183.699 1011.04C184.611 1011.04 185.281 1011.23 185.766 1011.45L185.353 1012.92C185.029 1012.77 184.453 1012.54 183.661 1012.54C182.869 1012.54 182.483 1012.9 182.483 1013.32C182.483 1013.84 182.939 1014.07 183.987 1014.46C185.418 1014.99 186.09 1015.74 186.09 1016.88C186.092 1018.24 185.043 1019.39 182.821 1019.39ZM190.755 1019.4C188.353 1019.4 186.949 1017.59 186.949 1015.28C186.949 1012.85 188.499 1011.04 190.89 1011.04C193.374 1011.04 194.732 1012.9 194.732 1015.14C194.73 1017.79 193.122 1019.4 190.755 1019.4ZM202.628 1019.27H200.703L198.973 1016.14C198.455 1015.22 197.987 1014.26 197.569 1013.29L197.531 1013.3C197.581 1014.37 197.605 1015.51 197.605 1016.83V1019.27H195.923V1011.18H198.061L199.743 1014.14C200.223 1014.99 200.703 1016 201.068 1016.91H201.102C200.982 1015.85 200.946 1014.75 200.946 1013.54V1011.18H202.631L202.628 1019.27ZM193.667 997.8H191.267V985.8L203.267 997.8H193.667Z" fill="white"/>
<g clip-path="url(#clip0_66_157)">
<rect x="261.333" y="975" width="60" height="60" rx="16" fill="url(#paint2_linear_66_157)"/>
<path d="M310.199 997.263L301.33 983.242C301.094 982.865 300.766 982.555 300.378 982.339C299.989 982.124 299.552 982.011 299.108 982.01L282.516 981.922C282.042 981.919 281.576 982.044 281.167 982.283C280.758 982.522 280.42 982.866 280.189 983.28L272.521 997.115C272.292 997.53 272.179 997.999 272.193 998.472C272.207 998.946 272.348 999.407 272.602 999.807L281.469 1013.83C281.705 1014.21 282.032 1014.52 282.421 1014.73C282.81 1014.95 283.247 1015.06 283.691 1015.06L300.283 1015.15C300.757 1015.15 301.223 1015.03 301.632 1014.79C302.041 1014.55 302.379 1014.21 302.609 1013.79L310.277 999.96C310.507 999.545 310.621 999.075 310.608 998.601C310.594 998.126 310.453 997.664 310.199 997.263ZM299.096 984.651L307.19 997.458L292.04 997.381L283.946 984.574L299.096 984.651ZM281.716 985.985L289.778 998.733L282.899 1011.14L274.834 998.399L281.716 985.985ZM285.213 1012.43L292.089 1000.02L307.175 1000.1L300.297 1012.51L285.213 1012.43Z" fill="white"/>
<path d="M287.282 1021.33H285.416C285.381 1021.09 285.312 1020.87 285.207 1020.68C285.102 1020.49 284.967 1020.33 284.802 1020.2C284.637 1020.07 284.447 1019.96 284.231 1019.89C284.018 1019.82 283.786 1019.79 283.536 1019.79C283.085 1019.79 282.691 1019.9 282.356 1020.12C282.021 1020.34 281.761 1020.67 281.576 1021.09C281.391 1021.52 281.299 1022.03 281.299 1022.64C281.299 1023.26 281.391 1023.78 281.576 1024.2C281.764 1024.63 282.025 1024.95 282.36 1025.16C282.695 1025.38 283.083 1025.49 283.524 1025.49C283.771 1025.49 283.999 1025.45 284.21 1025.39C284.423 1025.32 284.612 1025.23 284.776 1025.1C284.941 1024.98 285.077 1024.82 285.185 1024.64C285.296 1024.46 285.373 1024.25 285.416 1024.02L287.282 1024.03C287.234 1024.43 287.113 1024.81 286.92 1025.18C286.729 1025.55 286.472 1025.88 286.149 1026.18C285.827 1026.47 285.444 1026.7 284.998 1026.87C284.555 1027.04 284.053 1027.12 283.494 1027.12C282.715 1027.12 282.019 1026.94 281.406 1026.59C280.795 1026.24 280.312 1025.73 279.957 1025.06C279.604 1024.39 279.428 1023.59 279.428 1022.64C279.428 1021.68 279.607 1020.88 279.965 1020.21C280.323 1019.54 280.809 1019.03 281.423 1018.68C282.036 1018.33 282.727 1018.15 283.494 1018.15C283.999 1018.15 284.468 1018.22 284.9 1018.37C285.335 1018.51 285.72 1018.72 286.055 1018.99C286.39 1019.26 286.663 1019.59 286.873 1019.98C287.086 1020.37 287.222 1020.82 287.282 1021.33ZM288.205 1027V1018.27H291.699C292.342 1018.27 292.877 1018.37 293.306 1018.56C293.735 1018.75 294.057 1019.01 294.273 1019.35C294.489 1019.69 294.597 1020.07 294.597 1020.51C294.597 1020.85 294.529 1021.15 294.393 1021.41C294.256 1021.66 294.069 1021.87 293.83 1022.04C293.594 1022.2 293.324 1022.32 293.021 1022.38V1022.47C293.353 1022.48 293.664 1022.58 293.954 1022.75C294.246 1022.92 294.484 1023.17 294.665 1023.48C294.847 1023.79 294.938 1024.16 294.938 1024.59C294.938 1025.05 294.823 1025.46 294.593 1025.83C294.366 1026.19 294.029 1026.47 293.583 1026.68C293.137 1026.89 292.587 1027 291.934 1027H288.205ZM290.05 1025.49H291.555C292.069 1025.49 292.444 1025.39 292.68 1025.2C292.915 1025 293.033 1024.73 293.033 1024.4C293.033 1024.16 292.975 1023.95 292.859 1023.77C292.742 1023.58 292.576 1023.44 292.36 1023.33C292.147 1023.23 291.893 1023.17 291.597 1023.17H290.05V1025.49ZM290.05 1021.92H291.418C291.671 1021.92 291.896 1021.88 292.092 1021.79C292.29 1021.7 292.447 1021.57 292.56 1021.41C292.677 1021.24 292.735 1021.05 292.735 1020.82C292.735 1020.5 292.623 1020.25 292.398 1020.05C292.177 1019.86 291.861 1019.76 291.452 1019.76H290.05V1021.92ZM300.473 1020.78C300.439 1020.44 300.293 1020.17 300.034 1019.98C299.776 1019.79 299.425 1019.7 298.982 1019.7C298.681 1019.7 298.426 1019.74 298.219 1019.82C298.011 1019.91 297.852 1020.02 297.742 1020.17C297.634 1020.32 297.58 1020.48 297.58 1020.67C297.574 1020.83 297.607 1020.96 297.678 1021.08C297.752 1021.2 297.852 1021.3 297.98 1021.38C298.108 1021.47 298.256 1021.54 298.423 1021.6C298.591 1021.66 298.77 1021.71 298.96 1021.75L299.744 1021.94C300.125 1022.03 300.475 1022.14 300.793 1022.28C301.111 1022.42 301.386 1022.6 301.619 1022.81C301.852 1023.01 302.033 1023.26 302.161 1023.54C302.291 1023.82 302.358 1024.14 302.361 1024.51C302.358 1025.04 302.222 1025.5 301.952 1025.9C301.685 1026.29 301.298 1026.59 300.793 1026.8C300.29 1027.02 299.683 1027.12 298.973 1027.12C298.269 1027.12 297.655 1027.02 297.132 1026.8C296.612 1026.58 296.206 1026.26 295.913 1025.84C295.624 1025.41 295.472 1024.89 295.458 1024.26H297.243C297.263 1024.55 297.347 1024.8 297.494 1024.99C297.645 1025.19 297.845 1025.33 298.095 1025.43C298.348 1025.53 298.634 1025.58 298.952 1025.58C299.264 1025.58 299.536 1025.53 299.766 1025.44C299.999 1025.35 300.179 1025.22 300.307 1025.06C300.435 1024.9 300.499 1024.71 300.499 1024.5C300.499 1024.31 300.44 1024.14 300.324 1024.01C300.21 1023.87 300.043 1023.76 299.821 1023.67C299.602 1023.57 299.334 1023.49 299.016 1023.41L298.065 1023.17C297.33 1022.99 296.749 1022.71 296.323 1022.33C295.896 1021.95 295.685 1021.44 295.688 1020.8C295.685 1020.27 295.825 1019.81 296.11 1019.41C296.396 1019.02 296.79 1018.71 297.29 1018.49C297.79 1018.26 298.358 1018.15 298.994 1018.15C299.642 1018.15 300.208 1018.26 300.69 1018.49C301.176 1018.71 301.554 1019.02 301.824 1019.41C302.094 1019.81 302.233 1020.26 302.242 1020.78H300.473Z" fill="white"/>
</g>
<rect x="364" y="975" width="60" height="60" rx="16" fill="url(#paint3_linear_66_157)"/>
<path d="M378 1007H390C391.1 1007 392 1006.1 392 1005V989C392 987.9 391.1 987 390 987H378C376.9 987 376 987.9 376 989V1005C376 1006.1 376.9 1007 378 1007ZM378 1023H390C391.1 1023 392 1022.1 392 1021V1013C392 1011.9 391.1 1011 390 1011H378C376.9 1011 376 1011.9 376 1013V1021C376 1022.1 376.9 1023 378 1023ZM398 1023H410C411.1 1023 412 1022.1 412 1021V1005C412 1003.9 411.1 1003 410 1003H398C396.9 1003 396 1003.9 396 1005V1021C396 1022.1 396.9 1023 398 1023ZM396 989V997C396 998.1 396.9 999 398 999H410C411.1 999 412 998.1 412 997V989C412 987.9 411.1 987 410 987H398C396.9 987 396 987.9 396 989Z" fill="white"/>
</g>
<path d="M174.605 414.222H171.946C171.844 413.653 171.654 413.153 171.375 412.722C171.097 412.29 170.756 411.923 170.352 411.622C169.949 411.321 169.497 411.094 168.997 410.94C168.503 410.787 167.977 410.71 167.421 410.71C166.415 410.71 165.514 410.963 164.719 411.469C163.929 411.974 163.304 412.716 162.844 413.693C162.389 414.67 162.162 415.864 162.162 417.273C162.162 418.693 162.389 419.892 162.844 420.869C163.304 421.847 163.932 422.585 164.727 423.085C165.523 423.585 166.418 423.835 167.412 423.835C167.963 423.835 168.486 423.761 168.98 423.614C169.48 423.46 169.932 423.236 170.335 422.94C170.739 422.645 171.08 422.284 171.358 421.858C171.642 421.426 171.838 420.932 171.946 420.375L174.605 420.384C174.463 421.241 174.188 422.031 173.779 422.753C173.375 423.469 172.855 424.088 172.219 424.611C171.588 425.128 170.867 425.528 170.054 425.812C169.242 426.097 168.355 426.239 167.395 426.239C165.884 426.239 164.537 425.881 163.355 425.165C162.173 424.443 161.242 423.412 160.56 422.071C159.884 420.73 159.546 419.131 159.546 417.273C159.546 415.409 159.886 413.81 160.568 412.474C161.25 411.134 162.182 410.105 163.364 409.389C164.546 408.668 165.889 408.307 167.395 408.307C168.321 408.307 169.185 408.44 169.986 408.707C170.793 408.969 171.517 409.355 172.159 409.866C172.801 410.372 173.333 410.991 173.753 411.724C174.173 412.452 174.458 413.284 174.605 414.222ZM177.517 426V408.545H183.909C185.147 408.545 186.173 408.75 186.985 409.159C187.798 409.562 188.406 410.111 188.809 410.804C189.213 411.491 189.414 412.267 189.414 413.131C189.414 413.858 189.281 414.472 189.014 414.972C188.747 415.466 188.389 415.864 187.94 416.165C187.497 416.46 187.008 416.676 186.474 416.812V416.983C187.053 417.011 187.619 417.199 188.17 417.545C188.727 417.886 189.187 418.372 189.551 419.003C189.914 419.634 190.096 420.401 190.096 421.304C190.096 422.196 189.886 422.997 189.465 423.707C189.051 424.412 188.409 424.972 187.539 425.386C186.67 425.795 185.559 426 184.207 426H177.517ZM180.15 423.741H183.951C185.213 423.741 186.116 423.497 186.661 423.009C187.207 422.52 187.48 421.909 187.48 421.176C187.48 420.625 187.34 420.119 187.062 419.659C186.784 419.199 186.386 418.832 185.869 418.56C185.357 418.287 184.749 418.151 184.045 418.151H180.15V423.741ZM180.15 416.097H183.678C184.269 416.097 184.801 415.983 185.272 415.756C185.749 415.528 186.127 415.21 186.406 414.801C186.69 414.386 186.832 413.898 186.832 413.335C186.832 412.614 186.579 412.009 186.073 411.52C185.568 411.031 184.792 410.787 183.747 410.787H180.15V416.097ZM202.5 413.131C202.409 412.324 202.034 411.699 201.375 411.256C200.715 410.807 199.886 410.582 198.886 410.582C198.17 410.582 197.551 410.696 197.028 410.923C196.505 411.145 196.099 411.452 195.809 411.844C195.525 412.23 195.383 412.67 195.383 413.165C195.383 413.58 195.48 413.937 195.673 414.239C195.872 414.54 196.13 414.793 196.448 414.997C196.772 415.196 197.119 415.364 197.488 415.5C197.857 415.631 198.213 415.739 198.554 415.824L200.258 416.267C200.815 416.403 201.386 416.588 201.971 416.821C202.556 417.054 203.099 417.361 203.599 417.741C204.099 418.122 204.502 418.594 204.809 419.156C205.122 419.719 205.278 420.392 205.278 421.176C205.278 422.165 205.022 423.043 204.511 423.81C204.005 424.577 203.269 425.182 202.304 425.625C201.343 426.068 200.181 426.29 198.818 426.29C197.511 426.29 196.38 426.082 195.426 425.668C194.471 425.253 193.724 424.665 193.184 423.903C192.644 423.136 192.346 422.227 192.289 421.176H194.931C194.982 421.807 195.187 422.332 195.545 422.753C195.909 423.168 196.372 423.477 196.934 423.682C197.502 423.881 198.125 423.98 198.801 423.98C199.545 423.98 200.207 423.864 200.786 423.631C201.372 423.392 201.832 423.062 202.167 422.642C202.502 422.216 202.67 421.719 202.67 421.151C202.67 420.634 202.522 420.21 202.227 419.881C201.937 419.551 201.542 419.278 201.042 419.062C200.548 418.847 199.988 418.656 199.363 418.491L197.301 417.929C195.903 417.548 194.795 416.989 193.977 416.25C193.164 415.511 192.758 414.534 192.758 413.318C192.758 412.312 193.031 411.435 193.576 410.685C194.122 409.935 194.86 409.352 195.792 408.938C196.724 408.517 197.775 408.307 198.946 408.307C200.127 408.307 201.17 408.514 202.073 408.929C202.982 409.344 203.698 409.915 204.221 410.642C204.744 411.364 205.017 412.193 205.039 413.131H202.5ZM229.443 406.152H231.411V427.896H229.443V406.152ZM224.763 414.072H230.019V415.704H224.763V414.072ZM219.075 409.272H220.683V412.512C220.683 417.192 217.995 421.824 214.563 423.6L213.387 422.016C216.507 420.48 219.075 416.376 219.075 412.512V409.272ZM219.483 409.272H221.067V412.512C221.067 416.136 223.587 420.096 226.731 421.584L225.555 423.144C222.123 421.44 219.483 416.976 219.483 412.512V409.272ZM214.179 408.384H225.987V410.04H214.179V408.384ZM240.745 408.408H242.377V410.16C242.377 414.144 239.977 417.456 236.353 418.752L235.297 417.192C238.585 416.04 240.745 413.256 240.745 410.16V408.408ZM241.105 408.408H242.737V410.136C242.737 413.016 244.825 415.68 248.017 416.76L246.985 418.32C243.409 417.072 241.105 413.88 241.105 410.136V408.408ZM235.921 407.688H247.513V409.32H235.921V407.688ZM250.249 406.176H252.241V419.232H250.249V406.176ZM251.689 411.888H255.457V413.544H251.689V411.888ZM238.153 420.384H252.241V427.872H250.249V422.04H238.153V420.384ZM262.607 409.272H264.191V412.8C264.191 417.312 261.431 421.968 258.047 423.696L256.895 422.112C259.991 420.6 262.607 416.472 262.607 412.8V409.272ZM262.967 409.272H264.551V412.8C264.551 416.232 266.999 420.096 270.143 421.584L269.015 423.168C265.583 421.464 262.967 417.096 262.967 412.8V409.272ZM257.663 408.384H269.351V410.064H257.663V408.384ZM271.919 406.176H273.935V427.872H271.919V406.176ZM273.455 414.936H277.487V416.616H273.455V414.936ZM287.877 414.6H291.981V416.256H287.877V414.6ZM295.605 406.176H297.525V427.872H295.605V406.176ZM291.309 406.632H293.205V426.792H291.309V406.632ZM283.965 407.976C286.773 407.976 288.597 410.88 288.597 415.536C288.597 420.192 286.773 423.096 283.965 423.096C281.157 423.096 279.357 420.192 279.357 415.536C279.357 410.88 281.157 407.976 283.965 407.976ZM283.965 409.824C282.261 409.824 281.181 412.032 281.181 415.536C281.181 419.04 282.261 421.248 283.965 421.248C285.693 421.248 286.773 419.04 286.773 415.536C286.773 412.032 285.693 409.824 283.965 409.824ZM317.443 406.176H319.363V427.872H317.443V406.176ZM308.035 415.032H313.507V416.64H308.035V415.032ZM312.931 406.728H314.803V426.768H312.931V406.728ZM308.299 408.912H310.219C310.219 414.6 307.939 419.712 302.083 423.192L300.907 421.776C306.019 418.704 308.299 414.384 308.299 409.272V408.912ZM301.867 408.912H309.043V410.544H301.867V408.912ZM89.1584 452.304H104.062V453.936H89.1584V452.304ZM86.6864 459.48H106.342V461.16H86.6864V459.48ZM95.4704 453H97.4624V460.152H95.4704V453ZM89.1584 443.904H103.846V445.536H91.1504V453.024H89.1584V443.904ZM117.333 453.24H119.301V457.008H117.333V453.24ZM118.317 442.584C122.997 442.584 125.949 444.096 125.949 446.664C125.949 449.232 122.997 450.72 118.317 450.72C113.613 450.72 110.685 449.232 110.685 446.664C110.685 444.096 113.613 442.584 118.317 442.584ZM118.317 444.144C114.861 444.144 112.725 445.08 112.725 446.664C112.725 448.248 114.861 449.16 118.317 449.16C121.749 449.16 123.909 448.248 123.909 446.664C123.909 445.08 121.749 444.144 118.317 444.144ZM110.901 456.432H125.709V463.584H110.901V456.432ZM123.765 458.04H112.869V461.976H123.765V458.04ZM108.501 452.376H128.109V454.008H108.501V452.376ZM146.107 442.152H148.099V463.896H146.107V442.152ZM136.651 443.832C139.867 443.832 142.171 446.784 142.171 451.392C142.171 456.024 139.867 458.976 136.651 458.976C133.459 458.976 131.155 456.024 131.155 451.392C131.155 446.784 133.459 443.832 136.651 443.832ZM136.651 445.632C134.539 445.632 133.051 447.888 133.051 451.392C133.051 454.92 134.539 457.224 136.651 457.224C138.787 457.224 140.251 454.92 140.251 451.392C140.251 447.888 138.787 445.632 136.651 445.632ZM160.016 451.512H171.128V453.144H160.016V451.512ZM164.456 452.808H166.472V457.8H164.456V452.808ZM160.016 444.216H171.008V445.848H162.008V452.088H160.016V444.216ZM173.984 442.152H175.976V463.896H173.984V442.152ZM158.696 459.192L158.408 457.536C162.656 457.512 167.984 457.464 172.568 456.912L172.736 458.4C167.984 459.12 162.8 459.216 158.696 459.192ZM182.79 448.68H197.526V450.312H182.79V448.68ZM180.126 453.216H199.806V454.848H180.126V453.216ZM182.79 442.968H184.758V449.496H182.79V442.968ZM182.646 461.712H197.646V463.344H182.646V461.712ZM182.646 457.008H184.614V462.144H182.646V457.008ZM223.892 442.176H225.884V463.872H223.892V442.176ZM217.532 444.504H219.5C219.5 450.792 216.668 456.288 209.42 459.84L208.364 458.232C214.628 455.208 217.532 450.6 217.532 444.84V444.504ZM209.348 444.504H218.396V446.136H209.348V444.504ZM232.602 448.2H247.314V449.832H232.602V448.2ZM232.602 442.608H234.57V448.92H232.602V442.608ZM229.938 452.352H249.546V453.96H229.938V452.352ZM239.706 455.904C244.338 455.904 247.146 457.32 247.146 459.864C247.146 462.36 244.338 463.8 239.706 463.8C235.074 463.8 232.266 462.36 232.266 459.864C232.266 457.32 235.074 455.904 239.706 455.904ZM239.706 457.464C236.322 457.464 234.282 458.328 234.282 459.864C234.282 461.352 236.322 462.216 239.706 462.216C243.114 462.216 245.13 461.352 245.13 459.864C245.13 458.328 243.114 457.464 239.706 457.464ZM261.568 442.536C266.344 442.536 269.2 443.88 269.2 446.304C269.2 448.728 266.344 450.072 261.568 450.072C256.768 450.072 253.936 448.728 253.936 446.304C253.936 443.88 256.768 442.536 261.568 442.536ZM261.568 444.048C258.016 444.048 255.976 444.864 255.976 446.304C255.976 447.744 258.016 448.56 261.568 448.56C265.096 448.56 267.136 447.744 267.136 446.304C267.136 444.864 265.096 444.048 261.568 444.048ZM251.752 451.512H271.36V453.12H251.752V451.512ZM254.128 454.968H268.864V459.864H256.144V462.504H254.176V458.424H266.896V456.504H254.128V454.968ZM254.176 462.072H269.512V463.632H254.176V462.072ZM296.214 442.176H298.134V463.872H296.214V442.176ZM288.318 449.952H292.47V451.608H288.318V449.952ZM291.87 442.68H293.742V462.768H291.87V442.68ZM284.142 445.536H285.678V448.296C285.678 453.048 283.854 457.536 280.662 459.552L279.438 458.064C282.462 456.24 284.142 452.28 284.142 448.296V445.536ZM284.55 445.536H286.086V448.296C286.086 452.064 287.718 455.832 290.694 457.56L289.47 459.024C286.302 457.104 284.55 452.832 284.55 448.296V445.536ZM280.038 444.696H289.95V446.352H280.038V444.696ZM311.284 455.856C315.892 455.856 318.844 457.368 318.844 459.864C318.844 462.336 315.892 463.824 311.284 463.824C306.652 463.824 303.724 462.336 303.724 459.864C303.724 457.368 306.652 455.856 311.284 455.856ZM311.284 457.416C307.876 457.416 305.692 458.352 305.692 459.864C305.692 461.352 307.876 462.288 311.284 462.288C314.692 462.288 316.852 461.352 316.852 459.864C316.852 458.352 314.692 457.416 311.284 457.416ZM303.892 443.256H317.86V444.888H303.892V443.256ZM301.564 452.28H321.148V453.888H301.564V452.28ZM309.604 448.104H311.572V452.736H309.604V448.104ZM316.708 443.256H318.652V445.104C318.652 446.856 318.652 448.608 318.076 450.864L316.108 450.624C316.708 448.392 316.708 446.808 316.708 445.104V443.256ZM338.234 442.176H340.226V454.776H338.234V442.176ZM339.362 447.696H343.442V449.376H339.362V447.696ZM326.594 455.736H328.538V458.04H338.258V455.736H340.226V463.584H326.594V455.736ZM328.538 459.576V461.976H338.258V459.576H328.538ZM323.45 444.384H336.266V446.016H323.45V444.384ZM329.858 447C332.954 447 335.042 448.512 335.042 450.816C335.042 453.12 332.954 454.632 329.858 454.632C326.738 454.632 324.65 453.12 324.65 450.816C324.65 448.512 326.738 447 329.858 447ZM329.858 448.512C327.866 448.512 326.546 449.424 326.546 450.816C326.546 452.208 327.866 453.12 329.858 453.12C331.802 453.12 333.146 452.208 333.146 450.816C333.146 449.424 331.802 448.512 329.858 448.512ZM328.85 441.96H330.842V445.272H328.85V441.96ZM361.008 442.176H363V463.872H361.008V442.176ZM346.608 444.288H348.576V457.728H346.608V444.288ZM346.608 456.552H348.384C351.672 456.552 355.104 456.312 358.776 455.544L359.016 457.248C355.248 458.016 351.816 458.28 348.384 458.28H346.608V456.552ZM381.743 442.152H383.759V463.896H381.743V442.152ZM383.279 450.72H387.311V452.4H383.279V450.72ZM367.991 456.816H369.695C373.703 456.816 376.511 456.672 379.751 456.072L379.967 457.752C376.631 458.376 373.775 458.496 369.695 458.496H367.991V456.816ZM367.991 444.264H378.071V445.896H369.959V457.56H367.991V444.264ZM391.109 462.162C390.643 462.162 390.242 461.997 389.907 461.668C389.572 461.332 389.404 460.929 389.404 460.457C389.404 459.991 389.572 459.594 389.907 459.264C390.242 458.929 390.643 458.761 391.109 458.761C391.575 458.761 391.975 458.929 392.31 459.264C392.646 459.594 392.813 459.991 392.813 460.457C392.813 460.77 392.734 461.057 392.575 461.318C392.421 461.574 392.217 461.778 391.961 461.932C391.705 462.085 391.421 462.162 391.109 462.162Z" fill="#213547"/>
<path d="M225.095 329.312H217.629C217.492 328.347 217.214 327.489 216.793 326.739C216.373 325.977 215.833 325.33 215.174 324.795C214.515 324.261 213.754 323.852 212.89 323.568C212.038 323.284 211.112 323.142 210.112 323.142C208.305 323.142 206.731 323.591 205.39 324.489C204.049 325.375 203.009 326.67 202.271 328.375C201.532 330.068 201.163 332.125 201.163 334.545C201.163 337.034 201.532 339.125 202.271 340.818C203.021 342.511 204.066 343.79 205.407 344.653C206.748 345.517 208.299 345.949 210.061 345.949C211.049 345.949 211.964 345.818 212.805 345.557C213.657 345.295 214.413 344.915 215.072 344.415C215.731 343.903 216.276 343.284 216.708 342.557C217.151 341.83 217.458 341 217.629 340.068L225.095 340.102C224.901 341.705 224.418 343.25 223.646 344.739C222.884 346.216 221.856 347.54 220.561 348.71C219.276 349.869 217.742 350.79 215.958 351.472C214.186 352.142 212.18 352.477 209.941 352.477C206.828 352.477 204.043 351.773 201.589 350.364C199.146 348.955 197.214 346.915 195.793 344.244C194.384 341.574 193.68 338.341 193.68 334.545C193.68 330.739 194.396 327.5 195.828 324.83C197.259 322.159 199.203 320.125 201.657 318.727C204.112 317.318 206.873 316.614 209.941 316.614C211.964 316.614 213.839 316.898 215.566 317.466C217.305 318.034 218.845 318.864 220.186 319.955C221.526 321.034 222.617 322.358 223.458 323.926C224.311 325.494 224.856 327.29 225.095 329.312ZM229.987 352V317.091H243.964C246.533 317.091 248.675 317.472 250.391 318.233C252.107 318.994 253.396 320.051 254.26 321.403C255.124 322.744 255.555 324.29 255.555 326.04C255.555 327.403 255.283 328.602 254.737 329.636C254.192 330.659 253.442 331.5 252.487 332.159C251.544 332.807 250.464 333.267 249.249 333.54V333.881C250.578 333.937 251.822 334.312 252.982 335.006C254.152 335.699 255.101 336.67 255.828 337.92C256.555 339.159 256.919 340.636 256.919 342.352C256.919 344.205 256.459 345.858 255.538 347.312C254.629 348.756 253.283 349.898 251.499 350.739C249.714 351.58 247.516 352 244.902 352H229.987ZM237.368 345.966H243.385C245.442 345.966 246.942 345.574 247.885 344.79C248.828 343.994 249.3 342.937 249.3 341.619C249.3 340.653 249.067 339.801 248.601 339.062C248.135 338.324 247.47 337.744 246.607 337.324C245.754 336.903 244.737 336.693 243.555 336.693H237.368V345.966ZM237.368 331.699H242.839C243.851 331.699 244.749 331.523 245.533 331.17C246.328 330.807 246.953 330.295 247.408 329.636C247.874 328.977 248.107 328.188 248.107 327.267C248.107 326.006 247.658 324.989 246.76 324.216C245.874 323.443 244.612 323.057 242.976 323.057H237.368V331.699ZM280.259 327.131C280.123 325.756 279.537 324.687 278.503 323.926C277.469 323.165 276.066 322.784 274.293 322.784C273.089 322.784 272.072 322.955 271.242 323.295C270.412 323.625 269.776 324.085 269.333 324.676C268.901 325.267 268.685 325.938 268.685 326.688C268.662 327.312 268.793 327.858 269.077 328.324C269.373 328.79 269.776 329.193 270.287 329.534C270.799 329.864 271.39 330.153 272.06 330.403C272.731 330.642 273.447 330.847 274.208 331.017L277.344 331.767C278.867 332.108 280.265 332.562 281.537 333.131C282.81 333.699 283.912 334.398 284.844 335.227C285.776 336.057 286.498 337.034 287.009 338.159C287.532 339.284 287.799 340.574 287.81 342.028C287.799 344.165 287.253 346.017 286.174 347.585C285.106 349.142 283.56 350.352 281.537 351.216C279.526 352.068 277.1 352.494 274.259 352.494C271.441 352.494 268.986 352.062 266.895 351.199C264.816 350.335 263.191 349.057 262.02 347.364C260.861 345.659 260.253 343.551 260.197 341.04H267.339C267.418 342.21 267.753 343.187 268.344 343.972C268.947 344.744 269.748 345.33 270.748 345.727C271.759 346.114 272.901 346.307 274.174 346.307C275.424 346.307 276.509 346.125 277.43 345.761C278.361 345.398 279.083 344.892 279.594 344.244C280.106 343.597 280.361 342.852 280.361 342.011C280.361 341.227 280.128 340.568 279.662 340.034C279.208 339.5 278.537 339.045 277.651 338.67C276.776 338.295 275.702 337.955 274.43 337.648L270.628 336.693C267.685 335.977 265.361 334.858 263.657 333.335C261.952 331.812 261.106 329.761 261.117 327.182C261.106 325.068 261.668 323.222 262.805 321.642C263.952 320.062 265.526 318.83 267.526 317.943C269.526 317.057 271.799 316.614 274.344 316.614C276.935 316.614 279.197 317.057 281.128 317.943C283.072 318.83 284.583 320.062 285.662 321.642C286.742 323.222 287.299 325.051 287.333 327.131H280.259Z" fill="#31AAF6"/>
<path d="M198.202 169H272.312L315 230.548M198.202 169L236.739 230.548M198.202 169L165 230.548L202.352 295M315 230.548H236.739M315 230.548L277.648 295H202.352M236.739 230.548L202.352 295" stroke="#31AAF6" stroke-width="8" stroke-linejoin="round"/>
<defs>
<filter id="filter0_b_66_157" x="-26" y="909" width="532" height="192" filterUnits="userSpaceOnUse" color-interpolation-filters="sRGB">
<feFlood flood-opacity="0" result="BackgroundImageFix"/>
<feGaussianBlur in="BackgroundImageFix" stdDeviation="25"/>
<feComposite in2="SourceAlpha" operator="in" result="effect1_backgroundBlur_66_157"/>
<feBlend mode="normal" in="SourceGraphic" in2="effect1_backgroundBlur_66_157" result="shape"/>
</filter>
<linearGradient id="paint0_linear_66_157" x1="86" y1="975" x2="86" y2="1035" gradientUnits="userSpaceOnUse">
<stop offset="0.5" stop-color="#57F371"/>
<stop offset="1" stop-color="#58BA68"/>
</linearGradient>
<linearGradient id="paint1_linear_66_157" x1="188.667" y1="975" x2="188.667" y2="1035" gradientUnits="userSpaceOnUse">
<stop stop-color="#F5DE19"/>
<stop offset="1" stop-color="#F5DE19"/>
</linearGradient>
<linearGradient id="paint2_linear_66_157" x1="291.333" y1="975" x2="291.333" y2="1035" gradientUnits="userSpaceOnUse">
<stop stop-color="#1C74F2"/>
<stop offset="1" stop-color="#38BDF8"/>
</linearGradient>
<linearGradient id="paint3_linear_66_157" x1="394" y1="975" x2="394" y2="1035" gradientUnits="userSpaceOnUse">
<stop stop-color="#FB576F"/>
<stop offset="1" stop-color="#E9213E"/>
</linearGradient>
<clipPath id="clip0_66_157">
<rect x="261.333" y="975" width="60" height="60" rx="16" fill="white"/>
</clipPath>
</defs>
</svg>
