<svg width="480" height="1067" viewBox="0 0 480 1067" fill="none" xmlns="http://www.w3.org/2000/svg">
<rect width="480" height="1067" fill="white"/>
<path d="M0 0H480V56H0V0Z" fill="white"/>
<path d="M480 55.5H0V56.5H480V55.5Z" fill="#DDDDDD"/>
<rect opacity="0.35" x="431.007" y="22.5606" width="27.16" height="13.4242" rx="2.16667" stroke="black"/>
<path opacity="0.4" d="M459.947 26.7273V31.8182C460.977 31.387 461.646 30.384 461.646 29.2727C461.646 28.1615 460.977 27.1584 459.947 26.7273Z" fill="black"/>
<rect x="433.067" y="24.606" width="23.04" height="9.33333" rx="1.33333" fill="black"/>
<path fill-rule="evenodd" clip-rule="evenodd" d="M414.294 24.9647C417.141 24.9649 419.88 26.0519 421.944 28.0012C422.099 28.1517 422.348 28.1498 422.501 27.997L423.987 26.5074C424.064 26.4299 424.107 26.3249 424.107 26.2156C424.106 26.1064 424.062 26.0019 423.983 25.9253C418.566 20.7679 410.021 20.7679 404.604 25.9253C404.525 26.0018 404.481 26.1063 404.48 26.2156C404.479 26.3248 404.522 26.4299 404.6 26.5074L406.086 27.997C406.239 28.15 406.487 28.1519 406.643 28.0012C408.707 26.0518 411.446 24.9647 414.294 24.9647ZM414.294 29.8108C415.858 29.8107 417.367 30.3884 418.527 31.4318C418.684 31.5798 418.931 31.5766 419.084 31.4245L420.568 29.935C420.646 29.8569 420.689 29.7509 420.688 29.6408C420.687 29.5306 420.641 29.4255 420.562 29.349C417.03 26.0852 411.561 26.0852 408.029 29.349C407.949 29.4255 407.904 29.5307 407.903 29.6409C407.902 29.751 407.945 29.857 408.023 29.935L409.507 31.4245C409.66 31.5766 409.907 31.5798 410.064 31.4318C411.223 30.3891 412.73 29.8114 414.294 29.8108ZM417.266 33.0713C417.269 33.1817 417.225 33.2882 417.145 33.3656L414.579 35.939C414.503 36.0147 414.401 36.0572 414.294 36.0572C414.187 36.0572 414.084 36.0147 414.009 35.939L411.442 33.3656C411.362 33.2881 411.319 33.1816 411.321 33.0712C411.324 32.9607 411.372 32.8561 411.454 32.7821C413.093 31.4047 415.494 31.4047 417.133 32.7821C417.216 32.8562 417.264 32.9608 417.266 33.0713Z" fill="black"/>
<path fill-rule="evenodd" clip-rule="evenodd" d="M396.8 22.4849H395.52C394.813 22.4849 394.24 23.0547 394.24 23.7576V34.7879C394.24 35.4908 394.813 36.0606 395.52 36.0606H396.8C397.507 36.0606 398.08 35.4908 398.08 34.7879V23.7576C398.08 23.0547 397.507 22.4849 396.8 22.4849ZM389.547 25.4546H390.827C391.534 25.4546 392.107 26.0244 392.107 26.7273V34.7879C392.107 35.4908 391.534 36.0606 390.827 36.0606H389.547C388.84 36.0606 388.267 35.4908 388.267 34.7879V26.7273C388.267 26.0244 388.84 25.4546 389.547 25.4546ZM384.853 28.4243H383.573C382.866 28.4243 382.293 28.9941 382.293 29.697V34.7879C382.293 35.4908 382.866 36.0606 383.573 36.0606H384.853C385.56 36.0606 386.133 35.4908 386.133 34.7879V29.697C386.133 28.9941 385.56 28.4243 384.853 28.4243ZM378.88 30.9697H377.6C376.893 30.9697 376.32 31.5395 376.32 32.2424V34.7879C376.32 35.4908 376.893 36.0606 377.6 36.0606H378.88C379.587 36.0606 380.16 35.4908 380.16 34.7879V32.2424C380.16 31.5395 379.587 30.9697 378.88 30.9697Z" fill="black"/>
<path d="M42.9607 32.1654C45.6487 32.1654 47.2454 30.0634 47.2454 26.4965C47.2454 22.9955 45.5462 21.0766 43.0193 21.0766C40.7195 21.0766 39.0935 22.622 39.0935 24.7826C39.0935 26.8114 40.5584 28.2909 42.5725 28.2909C43.8103 28.2909 44.8137 27.7196 45.3118 26.7162H45.4363C45.4143 29.1991 44.5281 30.62 42.9827 30.62C42.0745 30.62 41.3494 30.122 41.1223 29.3163H39.24C39.5476 31.0375 41.0271 32.1654 42.9607 32.1654ZM43.0266 26.8334C41.7962 26.8334 40.9465 25.9691 40.9465 24.724C40.9465 23.5302 41.8401 22.6147 43.0339 22.6147C44.2278 22.6147 45.1214 23.5448 45.1214 24.7607C45.1214 25.9618 44.2498 26.8334 43.0266 26.8334ZM50.3965 26.6796C51.0923 26.6796 51.5684 26.1889 51.5684 25.5443C51.5684 24.8925 51.0923 24.4091 50.3965 24.4091C49.708 24.4091 49.2246 24.8925 49.2246 25.5443C49.2246 26.1889 49.708 26.6796 50.3965 26.6796ZM50.3965 32.0556C51.0923 32.0556 51.5684 31.5648 51.5684 30.913C51.5684 30.2685 51.0923 29.7777 50.3965 29.7777C49.708 29.7777 49.2246 30.2685 49.2246 30.913C49.2246 31.5648 49.708 32.0556 50.3965 32.0556ZM58.4841 31.9091H60.2932V29.8803H61.7214V28.3202H60.2932V21.3402H57.6272C56.1916 23.5229 54.6902 25.9545 53.3206 28.3349V29.8803H58.4841V31.9091ZM55.071 28.2543C56.1038 26.4599 57.3269 24.5043 58.4109 22.849H58.5134V28.3642H55.071V28.2543ZM65.81 31.9091H67.6997V21.3402H65.8174L63.0561 23.2812V25.0609L65.6855 23.2006H65.81V31.9091Z" fill="black"/>
<path fill-rule="evenodd" clip-rule="evenodd" d="M230 84.3107C230 80.8254 232.825 78 236.311 78C237.688 78 238.962 78.4413 240 79.1902C241.038 78.4413 242.312 78 243.689 78C247.175 78 250 80.8254 250 84.3107V98H244.757V84.5709C244.757 84.0347 244.323 83.6 243.786 83.6C243.25 83.6 242.816 84.0347 242.816 84.5709V98H242.621H237.379L237.379 84.567C237.377 84.0326 236.943 83.6 236.408 83.6C235.872 83.6 235.437 84.0347 235.437 84.5709V98H230V84.3107Z" fill="#00B0F0"/>
<path fill-rule="evenodd" clip-rule="evenodd" d="M261.8 78H272C272 81.0928 269.493 83.6 266.4 83.6H261.8H258.6C258.048 83.6 257.6 84.0477 257.6 84.6V98H252V83.6C252 80.5072 254.507 78 257.6 78H261.8ZM260 88.6935V94.6757C260 96.1835 261.605 97.149 262.937 96.4427L268.634 93.4217C270.058 92.6666 270.05 90.6234 268.62 89.8801L262.922 86.9189C261.591 86.2269 260 87.193 260 88.6935Z" fill="#00B0F0"/>
<path fill-rule="evenodd" clip-rule="evenodd" d="M218 78C212.477 78 208 82.4772 208 88V89.1111C208 94.0203 211.98 98 216.889 98H217.6C220.373 98 222.222 96.1333 222.8 95.2V98H228V88C228 82.4772 223.523 78 218 78ZM218 92.4C220.43 92.4 222.4 90.4301 222.4 88C222.4 85.5699 220.43 83.6 218 83.6C215.57 83.6 213.6 85.5699 213.6 88C213.6 90.4301 215.57 92.4 218 92.4Z" fill="#00B0F0"/>
<path d="M444.088 100C440.729 100 437.875 98.8265 435.525 96.4794C433.175 94.1323 432 91.2817 432 87.9276C432 84.8702 432.997 82.2193 434.992 79.9748C436.986 77.7304 439.456 76.4054 442.401 76C442.483 76 442.563 76.003 442.642 76.0091C442.72 76.0151 442.797 76.0236 442.873 76.0347C442.363 76.745 441.96 77.5347 441.663 78.4039C441.365 79.2731 441.217 80.1841 441.217 81.1368C441.217 83.8199 442.157 86.1001 444.036 87.9774C445.916 89.8546 448.199 90.7938 450.887 90.7948C451.845 90.7948 452.758 90.6464 453.626 90.3496C454.495 90.0528 455.274 89.6499 455.965 89.1408C455.977 89.2163 455.986 89.2933 455.991 89.3717C455.996 89.4502 455.999 89.5302 456 89.6117C455.613 92.5523 454.296 95.0186 452.049 97.0106C449.802 99.0025 447.149 99.999 444.088 100Z" fill="black"/>
<path d="M69.0682 230H58.5227L74.5909 183.455H87.2727L103.318 230H92.7727L81.1136 194.091H80.75L69.0682 230ZM68.4091 211.705H93.3182V219.386H68.4091V211.705ZM61.0455 259.455H73.1818L86 290.727H86.5455L99.3636 259.455H111.5V306H101.955V275.705H101.568L89.5227 305.773H83.0227L70.9773 275.591H70.5909V306H61.0455V259.455ZM61.0455 383V336.455H91.8636V344.568H70.8864V355.659H89.8182V363.773H70.8864V383H61.0455Z" fill="#00B0F0"/>
<path d="M130.885 215.136V195.091H140.567V230H131.271V223.659H130.908C130.12 225.705 128.809 227.348 126.976 228.591C125.158 229.833 122.938 230.455 120.317 230.455C117.983 230.455 115.93 229.924 114.158 228.864C112.385 227.803 110.999 226.295 109.999 224.341C109.014 222.386 108.514 220.045 108.499 217.318V195.091H118.18V215.591C118.196 217.652 118.749 219.28 119.84 220.477C120.93 221.674 122.393 222.273 124.226 222.273C125.393 222.273 126.483 222.008 127.499 221.477C128.514 220.932 129.332 220.129 129.953 219.068C130.59 218.008 130.9 216.697 130.885 215.136ZM166.639 195.091V202.364H145.617V195.091H166.639ZM150.389 186.727H160.071V219.273C160.071 220.167 160.207 220.864 160.48 221.364C160.753 221.848 161.132 222.189 161.617 222.386C162.117 222.583 162.692 222.682 163.344 222.682C163.798 222.682 164.253 222.644 164.707 222.568C165.162 222.477 165.511 222.409 165.753 222.364L167.276 229.568C166.791 229.72 166.109 229.894 165.23 230.091C164.351 230.303 163.283 230.432 162.026 230.477C159.692 230.568 157.647 230.258 155.889 229.545C154.147 228.833 152.791 227.727 151.821 226.227C150.851 224.727 150.374 222.833 150.389 220.545V186.727ZM188.104 230.682C184.574 230.682 181.521 229.932 178.945 228.432C176.384 226.917 174.407 224.811 173.013 222.114C171.619 219.402 170.922 216.258 170.922 212.682C170.922 209.076 171.619 205.924 173.013 203.227C174.407 200.515 176.384 198.409 178.945 196.909C181.521 195.394 184.574 194.636 188.104 194.636C191.634 194.636 194.68 195.394 197.24 196.909C199.816 198.409 201.801 200.515 203.195 203.227C204.589 205.924 205.286 209.076 205.286 212.682C205.286 216.258 204.589 219.402 203.195 222.114C201.801 224.811 199.816 226.917 197.24 228.432C194.68 229.932 191.634 230.682 188.104 230.682ZM188.149 223.182C189.755 223.182 191.096 222.727 192.172 221.818C193.248 220.894 194.058 219.636 194.604 218.045C195.164 216.455 195.445 214.644 195.445 212.614C195.445 210.583 195.164 208.773 194.604 207.182C194.058 205.591 193.248 204.333 192.172 203.409C191.096 202.485 189.755 202.023 188.149 202.023C186.528 202.023 185.164 202.485 184.058 203.409C182.967 204.333 182.142 205.591 181.581 207.182C181.036 208.773 180.763 210.583 180.763 212.614C180.763 214.644 181.036 216.455 181.581 218.045C182.142 219.636 182.967 220.894 184.058 221.818C185.164 222.727 186.528 223.182 188.149 223.182ZM211.341 230V195.091H220.568V201.25H220.977C221.705 199.205 222.917 197.591 224.614 196.409C226.311 195.227 228.341 194.636 230.705 194.636C233.099 194.636 235.137 195.235 236.818 196.432C238.5 197.614 239.621 199.22 240.182 201.25H240.546C241.258 199.25 242.546 197.652 244.409 196.455C246.288 195.242 248.508 194.636 251.068 194.636C254.326 194.636 256.97 195.674 259 197.75C261.046 199.811 262.068 202.735 262.068 206.523V230H252.409V208.432C252.409 206.492 251.894 205.038 250.864 204.068C249.834 203.098 248.546 202.614 247 202.614C245.243 202.614 243.871 203.174 242.887 204.295C241.902 205.402 241.409 206.864 241.409 208.682V230H232.023V208.227C232.023 206.515 231.531 205.152 230.546 204.136C229.576 203.121 228.296 202.614 226.705 202.614C225.629 202.614 224.659 202.886 223.796 203.432C222.947 203.962 222.273 204.712 221.773 205.682C221.273 206.636 221.023 207.758 221.023 209.045V230H211.341ZM279.431 230.659C277.203 230.659 275.219 230.273 273.476 229.5C271.734 228.712 270.355 227.553 269.34 226.023C268.34 224.477 267.84 222.553 267.84 220.25C267.84 218.311 268.196 216.682 268.908 215.364C269.62 214.045 270.59 212.985 271.817 212.182C273.044 211.379 274.438 210.773 275.999 210.364C277.575 209.955 279.226 209.667 280.953 209.5C282.984 209.288 284.62 209.091 285.863 208.909C287.105 208.712 288.006 208.424 288.567 208.045C289.128 207.667 289.408 207.106 289.408 206.364V206.227C289.408 204.788 288.953 203.674 288.044 202.886C287.15 202.098 285.878 201.705 284.226 201.705C282.484 201.705 281.097 202.091 280.067 202.864C279.037 203.621 278.355 204.576 278.022 205.727L269.067 205C269.522 202.879 270.416 201.045 271.749 199.5C273.082 197.939 274.802 196.742 276.908 195.909C279.029 195.061 281.484 194.636 284.272 194.636C286.211 194.636 288.067 194.864 289.84 195.318C291.628 195.773 293.211 196.477 294.59 197.432C295.984 198.386 297.082 199.614 297.885 201.114C298.688 202.598 299.09 204.379 299.09 206.455V230H289.908V225.159H289.635C289.075 226.25 288.325 227.212 287.385 228.045C286.446 228.864 285.317 229.508 283.999 229.977C282.681 230.432 281.158 230.659 279.431 230.659ZM282.203 223.977C283.628 223.977 284.885 223.697 285.976 223.136C287.067 222.561 287.923 221.788 288.544 220.818C289.166 219.848 289.476 218.75 289.476 217.523V213.818C289.173 214.015 288.756 214.197 288.226 214.364C287.711 214.515 287.128 214.659 286.476 214.795C285.825 214.917 285.173 215.03 284.522 215.136C283.87 215.227 283.279 215.311 282.749 215.386C281.613 215.553 280.62 215.818 279.772 216.182C278.923 216.545 278.264 217.038 277.794 217.659C277.325 218.265 277.09 219.023 277.09 219.932C277.09 221.25 277.567 222.258 278.522 222.955C279.491 223.636 280.719 223.977 282.203 223.977ZM324.929 195.091V202.364H303.907V195.091H324.929ZM308.679 186.727H318.361V219.273C318.361 220.167 318.497 220.864 318.77 221.364C319.043 221.848 319.422 222.189 319.907 222.386C320.407 222.583 320.982 222.682 321.634 222.682C322.088 222.682 322.543 222.644 322.997 222.568C323.452 222.477 323.801 222.409 324.043 222.364L325.566 229.568C325.081 229.72 324.399 229.894 323.52 230.091C322.641 230.303 321.573 230.432 320.316 230.477C317.982 230.568 315.937 230.258 314.179 229.545C312.437 228.833 311.081 227.727 310.111 226.227C309.141 224.727 308.664 222.833 308.679 220.545V186.727ZM330.996 230V195.091H340.678V230H330.996ZM335.86 190.591C334.42 190.591 333.186 190.114 332.155 189.159C331.14 188.189 330.633 187.03 330.633 185.682C330.633 184.348 331.14 183.205 332.155 182.25C333.186 181.28 334.42 180.795 335.86 180.795C337.299 180.795 338.526 181.28 339.542 182.25C340.572 183.205 341.087 184.348 341.087 185.682C341.087 187.03 340.572 188.189 339.542 189.159C338.526 190.114 337.299 190.591 335.86 190.591ZM363.966 230.682C360.391 230.682 357.315 229.924 354.739 228.409C352.178 226.879 350.209 224.758 348.83 222.045C347.466 219.333 346.785 216.212 346.785 212.682C346.785 209.106 347.474 205.97 348.853 203.273C350.247 200.561 352.224 198.447 354.785 196.932C357.345 195.402 360.391 194.636 363.921 194.636C366.966 194.636 369.633 195.189 371.921 196.295C374.209 197.402 376.019 198.955 377.353 200.955C378.686 202.955 379.421 205.303 379.557 208H370.421C370.163 206.258 369.482 204.856 368.375 203.795C367.285 202.72 365.853 202.182 364.08 202.182C362.58 202.182 361.269 202.591 360.148 203.409C359.042 204.212 358.178 205.386 357.557 206.932C356.936 208.477 356.625 210.348 356.625 212.545C356.625 214.773 356.928 216.667 357.535 218.227C358.156 219.788 359.027 220.977 360.148 221.795C361.269 222.614 362.58 223.023 364.08 223.023C365.186 223.023 366.178 222.795 367.057 222.341C367.951 221.886 368.686 221.227 369.262 220.364C369.853 219.485 370.239 218.432 370.421 217.205H379.557C379.406 219.871 378.678 222.22 377.375 224.25C376.088 226.265 374.307 227.841 372.035 228.977C369.762 230.114 367.072 230.682 363.966 230.682ZM129.141 306.659C126.913 306.659 124.929 306.273 123.186 305.5C121.444 304.712 120.065 303.553 119.05 302.023C118.05 300.477 117.55 298.553 117.55 296.25C117.55 294.311 117.906 292.682 118.618 291.364C119.33 290.045 120.3 288.985 121.527 288.182C122.754 287.379 124.148 286.773 125.709 286.364C127.285 285.955 128.936 285.667 130.663 285.5C132.694 285.288 134.33 285.091 135.572 284.909C136.815 284.712 137.716 284.424 138.277 284.045C138.838 283.667 139.118 283.106 139.118 282.364V282.227C139.118 280.788 138.663 279.674 137.754 278.886C136.86 278.098 135.588 277.705 133.936 277.705C132.194 277.705 130.807 278.091 129.777 278.864C128.747 279.621 128.065 280.576 127.732 281.727L118.777 281C119.232 278.879 120.126 277.045 121.459 275.5C122.792 273.939 124.512 272.742 126.618 271.909C128.739 271.061 131.194 270.636 133.982 270.636C135.921 270.636 137.777 270.864 139.55 271.318C141.338 271.773 142.921 272.477 144.3 273.432C145.694 274.386 146.792 275.614 147.595 277.114C148.398 278.598 148.8 280.379 148.8 282.455V306H139.618V301.159H139.345C138.785 302.25 138.035 303.212 137.095 304.045C136.156 304.864 135.027 305.508 133.709 305.977C132.391 306.432 130.868 306.659 129.141 306.659ZM131.913 299.977C133.338 299.977 134.595 299.697 135.686 299.136C136.777 298.561 137.633 297.788 138.254 296.818C138.876 295.848 139.186 294.75 139.186 293.523V289.818C138.883 290.015 138.466 290.197 137.936 290.364C137.421 290.515 136.838 290.659 136.186 290.795C135.535 290.917 134.883 291.03 134.232 291.136C133.58 291.227 132.989 291.311 132.459 291.386C131.322 291.553 130.33 291.818 129.482 292.182C128.633 292.545 127.974 293.038 127.504 293.659C127.035 294.265 126.8 295.023 126.8 295.932C126.8 297.25 127.277 298.258 128.232 298.955C129.201 299.636 130.429 299.977 131.913 299.977ZM164.844 295.955L164.867 284.341H166.276L177.457 271.091H188.571L173.548 288.636H171.253L164.844 295.955ZM156.071 306V259.455H165.753V306H156.071ZM177.889 306L167.617 290.795L174.071 283.955L189.23 306H177.889ZM207.553 306.682C203.962 306.682 200.871 305.955 198.28 304.5C195.704 303.03 193.719 300.955 192.325 298.273C190.932 295.576 190.235 292.386 190.235 288.705C190.235 285.114 190.932 281.962 192.325 279.25C193.719 276.538 195.682 274.424 198.212 272.909C200.757 271.394 203.742 270.636 207.166 270.636C209.469 270.636 211.613 271.008 213.598 271.75C215.598 272.477 217.341 273.576 218.825 275.045C220.325 276.515 221.492 278.364 222.325 280.591C223.159 282.803 223.575 285.394 223.575 288.364V291.023H194.098V285.023H214.462C214.462 283.629 214.159 282.394 213.553 281.318C212.947 280.242 212.106 279.402 211.03 278.795C209.969 278.174 208.735 277.864 207.325 277.864C205.856 277.864 204.553 278.205 203.416 278.886C202.295 279.553 201.416 280.455 200.78 281.591C200.144 282.712 199.818 283.962 199.803 285.341V291.045C199.803 292.773 200.121 294.265 200.757 295.523C201.409 296.78 202.325 297.75 203.507 298.432C204.689 299.114 206.091 299.455 207.712 299.455C208.788 299.455 209.772 299.303 210.666 299C211.56 298.697 212.325 298.242 212.962 297.636C213.598 297.03 214.083 296.288 214.416 295.409L223.371 296C222.916 298.152 221.985 300.03 220.575 301.636C219.182 303.227 217.378 304.47 215.166 305.364C212.969 306.242 210.432 306.682 207.553 306.682ZM229.654 306V271.091H239.04V277.182H239.404C240.04 275.015 241.108 273.379 242.608 272.273C244.108 271.152 245.835 270.591 247.79 270.591C248.275 270.591 248.798 270.621 249.358 270.682C249.919 270.742 250.411 270.826 250.835 270.932V279.523C250.381 279.386 249.752 279.265 248.949 279.159C248.146 279.053 247.411 279 246.745 279C245.32 279 244.048 279.311 242.926 279.932C241.82 280.538 240.942 281.386 240.29 282.477C239.654 283.568 239.335 284.826 239.335 286.25V306H229.654ZM97.4986 383V348.091H106.885V354.182H107.249C107.885 352.015 108.953 350.379 110.453 349.273C111.953 348.152 113.68 347.591 115.635 347.591C116.12 347.591 116.643 347.621 117.203 347.682C117.764 347.742 118.256 347.826 118.68 347.932V356.523C118.226 356.386 117.597 356.265 116.794 356.159C115.991 356.053 115.256 356 114.59 356C113.165 356 111.893 356.311 110.771 356.932C109.665 357.538 108.787 358.386 108.135 359.477C107.499 360.568 107.18 361.826 107.18 363.25V383H97.4986ZM137.594 383.682C134.064 383.682 131.011 382.932 128.435 381.432C125.874 379.917 123.897 377.811 122.503 375.114C121.109 372.402 120.412 369.258 120.412 365.682C120.412 362.076 121.109 358.924 122.503 356.227C123.897 353.515 125.874 351.409 128.435 349.909C131.011 348.394 134.064 347.636 137.594 347.636C141.124 347.636 144.17 348.394 146.73 349.909C149.306 351.409 151.291 353.515 152.685 356.227C154.079 358.924 154.776 362.076 154.776 365.682C154.776 369.258 154.079 372.402 152.685 375.114C151.291 377.811 149.306 379.917 146.73 381.432C144.17 382.932 141.124 383.682 137.594 383.682ZM137.639 376.182C139.245 376.182 140.586 375.727 141.662 374.818C142.738 373.894 143.548 372.636 144.094 371.045C144.654 369.455 144.935 367.644 144.935 365.614C144.935 363.583 144.654 361.773 144.094 360.182C143.548 358.591 142.738 357.333 141.662 356.409C140.586 355.485 139.245 355.023 137.639 355.023C136.018 355.023 134.654 355.485 133.548 356.409C132.458 357.333 131.632 358.591 131.071 360.182C130.526 361.773 130.253 363.583 130.253 365.614C130.253 367.644 130.526 369.455 131.071 371.045C131.632 372.636 132.458 373.894 133.548 374.818C134.654 375.727 136.018 376.182 137.639 376.182ZM160.831 383V348.091H170.058V354.25H170.467C171.195 352.205 172.407 350.591 174.104 349.409C175.801 348.227 177.831 347.636 180.195 347.636C182.589 347.636 184.627 348.235 186.308 349.432C187.99 350.614 189.111 352.22 189.672 354.25H190.036C190.748 352.25 192.036 350.652 193.899 349.455C195.778 348.242 197.998 347.636 200.558 347.636C203.816 347.636 206.46 348.674 208.49 350.75C210.536 352.811 211.558 355.735 211.558 359.523V383H201.899V361.432C201.899 359.492 201.384 358.038 200.354 357.068C199.324 356.098 198.036 355.614 196.49 355.614C194.733 355.614 193.361 356.174 192.377 357.295C191.392 358.402 190.899 359.864 190.899 361.682V383H181.513V361.227C181.513 359.515 181.021 358.152 180.036 357.136C179.066 356.121 177.786 355.614 176.195 355.614C175.119 355.614 174.149 355.886 173.286 356.432C172.437 356.962 171.763 357.712 171.263 358.682C170.763 359.636 170.513 360.758 170.513 362.045V383H160.831ZM242.13 336.455L253.38 371.818H253.811L265.084 336.455H275.993L259.948 383H247.266L231.198 336.455H242.13ZM336.996 352.75H327.042C326.86 351.462 326.489 350.318 325.928 349.318C325.367 348.303 324.648 347.439 323.769 346.727C322.89 346.015 321.875 345.47 320.723 345.091C319.587 344.712 318.352 344.523 317.019 344.523C314.61 344.523 312.511 345.121 310.723 346.318C308.936 347.5 307.549 349.227 306.564 351.5C305.579 353.758 305.087 356.5 305.087 359.727C305.087 363.045 305.579 365.833 306.564 368.091C307.564 370.348 308.958 372.053 310.746 373.205C312.534 374.356 314.602 374.932 316.951 374.932C318.269 374.932 319.489 374.758 320.61 374.409C321.746 374.061 322.754 373.553 323.633 372.886C324.511 372.205 325.239 371.379 325.814 370.409C326.405 369.439 326.814 368.333 327.042 367.091L336.996 367.136C336.739 369.273 336.095 371.333 335.064 373.318C334.049 375.288 332.678 377.053 330.951 378.614C329.239 380.159 327.193 381.386 324.814 382.295C322.451 383.189 319.776 383.636 316.792 383.636C312.64 383.636 308.928 382.697 305.655 380.818C302.398 378.939 299.822 376.22 297.928 372.659C296.049 369.098 295.11 364.788 295.11 359.727C295.11 354.652 296.064 350.333 297.973 346.773C299.883 343.212 302.473 340.5 305.746 338.636C309.019 336.758 312.701 335.818 316.792 335.818C319.489 335.818 321.989 336.197 324.292 336.955C326.61 337.712 328.663 338.818 330.451 340.273C332.239 341.712 333.693 343.477 334.814 345.568C335.951 347.659 336.678 350.053 336.996 352.75ZM343.813 383V336.455H362.449C365.874 336.455 368.73 336.962 371.017 337.977C373.305 338.992 375.025 340.402 376.177 342.205C377.328 343.992 377.904 346.053 377.904 348.386C377.904 350.205 377.54 351.803 376.813 353.182C376.086 354.545 375.086 355.667 373.813 356.545C372.555 357.409 371.116 358.023 369.495 358.386V358.841C371.267 358.917 372.927 359.417 374.472 360.341C376.033 361.265 377.298 362.561 378.267 364.227C379.237 365.879 379.722 367.848 379.722 370.136C379.722 372.606 379.108 374.811 377.881 376.75C376.669 378.674 374.874 380.197 372.495 381.318C370.116 382.439 367.184 383 363.699 383H343.813ZM353.654 374.955H361.677C364.419 374.955 366.419 374.432 367.677 373.386C368.934 372.326 369.563 370.917 369.563 369.159C369.563 367.871 369.252 366.735 368.631 365.75C368.01 364.765 367.124 363.992 365.972 363.432C364.836 362.871 363.48 362.591 361.904 362.591H353.654V374.955ZM353.654 355.932H360.949C362.298 355.932 363.495 355.697 364.54 355.227C365.601 354.742 366.434 354.061 367.04 353.182C367.661 352.303 367.972 351.25 367.972 350.023C367.972 348.341 367.374 346.985 366.177 345.955C364.995 344.924 363.313 344.409 361.131 344.409H353.654V355.932ZM411.135 349.841C410.954 348.008 410.173 346.583 408.795 345.568C407.416 344.553 405.545 344.045 403.181 344.045C401.575 344.045 400.219 344.273 399.113 344.727C398.007 345.167 397.158 345.78 396.567 346.568C395.992 347.356 395.704 348.25 395.704 349.25C395.673 350.083 395.848 350.811 396.226 351.432C396.62 352.053 397.158 352.591 397.84 353.045C398.522 353.485 399.31 353.871 400.204 354.205C401.098 354.523 402.052 354.795 403.067 355.023L407.249 356.023C409.279 356.477 411.143 357.083 412.84 357.841C414.537 358.598 416.007 359.53 417.249 360.636C418.492 361.742 419.454 363.045 420.135 364.545C420.832 366.045 421.188 367.765 421.204 369.705C421.188 372.553 420.461 375.023 419.022 377.114C417.598 379.189 415.537 380.803 412.84 381.955C410.158 383.091 406.923 383.659 403.135 383.659C399.378 383.659 396.105 383.083 393.317 381.932C390.545 380.78 388.378 379.076 386.817 376.818C385.272 374.545 384.461 371.735 384.385 368.386H393.908C394.014 369.947 394.461 371.25 395.249 372.295C396.052 373.326 397.12 374.106 398.454 374.636C399.802 375.152 401.325 375.409 403.022 375.409C404.688 375.409 406.135 375.167 407.363 374.682C408.605 374.197 409.567 373.523 410.249 372.659C410.931 371.795 411.272 370.803 411.272 369.682C411.272 368.636 410.961 367.758 410.34 367.045C409.734 366.333 408.84 365.727 407.658 365.227C406.492 364.727 405.06 364.273 403.363 363.864L398.295 362.591C394.37 361.636 391.272 360.144 388.999 358.114C386.726 356.083 385.598 353.348 385.613 349.909C385.598 347.091 386.348 344.629 387.863 342.523C389.393 340.417 391.492 338.773 394.158 337.591C396.825 336.409 399.855 335.818 403.249 335.818C406.704 335.818 409.719 336.409 412.295 337.591C414.885 338.773 416.901 340.417 418.34 342.523C419.779 344.629 420.522 347.068 420.567 349.841H411.135Z" fill="#213547"/>
<g filter="url(#filter0_b_66_39)">
<rect x="24" y="959" width="432" height="92" rx="32" fill="#BFBFBF" fill-opacity="0.4"/>
<rect x="24" y="959" width="432" height="92" rx="32" fill="#0D0D0D" style="mix-blend-mode:color-dodge"/>
<rect x="56" y="975" width="60" height="60" rx="16" fill="url(#paint0_linear_66_39)"/>
<path d="M83.5284 988.032C84.312 987.366 85.3069 987 86.3354 987C87.3638 987 88.3588 987.366 89.1424 988.032L102.144 999.083C102.622 999.489 103.007 999.995 103.271 1000.57C103.534 1001.14 103.671 1001.76 103.671 1002.38V1019.67C103.671 1020.55 103.32 1021.4 102.694 1022.02C102.069 1022.65 101.221 1023 100.337 1023H95.0031C94.1189 1023 93.271 1022.65 92.6458 1022.02C92.0206 1021.4 91.6693 1020.55 91.6693 1019.67V1011C91.6693 1010.29 91.39 1009.62 90.8924 1009.12C90.3949 1008.62 89.7196 1008.33 89.0144 1008.33H83.6551C82.95 1008.34 82.2751 1008.62 81.7778 1009.12C81.2806 1009.62 81.0014 1010.29 81.0014 1011V1019.67C81.0014 1020.1 80.9152 1020.54 80.7477 1020.94C80.5801 1021.35 80.3346 1021.71 80.025 1022.02C79.7154 1022.33 79.3479 1022.58 78.9434 1022.75C78.539 1022.91 78.1055 1023 77.6677 1023H72.3337C71.4496 1023 70.6016 1022.65 69.9764 1022.02C69.3512 1021.4 69 1020.55 69 1019.67V1002.38C69 1001.76 69.1366 1001.14 69.4002 1000.57C69.6639 999.995 70.0483 999.489 70.5268 999.083L83.5284 988.032Z" fill="white"/>
<rect x="158.667" y="975" width="60" height="60" rx="16" fill="url(#paint1_linear_66_39)"/>
<path d="M190.842 1012.49C189.601 1012.49 188.883 1013.67 188.883 1015.24C188.883 1016.83 189.63 1017.95 190.851 1017.95C192.092 1017.95 192.8 1016.77 192.8 1015.2C192.8 1013.75 192.102 1012.49 190.842 1012.49Z" fill="white"/>
<path d="M193.667 981H174.467C173.194 981 171.973 981.506 171.073 982.406C170.172 983.306 169.667 984.527 169.667 985.8V1024.2C169.667 1025.47 170.172 1026.69 171.073 1027.59C171.973 1028.49 173.194 1029 174.467 1029H203.267C204.54 1029 205.761 1028.49 206.661 1027.59C207.561 1026.69 208.067 1025.47 208.067 1024.2V995.4L193.667 981ZM179.319 1016.29C179.319 1018.6 178.213 1019.4 176.439 1019.4C176.017 1019.4 175.465 1019.33 175.103 1019.21L175.309 1017.73C175.559 1017.82 175.883 1017.88 176.247 1017.88C177.013 1017.88 177.495 1017.53 177.495 1016.27V1011.18H179.322L179.319 1016.29ZM182.821 1019.39C181.897 1019.39 180.983 1019.15 180.529 1018.9L180.901 1017.38C181.391 1017.63 182.151 1017.89 182.931 1017.89C183.771 1017.89 184.213 1017.54 184.213 1017.01C184.213 1016.51 183.831 1016.22 182.859 1015.87C181.511 1015.4 180.635 1014.66 180.635 1013.48C180.635 1012.1 181.789 1011.04 183.699 1011.04C184.611 1011.04 185.281 1011.23 185.766 1011.45L185.353 1012.92C185.029 1012.77 184.453 1012.54 183.661 1012.54C182.869 1012.54 182.483 1012.9 182.483 1013.32C182.483 1013.84 182.939 1014.07 183.987 1014.46C185.418 1014.99 186.09 1015.74 186.09 1016.88C186.092 1018.24 185.043 1019.39 182.821 1019.39ZM190.755 1019.4C188.353 1019.4 186.949 1017.59 186.949 1015.28C186.949 1012.85 188.499 1011.04 190.89 1011.04C193.374 1011.04 194.732 1012.9 194.732 1015.14C194.73 1017.79 193.122 1019.4 190.755 1019.4ZM202.628 1019.27H200.703L198.973 1016.14C198.455 1015.22 197.987 1014.26 197.569 1013.29L197.531 1013.3C197.581 1014.37 197.605 1015.51 197.605 1016.83V1019.27H195.923V1011.18H198.061L199.743 1014.14C200.223 1014.99 200.703 1016 201.068 1016.91H201.102C200.982 1015.85 200.946 1014.75 200.946 1013.54V1011.18H202.631L202.628 1019.27ZM193.667 997.8H191.267V985.8L203.267 997.8H193.667Z" fill="white"/>
<g clip-path="url(#clip0_66_39)">
<rect x="261.333" y="975" width="60" height="60" rx="16" fill="url(#paint2_linear_66_39)"/>
<path d="M310.199 997.263L301.33 983.242C301.094 982.865 300.766 982.555 300.378 982.339C299.989 982.124 299.552 982.011 299.108 982.01L282.516 981.922C282.042 981.919 281.576 982.044 281.167 982.283C280.758 982.522 280.42 982.866 280.189 983.28L272.521 997.115C272.292 997.53 272.179 997.999 272.193 998.472C272.207 998.946 272.348 999.407 272.602 999.807L281.469 1013.83C281.705 1014.21 282.032 1014.52 282.421 1014.73C282.81 1014.95 283.247 1015.06 283.691 1015.06L300.283 1015.15C300.757 1015.15 301.223 1015.03 301.632 1014.79C302.041 1014.55 302.379 1014.21 302.609 1013.79L310.277 999.96C310.507 999.545 310.621 999.075 310.608 998.601C310.594 998.126 310.453 997.664 310.199 997.263ZM299.096 984.651L307.19 997.458L292.04 997.381L283.946 984.574L299.096 984.651ZM281.716 985.985L289.778 998.733L282.899 1011.14L274.834 998.399L281.716 985.985ZM285.213 1012.43L292.089 1000.02L307.175 1000.1L300.297 1012.51L285.213 1012.43Z" fill="white"/>
<path d="M287.282 1021.33H285.416C285.381 1021.09 285.312 1020.87 285.207 1020.68C285.102 1020.49 284.967 1020.33 284.802 1020.2C284.637 1020.07 284.447 1019.96 284.231 1019.89C284.018 1019.82 283.786 1019.79 283.536 1019.79C283.085 1019.79 282.691 1019.9 282.356 1020.12C282.021 1020.34 281.761 1020.67 281.576 1021.09C281.391 1021.52 281.299 1022.03 281.299 1022.64C281.299 1023.26 281.391 1023.78 281.576 1024.2C281.764 1024.63 282.025 1024.95 282.36 1025.16C282.695 1025.38 283.083 1025.49 283.524 1025.49C283.771 1025.49 283.999 1025.45 284.21 1025.39C284.423 1025.32 284.612 1025.23 284.776 1025.1C284.941 1024.98 285.077 1024.82 285.185 1024.64C285.296 1024.46 285.373 1024.25 285.416 1024.02L287.282 1024.03C287.234 1024.43 287.113 1024.81 286.92 1025.18C286.729 1025.55 286.472 1025.88 286.149 1026.18C285.827 1026.47 285.444 1026.7 284.998 1026.87C284.555 1027.04 284.053 1027.12 283.494 1027.12C282.715 1027.12 282.019 1026.94 281.406 1026.59C280.795 1026.24 280.312 1025.73 279.957 1025.06C279.604 1024.39 279.428 1023.59 279.428 1022.64C279.428 1021.68 279.607 1020.88 279.965 1020.21C280.323 1019.54 280.809 1019.03 281.423 1018.68C282.036 1018.33 282.727 1018.15 283.494 1018.15C283.999 1018.15 284.468 1018.22 284.9 1018.37C285.335 1018.51 285.72 1018.72 286.055 1018.99C286.39 1019.26 286.663 1019.59 286.873 1019.98C287.086 1020.37 287.222 1020.82 287.282 1021.33ZM288.205 1027V1018.27H291.699C292.342 1018.27 292.877 1018.37 293.306 1018.56C293.735 1018.75 294.057 1019.01 294.273 1019.35C294.489 1019.69 294.597 1020.07 294.597 1020.51C294.597 1020.85 294.529 1021.15 294.393 1021.41C294.256 1021.66 294.069 1021.87 293.83 1022.04C293.594 1022.2 293.324 1022.32 293.021 1022.38V1022.47C293.353 1022.48 293.664 1022.58 293.954 1022.75C294.246 1022.92 294.484 1023.17 294.665 1023.48C294.847 1023.79 294.938 1024.16 294.938 1024.59C294.938 1025.05 294.823 1025.46 294.593 1025.83C294.366 1026.19 294.029 1026.47 293.583 1026.68C293.137 1026.89 292.587 1027 291.934 1027H288.205ZM290.05 1025.49H291.555C292.069 1025.49 292.444 1025.39 292.68 1025.2C292.915 1025 293.033 1024.73 293.033 1024.4C293.033 1024.16 292.975 1023.95 292.859 1023.77C292.742 1023.58 292.576 1023.44 292.36 1023.33C292.147 1023.23 291.893 1023.17 291.597 1023.17H290.05V1025.49ZM290.05 1021.92H291.418C291.671 1021.92 291.896 1021.88 292.092 1021.79C292.29 1021.7 292.447 1021.57 292.56 1021.41C292.677 1021.24 292.735 1021.05 292.735 1020.82C292.735 1020.5 292.623 1020.25 292.398 1020.05C292.177 1019.86 291.861 1019.76 291.452 1019.76H290.05V1021.92ZM300.473 1020.78C300.439 1020.44 300.293 1020.17 300.034 1019.98C299.776 1019.79 299.425 1019.7 298.982 1019.7C298.681 1019.7 298.426 1019.74 298.219 1019.82C298.011 1019.91 297.852 1020.02 297.742 1020.17C297.634 1020.32 297.58 1020.48 297.58 1020.67C297.574 1020.83 297.607 1020.96 297.678 1021.08C297.752 1021.2 297.852 1021.3 297.98 1021.38C298.108 1021.47 298.256 1021.54 298.423 1021.6C298.591 1021.66 298.77 1021.71 298.96 1021.75L299.744 1021.94C300.125 1022.03 300.475 1022.14 300.793 1022.28C301.111 1022.42 301.386 1022.6 301.619 1022.81C301.852 1023.01 302.033 1023.26 302.161 1023.54C302.291 1023.82 302.358 1024.14 302.361 1024.51C302.358 1025.04 302.222 1025.5 301.952 1025.9C301.685 1026.29 301.298 1026.59 300.793 1026.8C300.29 1027.02 299.683 1027.12 298.973 1027.12C298.269 1027.12 297.655 1027.02 297.132 1026.8C296.612 1026.58 296.206 1026.26 295.913 1025.84C295.624 1025.41 295.472 1024.89 295.458 1024.26H297.243C297.263 1024.55 297.347 1024.8 297.494 1024.99C297.645 1025.19 297.845 1025.33 298.095 1025.43C298.348 1025.53 298.634 1025.58 298.952 1025.58C299.264 1025.58 299.536 1025.53 299.766 1025.44C299.999 1025.35 300.179 1025.22 300.307 1025.06C300.435 1024.9 300.499 1024.71 300.499 1024.5C300.499 1024.31 300.44 1024.14 300.324 1024.01C300.21 1023.87 300.043 1023.76 299.821 1023.67C299.602 1023.57 299.334 1023.49 299.016 1023.41L298.065 1023.17C297.33 1022.99 296.749 1022.71 296.323 1022.33C295.896 1021.95 295.685 1021.44 295.688 1020.8C295.685 1020.27 295.825 1019.81 296.11 1019.41C296.396 1019.02 296.79 1018.71 297.29 1018.49C297.79 1018.26 298.358 1018.15 298.994 1018.15C299.642 1018.15 300.208 1018.26 300.69 1018.49C301.176 1018.71 301.554 1019.02 301.824 1019.41C302.094 1019.81 302.233 1020.26 302.242 1020.78H300.473Z" fill="white"/>
</g>
<rect x="364" y="975" width="60" height="60" rx="16" fill="url(#paint3_linear_66_39)"/>
<path d="M378 1007H390C391.1 1007 392 1006.1 392 1005V989C392 987.9 391.1 987 390 987H378C376.9 987 376 987.9 376 989V1005C376 1006.1 376.9 1007 378 1007ZM378 1023H390C391.1 1023 392 1022.1 392 1021V1013C392 1011.9 391.1 1011 390 1011H378C376.9 1011 376 1011.9 376 1013V1021C376 1022.1 376.9 1023 378 1023ZM398 1023H410C411.1 1023 412 1022.1 412 1021V1005C412 1003.9 411.1 1003 410 1003H398C396.9 1003 396 1003.9 396 1005V1021C396 1022.1 396.9 1023 398 1023ZM396 989V997C396 998.1 396.9 999 398 999H410C411.1 999 412 998.1 412 997V989C412 987.9 411.1 987 410 987H398C396.9 987 396 987.9 396 989Z" fill="white"/>
</g>
<defs>
<filter id="filter0_b_66_39" x="-26" y="909" width="532" height="192" filterUnits="userSpaceOnUse" color-interpolation-filters="sRGB">
<feFlood flood-opacity="0" result="BackgroundImageFix"/>
<feGaussianBlur in="BackgroundImageFix" stdDeviation="25"/>
<feComposite in2="SourceAlpha" operator="in" result="effect1_backgroundBlur_66_39"/>
<feBlend mode="normal" in="SourceGraphic" in2="effect1_backgroundBlur_66_39" result="shape"/>
</filter>
<linearGradient id="paint0_linear_66_39" x1="86" y1="975" x2="86" y2="1035" gradientUnits="userSpaceOnUse">
<stop offset="0.5" stop-color="#57F371"/>
<stop offset="1" stop-color="#58BA68"/>
</linearGradient>
<linearGradient id="paint1_linear_66_39" x1="188.667" y1="975" x2="188.667" y2="1035" gradientUnits="userSpaceOnUse">
<stop stop-color="#F5DE19"/>
<stop offset="1" stop-color="#F5DE19"/>
</linearGradient>
<linearGradient id="paint2_linear_66_39" x1="291.333" y1="975" x2="291.333" y2="1035" gradientUnits="userSpaceOnUse">
<stop stop-color="#1C74F2"/>
<stop offset="1" stop-color="#38BDF8"/>
</linearGradient>
<linearGradient id="paint3_linear_66_39" x1="394" y1="975" x2="394" y2="1035" gradientUnits="userSpaceOnUse">
<stop stop-color="#FB576F"/>
<stop offset="1" stop-color="#E9213E"/>
</linearGradient>
<clipPath id="clip0_66_39">
<rect x="261.333" y="975" width="60" height="60" rx="16" fill="white"/>
</clipPath>
</defs>
</svg>
