<svg width="480" height="1067" viewBox="0 0 480 1067" fill="none" xmlns="http://www.w3.org/2000/svg">
<rect width="480" height="1067" fill="black"/>
<path d="M0 0H480V56H0V0Z" fill="black"/>
<path d="M480 55.5H0V56.5H480V55.5Z" fill="#DDDDDD"/>
<rect opacity="0.35" x="431.007" y="22.5605" width="27.16" height="13.4242" rx="2.16667" stroke="white"/>
<path opacity="0.4" d="M459.947 26.7272V31.8181C460.977 31.3869 461.647 30.3839 461.647 29.2726C461.647 28.1614 460.977 27.1583 459.947 26.7272Z" fill="white"/>
<rect x="433.067" y="24.606" width="23.04" height="9.33333" rx="1.33333" fill="white"/>
<path fill-rule="evenodd" clip-rule="evenodd" d="M414.294 24.9648C417.141 24.9649 419.88 26.0519 421.944 28.0012C422.099 28.1517 422.348 28.1498 422.501 27.997L423.987 26.5075C424.064 26.4299 424.107 26.3249 424.107 26.2157C424.106 26.1064 424.062 26.0019 423.983 25.9253C418.566 20.7679 410.021 20.7679 404.604 25.9253C404.525 26.0019 404.481 26.1063 404.48 26.2156C404.479 26.3248 404.522 26.4299 404.6 26.5075L406.086 27.997C406.239 28.1501 406.487 28.152 406.643 28.0012C408.707 26.0518 411.446 24.9648 414.294 24.9648ZM414.294 29.8108C415.858 29.8107 417.367 30.3884 418.527 31.4318C418.684 31.5799 418.931 31.5767 419.084 31.4246L420.568 29.9351C420.646 29.8569 420.689 29.7509 420.688 29.6408C420.687 29.5307 420.641 29.4256 420.562 29.349C417.03 26.0852 411.561 26.0852 408.029 29.349C407.949 29.4256 407.904 29.5307 407.903 29.6409C407.902 29.7511 407.945 29.857 408.023 29.9351L409.507 31.4246C409.66 31.5767 409.907 31.5799 410.064 31.4318C411.223 30.3891 412.73 29.8114 414.294 29.8108ZM417.266 33.0713C417.269 33.1817 417.225 33.2882 417.145 33.3656L414.579 35.9391C414.503 36.0147 414.401 36.0573 414.294 36.0573C414.187 36.0573 414.084 36.0147 414.009 35.9391L411.442 33.3656C411.362 33.2882 411.319 33.1817 411.321 33.0712C411.324 32.9608 411.372 32.8562 411.454 32.7821C413.093 31.4047 415.494 31.4047 417.133 32.7821C417.216 32.8562 417.264 32.9609 417.266 33.0713Z" fill="white"/>
<path fill-rule="evenodd" clip-rule="evenodd" d="M396.8 22.4849H395.52C394.813 22.4849 394.24 23.0547 394.24 23.7576V34.7879C394.24 35.4908 394.813 36.0606 395.52 36.0606H396.8C397.507 36.0606 398.08 35.4908 398.08 34.7879V23.7576C398.08 23.0547 397.507 22.4849 396.8 22.4849ZM389.547 25.4546H390.827C391.534 25.4546 392.107 26.0244 392.107 26.7273V34.7879C392.107 35.4908 391.534 36.0606 390.827 36.0606H389.547C388.84 36.0606 388.267 35.4908 388.267 34.7879V26.7273C388.267 26.0244 388.84 25.4546 389.547 25.4546ZM384.853 28.4243H383.573C382.866 28.4243 382.293 28.9941 382.293 29.697V34.7879C382.293 35.4908 382.866 36.0606 383.573 36.0606H384.853C385.56 36.0606 386.133 35.4908 386.133 34.7879V29.697C386.133 28.9941 385.56 28.4243 384.853 28.4243ZM378.88 30.9697H377.6C376.893 30.9697 376.32 31.5395 376.32 32.2424V34.7879C376.32 35.4908 376.893 36.0606 377.6 36.0606H378.88C379.587 36.0606 380.16 35.4908 380.16 34.7879V32.2424C380.16 31.5395 379.587 30.9697 378.88 30.9697Z" fill="white"/>
<path d="M42.9607 32.1654C45.6487 32.1654 47.2454 30.0634 47.2454 26.4965C47.2454 22.9955 45.5462 21.0765 43.0193 21.0765C40.7195 21.0765 39.0935 22.6219 39.0935 24.7826C39.0935 26.8114 40.5584 28.2909 42.5725 28.2909C43.8103 28.2909 44.8137 27.7196 45.3118 26.7162H45.4363C45.4143 29.1991 44.5281 30.62 42.9827 30.62C42.0745 30.62 41.3494 30.1219 41.1223 29.3163H39.24C39.5476 31.0375 41.0271 32.1654 42.9607 32.1654ZM43.0266 26.8334C41.7962 26.8334 40.9465 25.9691 40.9465 24.724C40.9465 23.5302 41.8401 22.6146 43.0339 22.6146C44.2278 22.6146 45.1214 23.5448 45.1214 24.7606C45.1214 25.9618 44.2498 26.8334 43.0266 26.8334ZM50.3965 26.6796C51.0923 26.6796 51.5684 26.1888 51.5684 25.5443C51.5684 24.8925 51.0923 24.4091 50.3965 24.4091C49.708 24.4091 49.2246 24.8925 49.2246 25.5443C49.2246 26.1888 49.708 26.6796 50.3965 26.6796ZM50.3965 32.0555C51.0923 32.0555 51.5684 31.5648 51.5684 30.913C51.5684 30.2684 51.0923 29.7777 50.3965 29.7777C49.708 29.7777 49.2246 30.2684 49.2246 30.913C49.2246 31.5648 49.708 32.0555 50.3965 32.0555ZM58.4841 31.9091H60.2932V29.8802H61.7214V28.3202H60.2932V21.3402H57.6272C56.1916 23.5228 54.6902 25.9545 53.3206 28.3348V29.8802H58.4841V31.9091ZM55.071 28.2543C56.1038 26.4598 57.3269 24.5043 58.4109 22.849H58.5134V28.3641H55.071V28.2543ZM65.81 31.9091H67.6997V21.3402H65.8174L63.0561 23.2811V25.0609L65.6855 23.2006H65.81V31.9091Z" fill="white"/>
<path fill-rule="evenodd" clip-rule="evenodd" d="M230 84.3107C230 80.8254 232.825 78 236.311 78C237.688 78 238.962 78.4413 240 79.1902C241.038 78.4413 242.312 78 243.689 78C247.175 78 250 80.8254 250 84.3107V98H244.757V84.5709C244.757 84.0347 244.323 83.6 243.786 83.6C243.25 83.6 242.816 84.0347 242.816 84.5709V98H242.621H237.379L237.379 84.567C237.377 84.0326 236.943 83.6 236.408 83.6C235.872 83.6 235.437 84.0347 235.437 84.5709V98H230V84.3107Z" fill="#00B0F0"/>
<path fill-rule="evenodd" clip-rule="evenodd" d="M261.8 78H272C272 81.0928 269.493 83.6 266.4 83.6H261.8H258.6C258.048 83.6 257.6 84.0477 257.6 84.6V98H252V83.6C252 80.5072 254.507 78 257.6 78H261.8ZM260 88.6935V94.6757C260 96.1835 261.605 97.149 262.937 96.4427L268.634 93.4217C270.058 92.6666 270.05 90.6234 268.62 89.8801L262.922 86.9189C261.591 86.2269 260 87.193 260 88.6935Z" fill="#00B0F0"/>
<path fill-rule="evenodd" clip-rule="evenodd" d="M218 78C212.477 78 208 82.4772 208 88V89.1111C208 94.0203 211.98 98 216.889 98H217.6C220.373 98 222.222 96.1333 222.8 95.2V98H228V88C228 82.4772 223.523 78 218 78ZM218 92.4C220.43 92.4 222.4 90.4301 222.4 88C222.4 85.5699 220.43 83.6 218 83.6C215.57 83.6 213.6 85.5699 213.6 88C213.6 90.4301 215.57 92.4 218 92.4Z" fill="#00B0F0"/>
<g clip-path="url(#clip0_66_128)">
<path d="M444 99.6667C444.442 99.6667 444.866 99.8423 445.179 100.155C445.491 100.467 445.667 100.891 445.667 101.333V103C445.667 103.442 445.491 103.866 445.179 104.179C444.866 104.491 444.442 104.667 444 104.667C443.558 104.667 443.134 104.491 442.822 104.179C442.509 103.866 442.333 103.442 442.333 103V101.333C442.333 100.891 442.509 100.467 442.822 100.155C443.134 99.8423 443.558 99.6667 444 99.6667ZM454.607 96.25L455.785 97.4284C456.089 97.7427 456.257 98.1637 456.253 98.6007C456.249 99.0377 456.074 99.4557 455.765 99.7647C455.456 100.074 455.038 100.249 454.601 100.253C454.164 100.257 453.743 100.089 453.428 99.785L452.25 98.6067C451.946 98.2924 451.778 97.8714 451.782 97.4344C451.786 96.9974 451.961 96.5794 452.27 96.2703C452.579 95.9613 452.997 95.786 453.434 95.7823C453.871 95.7785 454.292 95.9464 454.607 96.25ZM433.393 96.25C433.693 95.9511 434.096 95.7776 434.519 95.7647C434.942 95.7517 435.355 95.9004 435.672 96.1805C435.99 96.4605 436.189 96.851 436.229 97.2725C436.269 97.694 436.147 98.1151 435.888 98.45L435.75 98.6067L434.572 99.785C434.272 100.084 433.869 100.257 433.446 100.27C433.023 100.283 432.611 100.135 432.293 99.8546C431.975 99.5746 431.776 99.1841 431.736 98.7626C431.696 98.341 431.818 97.92 432.077 97.585L432.215 97.4284L433.393 96.25ZM444 78C446.652 78 449.196 79.0536 451.071 80.929C452.946 82.8043 454 85.3479 454 88C454 90.6522 452.946 93.1957 451.071 95.0711C449.196 96.9465 446.652 98 444 98C441.348 98 438.804 96.9465 436.929 95.0711C435.054 93.1957 434 90.6522 434 88C434 85.3479 435.054 82.8043 436.929 80.929C438.804 79.0536 441.348 78 444 78ZM430.667 86.3334C431.091 86.3338 431.5 86.4965 431.809 86.7881C432.118 87.0797 432.304 87.4783 432.329 87.9024C432.354 88.3264 432.216 88.744 431.943 89.0698C431.67 89.3955 431.284 89.6049 430.862 89.655L430.667 89.6667H429C428.575 89.6662 428.167 89.5036 427.858 89.212C427.549 88.9203 427.363 88.5218 427.338 88.0977C427.313 87.6736 427.451 87.2561 427.724 86.9303C427.996 86.6046 428.383 86.3952 428.805 86.345L429 86.3334H430.667ZM459 86.3334C459.442 86.3334 459.866 86.509 460.179 86.8215C460.491 87.1341 460.667 87.558 460.667 88C460.667 88.4421 460.491 88.866 460.179 89.1786C459.866 89.4911 459.442 89.6667 459 89.6667H457.333C456.891 89.6667 456.467 89.4911 456.155 89.1786C455.842 88.866 455.667 88.4421 455.667 88C455.667 87.558 455.842 87.1341 456.155 86.8215C456.467 86.509 456.891 86.3334 457.333 86.3334H459ZM432.215 76.215C432.502 75.9281 432.884 75.7557 433.289 75.7302C433.694 75.7048 434.094 75.828 434.415 76.0767L434.572 76.215L435.75 77.3934C436.049 77.6933 436.222 78.0958 436.235 78.519C436.248 78.9423 436.1 79.3546 435.82 79.6722C435.54 79.9898 435.149 80.1889 434.728 80.229C434.306 80.2692 433.885 80.1474 433.55 79.8884L433.393 79.75L432.215 78.5717C431.903 78.2592 431.727 77.8353 431.727 77.3934C431.727 76.9514 431.903 76.5276 432.215 76.215ZM455.785 76.215C456.097 76.5276 456.273 76.9514 456.273 77.3934C456.273 77.8353 456.097 78.2592 455.785 78.5717L454.607 79.75C454.453 79.9092 454.269 80.0362 454.066 80.1235C453.862 80.2109 453.644 80.2569 453.422 80.2588C453.201 80.2607 452.982 80.2185 452.777 80.1347C452.572 80.0509 452.386 79.9272 452.229 79.7707C452.073 79.6142 451.949 79.4281 451.865 79.2233C451.782 79.0185 451.739 78.799 451.741 78.5777C451.743 78.3564 451.789 78.1377 451.877 77.9344C451.964 77.731 452.091 77.5471 452.25 77.3934L453.428 76.215C453.741 75.9026 454.165 75.7271 454.607 75.7271C455.049 75.7271 455.472 75.9026 455.785 76.215ZM444 71.3334C444.442 71.3334 444.866 71.509 445.179 71.8215C445.491 72.1341 445.667 72.558 445.667 73V74.6667C445.667 75.1087 445.491 75.5327 445.179 75.8452C444.866 76.1578 444.442 76.3334 444 76.3334C443.558 76.3334 443.134 76.1578 442.822 75.8452C442.509 75.5327 442.333 75.1087 442.333 74.6667V73C442.333 72.558 442.509 72.1341 442.822 71.8215C443.134 71.509 443.558 71.3334 444 71.3334Z" fill="white"/>
</g>
<g filter="url(#filter0_b_66_128)">
<rect x="24" y="959" width="432" height="92" rx="32" fill="#BFBFBF" fill-opacity="0.4"/>
<rect x="24" y="959" width="432" height="92" rx="32" fill="#0D0D0D" style="mix-blend-mode:color-dodge"/>
<rect x="56" y="975" width="60" height="60" rx="16" fill="url(#paint0_linear_66_128)"/>
<path d="M83.5284 988.032C84.312 987.366 85.3069 987 86.3354 987C87.3638 987 88.3588 987.366 89.1424 988.032L102.144 999.083C102.622 999.489 103.007 999.995 103.271 1000.57C103.534 1001.14 103.671 1001.76 103.671 1002.38V1019.67C103.671 1020.55 103.32 1021.4 102.694 1022.02C102.069 1022.65 101.221 1023 100.337 1023H95.0031C94.1189 1023 93.271 1022.65 92.6458 1022.02C92.0206 1021.4 91.6693 1020.55 91.6693 1019.67V1011C91.6693 1010.29 91.39 1009.62 90.8924 1009.12C90.3949 1008.62 89.7196 1008.33 89.0144 1008.33H83.6551C82.95 1008.34 82.2751 1008.62 81.7778 1009.12C81.2806 1009.62 81.0014 1010.29 81.0014 1011V1019.67C81.0014 1020.1 80.9152 1020.54 80.7477 1020.94C80.5801 1021.35 80.3346 1021.71 80.025 1022.02C79.7154 1022.33 79.3479 1022.58 78.9434 1022.75C78.539 1022.91 78.1055 1023 77.6677 1023H72.3337C71.4496 1023 70.6016 1022.65 69.9764 1022.02C69.3512 1021.4 69 1020.55 69 1019.67V1002.38C69 1001.76 69.1366 1001.14 69.4002 1000.57C69.6639 999.995 70.0483 999.489 70.5268 999.083L83.5284 988.032Z" fill="white"/>
<rect x="158.667" y="975" width="60" height="60" rx="16" fill="url(#paint1_linear_66_128)"/>
<path d="M190.842 1012.49C189.601 1012.49 188.884 1013.67 188.884 1015.24C188.884 1016.83 189.63 1017.95 190.852 1017.95C192.092 1017.95 192.8 1016.77 192.8 1015.2C192.8 1013.75 192.102 1012.49 190.842 1012.49Z" fill="white"/>
<path d="M193.667 981H174.467C173.194 981 171.973 981.506 171.073 982.406C170.172 983.306 169.667 984.527 169.667 985.8V1024.2C169.667 1025.47 170.172 1026.69 171.073 1027.59C171.973 1028.49 173.194 1029 174.467 1029H203.267C204.54 1029 205.761 1028.49 206.661 1027.59C207.561 1026.69 208.067 1025.47 208.067 1024.2V995.4L193.667 981ZM179.32 1016.29C179.32 1018.6 178.213 1019.4 176.44 1019.4C176.017 1019.4 175.465 1019.33 175.103 1019.21L175.309 1017.73C175.559 1017.82 175.883 1017.88 176.248 1017.88C177.013 1017.88 177.496 1017.53 177.496 1016.27V1011.18H179.322L179.32 1016.29ZM182.821 1019.39C181.897 1019.39 180.983 1019.15 180.529 1018.9L180.901 1017.38C181.391 1017.63 182.152 1017.89 182.932 1017.89C183.772 1017.89 184.213 1017.54 184.213 1017.01C184.213 1016.51 183.832 1016.22 182.86 1015.87C181.511 1015.4 180.635 1014.66 180.635 1013.48C180.635 1012.1 181.789 1011.04 183.7 1011.04C184.612 1011.04 185.281 1011.23 185.766 1011.45L185.353 1012.92C185.029 1012.77 184.453 1012.54 183.661 1012.54C182.869 1012.54 182.483 1012.9 182.483 1013.32C182.483 1013.84 182.939 1014.07 183.988 1014.46C185.418 1014.99 186.09 1015.74 186.09 1016.88C186.092 1018.24 185.044 1019.39 182.821 1019.39ZM190.756 1019.4C188.353 1019.4 186.949 1017.59 186.949 1015.28C186.949 1012.85 188.5 1011.04 190.89 1011.04C193.374 1011.04 194.732 1012.9 194.732 1015.14C194.73 1017.79 193.122 1019.4 190.756 1019.4ZM202.628 1019.27H200.704L198.973 1016.14C198.455 1015.22 197.987 1014.26 197.569 1013.29L197.531 1013.3C197.581 1014.37 197.605 1015.51 197.605 1016.83V1019.27H195.923V1011.18H198.061L199.744 1014.14C200.224 1014.99 200.704 1016 201.068 1016.91H201.102C200.982 1015.85 200.946 1014.75 200.946 1013.54V1011.18H202.631L202.628 1019.27ZM193.667 997.8H191.267V985.8L203.267 997.8H193.667Z" fill="white"/>
<g clip-path="url(#clip1_66_128)">
<rect x="261.333" y="975" width="60" height="60" rx="16" fill="url(#paint2_linear_66_128)"/>
<path d="M310.199 997.263L301.33 983.242C301.094 982.865 300.766 982.555 300.378 982.339C299.989 982.124 299.552 982.011 299.108 982.01L282.516 981.922C282.042 981.919 281.576 982.044 281.167 982.283C280.758 982.522 280.42 982.866 280.189 983.28L272.521 997.115C272.292 997.53 272.179 997.999 272.193 998.472C272.207 998.946 272.348 999.407 272.602 999.807L281.469 1013.83C281.705 1014.21 282.032 1014.52 282.421 1014.73C282.81 1014.95 283.247 1015.06 283.691 1015.06L300.283 1015.15C300.757 1015.15 301.223 1015.03 301.632 1014.79C302.041 1014.55 302.379 1014.21 302.609 1013.79L310.277 999.96C310.507 999.545 310.621 999.075 310.608 998.601C310.594 998.126 310.453 997.664 310.199 997.263ZM299.096 984.651L307.19 997.458L292.04 997.381L283.946 984.574L299.096 984.651ZM281.716 985.985L289.778 998.733L282.899 1011.14L274.834 998.399L281.716 985.985ZM285.213 1012.43L292.089 1000.02L307.175 1000.1L300.297 1012.51L285.213 1012.43Z" fill="white"/>
<path d="M287.282 1021.33H285.416C285.381 1021.09 285.312 1020.87 285.207 1020.68C285.102 1020.49 284.967 1020.33 284.802 1020.2C284.637 1020.07 284.447 1019.96 284.231 1019.89C284.018 1019.82 283.786 1019.79 283.536 1019.79C283.085 1019.79 282.691 1019.9 282.356 1020.12C282.021 1020.34 281.761 1020.67 281.576 1021.09C281.391 1021.52 281.299 1022.03 281.299 1022.64C281.299 1023.26 281.391 1023.78 281.576 1024.2C281.764 1024.63 282.025 1024.95 282.36 1025.16C282.695 1025.38 283.083 1025.49 283.524 1025.49C283.771 1025.49 283.999 1025.45 284.21 1025.39C284.423 1025.32 284.612 1025.23 284.776 1025.1C284.941 1024.98 285.077 1024.82 285.185 1024.64C285.296 1024.46 285.373 1024.25 285.416 1024.02L287.282 1024.03C287.234 1024.43 287.113 1024.81 286.92 1025.18C286.729 1025.55 286.472 1025.88 286.149 1026.18C285.827 1026.47 285.444 1026.7 284.998 1026.87C284.555 1027.04 284.053 1027.12 283.494 1027.12C282.715 1027.12 282.019 1026.94 281.406 1026.59C280.795 1026.24 280.312 1025.73 279.957 1025.06C279.604 1024.39 279.428 1023.59 279.428 1022.64C279.428 1021.68 279.607 1020.88 279.965 1020.21C280.323 1019.54 280.809 1019.03 281.423 1018.68C282.036 1018.33 282.727 1018.15 283.494 1018.15C283.999 1018.15 284.468 1018.22 284.9 1018.37C285.335 1018.51 285.72 1018.72 286.055 1018.99C286.39 1019.26 286.663 1019.59 286.873 1019.98C287.086 1020.37 287.222 1020.82 287.282 1021.33ZM288.205 1027V1018.27H291.699C292.342 1018.27 292.877 1018.37 293.306 1018.56C293.735 1018.75 294.057 1019.01 294.273 1019.35C294.489 1019.69 294.597 1020.07 294.597 1020.51C294.597 1020.85 294.529 1021.15 294.393 1021.41C294.256 1021.66 294.069 1021.87 293.83 1022.04C293.594 1022.2 293.324 1022.32 293.021 1022.38V1022.47C293.353 1022.48 293.664 1022.58 293.954 1022.75C294.246 1022.92 294.484 1023.17 294.665 1023.48C294.847 1023.79 294.938 1024.16 294.938 1024.59C294.938 1025.05 294.823 1025.46 294.593 1025.83C294.366 1026.19 294.029 1026.47 293.583 1026.68C293.137 1026.89 292.587 1027 291.934 1027H288.205ZM290.05 1025.49H291.555C292.069 1025.49 292.444 1025.39 292.68 1025.2C292.915 1025 293.033 1024.73 293.033 1024.4C293.033 1024.16 292.975 1023.95 292.859 1023.77C292.742 1023.58 292.576 1023.44 292.36 1023.33C292.147 1023.23 291.893 1023.17 291.597 1023.17H290.05V1025.49ZM290.05 1021.92H291.418C291.671 1021.92 291.896 1021.88 292.092 1021.79C292.29 1021.7 292.447 1021.57 292.56 1021.41C292.677 1021.24 292.735 1021.05 292.735 1020.82C292.735 1020.5 292.623 1020.25 292.398 1020.05C292.177 1019.86 291.861 1019.76 291.452 1019.76H290.05V1021.92ZM300.473 1020.78C300.439 1020.44 300.293 1020.17 300.034 1019.98C299.776 1019.79 299.425 1019.7 298.982 1019.7C298.681 1019.7 298.426 1019.74 298.219 1019.82C298.011 1019.91 297.852 1020.02 297.742 1020.17C297.634 1020.32 297.58 1020.48 297.58 1020.67C297.574 1020.83 297.607 1020.96 297.678 1021.08C297.752 1021.2 297.852 1021.3 297.98 1021.38C298.108 1021.47 298.256 1021.54 298.423 1021.6C298.591 1021.66 298.77 1021.71 298.96 1021.75L299.744 1021.94C300.125 1022.03 300.475 1022.14 300.793 1022.28C301.111 1022.42 301.386 1022.6 301.619 1022.81C301.852 1023.01 302.033 1023.26 302.161 1023.54C302.291 1023.82 302.358 1024.14 302.361 1024.51C302.358 1025.04 302.222 1025.5 301.952 1025.9C301.685 1026.29 301.298 1026.59 300.793 1026.8C300.29 1027.02 299.683 1027.12 298.973 1027.12C298.269 1027.12 297.655 1027.02 297.132 1026.8C296.612 1026.58 296.206 1026.26 295.913 1025.84C295.624 1025.41 295.472 1024.89 295.458 1024.26H297.243C297.263 1024.55 297.347 1024.8 297.494 1024.99C297.645 1025.19 297.845 1025.33 298.095 1025.43C298.348 1025.53 298.634 1025.58 298.952 1025.58C299.264 1025.58 299.536 1025.53 299.766 1025.44C299.999 1025.35 300.179 1025.22 300.307 1025.06C300.435 1024.9 300.499 1024.71 300.499 1024.5C300.499 1024.31 300.44 1024.14 300.324 1024.01C300.21 1023.87 300.043 1023.76 299.821 1023.67C299.602 1023.57 299.334 1023.49 299.016 1023.41L298.065 1023.17C297.33 1022.99 296.749 1022.71 296.323 1022.33C295.896 1021.95 295.685 1021.44 295.688 1020.8C295.685 1020.27 295.825 1019.81 296.11 1019.41C296.396 1019.02 296.79 1018.71 297.29 1018.49C297.79 1018.26 298.358 1018.15 298.994 1018.15C299.642 1018.15 300.208 1018.26 300.69 1018.49C301.176 1018.71 301.554 1019.02 301.824 1019.41C302.094 1019.81 302.233 1020.26 302.242 1020.78H300.473Z" fill="white"/>
</g>
<rect x="364" y="975" width="60" height="60" rx="16" fill="url(#paint3_linear_66_128)"/>
<path d="M378 1007H390C391.1 1007 392 1006.1 392 1005V989C392 987.9 391.1 987 390 987H378C376.9 987 376 987.9 376 989V1005C376 1006.1 376.9 1007 378 1007ZM378 1023H390C391.1 1023 392 1022.1 392 1021V1013C392 1011.9 391.1 1011 390 1011H378C376.9 1011 376 1011.9 376 1013V1021C376 1022.1 376.9 1023 378 1023ZM398 1023H410C411.1 1023 412 1022.1 412 1021V1005C412 1003.9 411.1 1003 410 1003H398C396.9 1003 396 1003.9 396 1005V1021C396 1022.1 396.9 1023 398 1023ZM396 989V997C396 998.1 396.9 999 398 999H410C411.1 999 412 998.1 412 997V989C412 987.9 411.1 987 410 987H398C396.9 987 396 987.9 396 989Z" fill="white"/>
</g>
<path d="M164.666 238.52V232.972C169.647 232.972 173.122 231.928 175.091 229.839C177.09 227.751 178.089 224.261 178.089 219.369V205.051C178.089 200.935 178.477 197.37 179.252 194.357C180.058 191.344 181.355 188.854 183.145 186.885C184.935 184.916 187.321 183.455 190.304 182.5C193.287 181.545 196.971 181.068 201.356 181.068V189.838C197.896 189.838 195.166 190.375 193.168 191.449C191.199 192.523 189.797 194.193 188.962 196.46C188.156 198.697 187.754 201.561 187.754 205.051V222.949C187.754 225.276 187.44 227.393 186.814 229.303C186.217 231.212 185.099 232.852 183.458 234.224C181.818 235.597 179.476 236.656 176.433 237.401C173.42 238.147 169.498 238.52 164.666 238.52ZM201.356 295.614C196.971 295.614 193.287 295.136 190.304 294.182C187.321 293.227 184.935 291.766 183.145 289.797C181.355 287.828 180.058 285.337 179.252 282.325C178.477 279.312 178.089 275.747 178.089 271.631V257.312C178.089 252.42 177.09 248.93 175.091 246.842C173.122 244.754 169.647 243.71 164.666 243.71V238.162C169.498 238.162 173.42 238.535 176.433 239.281C179.476 240.026 181.818 241.085 183.458 242.457C185.099 243.83 186.217 245.47 186.814 247.379C187.44 249.288 187.754 251.406 187.754 253.733V271.631C187.754 275.121 188.156 277.984 188.962 280.222C189.797 282.459 191.199 284.114 193.168 285.188C195.166 286.292 197.896 286.844 201.356 286.844V295.614ZM164.666 243.71V232.972H175.225V243.71H164.666ZM316.323 238.162V243.71C311.342 243.71 307.852 244.754 305.853 246.842C303.884 248.93 302.9 252.42 302.9 257.312V271.631C302.9 275.747 302.497 279.312 301.692 282.325C300.916 285.337 299.634 287.828 297.844 289.797C296.054 291.766 293.668 293.227 290.685 294.182C287.702 295.136 284.018 295.614 279.633 295.614V286.844C283.093 286.844 285.808 286.292 287.776 285.188C289.775 284.114 291.177 282.459 291.982 280.222C292.818 277.984 293.235 275.121 293.235 271.631V253.733C293.235 251.406 293.534 249.288 294.13 247.379C294.757 245.47 295.89 243.83 297.531 242.457C299.171 241.085 301.498 240.026 304.511 239.281C307.553 238.535 311.491 238.162 316.323 238.162ZM279.633 181.068C284.018 181.068 287.702 181.545 290.685 182.5C293.668 183.455 296.054 184.916 297.844 186.885C299.634 188.854 300.916 191.344 301.692 194.357C302.497 197.37 302.9 200.935 302.9 205.051V219.369C302.9 224.261 303.884 227.751 305.853 229.839C307.852 231.928 311.342 232.972 316.323 232.972V238.52C311.491 238.52 307.553 238.147 304.511 237.401C301.498 236.656 299.171 235.597 297.531 234.224C295.89 232.852 294.757 231.212 294.13 229.303C293.534 227.393 293.235 225.276 293.235 222.949V205.051C293.235 201.561 292.818 198.697 291.982 196.46C291.177 194.193 289.775 192.523 287.776 191.449C285.808 190.375 283.093 189.838 279.633 189.838V181.068ZM316.323 232.972V243.71H305.764V232.972H316.323Z" fill="#F5DE19"/>
<path d="M191.275 316.091H198.571V340.432C198.571 342.682 198.065 344.636 197.054 346.295C196.054 347.955 194.662 349.233 192.878 350.131C191.094 351.028 189.02 351.477 186.656 351.477C184.554 351.477 182.645 351.108 180.929 350.369C179.224 349.619 177.872 348.483 176.872 346.96C175.872 345.426 175.378 343.5 175.389 341.182H182.736C182.758 342.102 182.946 342.892 183.298 343.551C183.662 344.199 184.156 344.699 184.781 345.051C185.417 345.392 186.167 345.562 187.031 345.562C187.94 345.562 188.707 345.369 189.332 344.983C189.969 344.585 190.452 344.006 190.781 343.244C191.111 342.483 191.275 341.545 191.275 340.432V316.091ZM223.211 326.131C223.074 324.756 222.489 323.687 221.455 322.926C220.421 322.165 219.017 321.784 217.245 321.784C216.04 321.784 215.023 321.955 214.194 322.295C213.364 322.625 212.728 323.085 212.285 323.676C211.853 324.267 211.637 324.938 211.637 325.688C211.614 326.312 211.745 326.858 212.029 327.324C212.324 327.79 212.728 328.193 213.239 328.534C213.75 328.864 214.341 329.153 215.012 329.403C215.682 329.642 216.398 329.847 217.16 330.017L220.296 330.767C221.819 331.108 223.216 331.562 224.489 332.131C225.762 332.699 226.864 333.398 227.796 334.227C228.728 335.057 229.449 336.034 229.961 337.159C230.483 338.284 230.75 339.574 230.762 341.028C230.75 343.165 230.205 345.017 229.125 346.585C228.057 348.142 226.512 349.352 224.489 350.216C222.478 351.068 220.052 351.494 217.211 351.494C214.392 351.494 211.938 351.062 209.847 350.199C207.767 349.335 206.142 348.057 204.972 346.364C203.813 344.659 203.205 342.551 203.148 340.04H210.29C210.37 341.21 210.705 342.187 211.296 342.972C211.898 343.744 212.699 344.33 213.699 344.727C214.711 345.114 215.853 345.307 217.125 345.307C218.375 345.307 219.461 345.125 220.381 344.761C221.313 344.398 222.035 343.892 222.546 343.244C223.057 342.597 223.313 341.852 223.313 341.011C223.313 340.227 223.08 339.568 222.614 339.034C222.16 338.5 221.489 338.045 220.603 337.67C219.728 337.295 218.654 336.955 217.381 336.648L213.58 335.693C210.637 334.977 208.313 333.858 206.608 332.335C204.904 330.812 204.057 328.761 204.069 326.182C204.057 324.068 204.62 322.222 205.756 320.642C206.904 319.062 208.478 317.83 210.478 316.943C212.478 316.057 214.75 315.614 217.296 315.614C219.887 315.614 222.148 316.057 224.08 316.943C226.023 317.83 227.535 319.062 228.614 320.642C229.694 322.222 230.25 324.051 230.285 326.131H223.211ZM267.406 333.545C267.406 337.352 266.684 340.591 265.241 343.261C263.809 345.932 261.855 347.972 259.377 349.381C256.912 350.778 254.139 351.477 251.059 351.477C247.957 351.477 245.173 350.773 242.707 349.364C240.241 347.955 238.292 345.915 236.86 343.244C235.429 340.574 234.713 337.341 234.713 333.545C234.713 329.739 235.429 326.5 236.86 323.83C238.292 321.159 240.241 319.125 242.707 317.727C245.173 316.318 247.957 315.614 251.059 315.614C254.139 315.614 256.912 316.318 259.377 317.727C261.855 319.125 263.809 321.159 265.241 323.83C266.684 326.5 267.406 329.739 267.406 333.545ZM259.923 333.545C259.923 331.08 259.554 329 258.815 327.307C258.088 325.614 257.059 324.33 255.73 323.455C254.4 322.58 252.843 322.142 251.059 322.142C249.275 322.142 247.718 322.58 246.389 323.455C245.059 324.33 244.025 325.614 243.287 327.307C242.559 329 242.196 331.08 242.196 333.545C242.196 336.011 242.559 338.091 243.287 339.784C244.025 341.477 245.059 342.761 246.389 343.636C247.718 344.511 249.275 344.949 251.059 344.949C252.843 344.949 254.4 344.511 255.73 343.636C257.059 342.761 258.088 341.477 258.815 339.784C259.554 338.091 259.923 336.011 259.923 333.545ZM301.672 316.091V351H295.297L280.11 329.028H279.854V351H272.473V316.091H278.95L294.019 338.045H294.325V316.091H301.672Z" fill="#F5DE19"/>
<path d="M180.717 407.545H183.342V419.92C183.342 421.04 183.121 421.997 182.678 422.793C182.24 423.588 181.624 424.196 180.828 424.616C180.033 425.031 179.101 425.239 178.033 425.239C177.05 425.239 176.166 425.06 175.382 424.702C174.604 424.344 173.987 423.824 173.533 423.142C173.084 422.455 172.86 421.619 172.86 420.636H175.476C175.476 421.119 175.587 421.537 175.808 421.889C176.036 422.241 176.345 422.517 176.737 422.716C177.135 422.909 177.59 423.006 178.101 423.006C178.658 423.006 179.129 422.889 179.516 422.656C179.908 422.418 180.206 422.068 180.411 421.608C180.615 421.148 180.717 420.585 180.717 419.92V407.545ZM196.455 412.131C196.365 411.324 195.99 410.699 195.33 410.256C194.671 409.807 193.842 409.582 192.842 409.582C192.126 409.582 191.507 409.696 190.984 409.923C190.461 410.145 190.055 410.452 189.765 410.844C189.481 411.23 189.339 411.67 189.339 412.165C189.339 412.58 189.436 412.937 189.629 413.239C189.828 413.54 190.086 413.793 190.404 413.997C190.728 414.196 191.075 414.364 191.444 414.5C191.813 414.631 192.169 414.739 192.509 414.824L194.214 415.267C194.771 415.403 195.342 415.588 195.927 415.821C196.512 416.054 197.055 416.361 197.555 416.741C198.055 417.122 198.458 417.594 198.765 418.156C199.078 418.719 199.234 419.392 199.234 420.176C199.234 421.165 198.978 422.043 198.467 422.81C197.961 423.577 197.225 424.182 196.259 424.625C195.299 425.068 194.137 425.29 192.774 425.29C191.467 425.29 190.336 425.082 189.382 424.668C188.427 424.253 187.68 423.665 187.14 422.903C186.6 422.136 186.302 421.227 186.245 420.176H188.887C188.938 420.807 189.143 421.332 189.501 421.753C189.865 422.168 190.328 422.477 190.89 422.682C191.458 422.881 192.08 422.98 192.757 422.98C193.501 422.98 194.163 422.864 194.742 422.631C195.328 422.392 195.788 422.062 196.123 421.642C196.458 421.216 196.626 420.719 196.626 420.151C196.626 419.634 196.478 419.21 196.183 418.881C195.893 418.551 195.498 418.278 194.998 418.062C194.504 417.847 193.944 417.656 193.319 417.491L191.257 416.929C189.859 416.548 188.751 415.989 187.933 415.25C187.12 414.511 186.714 413.534 186.714 412.318C186.714 411.312 186.987 410.435 187.532 409.685C188.078 408.935 188.816 408.352 189.748 407.938C190.68 407.517 191.731 407.307 192.901 407.307C194.083 407.307 195.126 407.514 196.029 407.929C196.938 408.344 197.654 408.915 198.177 409.642C198.7 410.364 198.973 411.193 198.995 412.131H196.455ZM217.303 416.273C217.303 418.136 216.962 419.739 216.28 421.08C215.598 422.415 214.664 423.443 213.476 424.165C212.294 424.881 210.951 425.239 209.445 425.239C207.934 425.239 206.584 424.881 205.397 424.165C204.215 423.443 203.283 422.412 202.601 421.071C201.919 419.73 201.578 418.131 201.578 416.273C201.578 414.409 201.919 412.81 202.601 411.474C203.283 410.134 204.215 409.105 205.397 408.389C206.584 407.668 207.934 407.307 209.445 407.307C210.951 407.307 212.294 407.668 213.476 408.389C214.664 409.105 215.598 410.134 216.28 411.474C216.962 412.81 217.303 414.409 217.303 416.273ZM214.695 416.273C214.695 414.852 214.465 413.656 214.005 412.685C213.55 411.707 212.925 410.969 212.13 410.469C211.34 409.963 210.445 409.71 209.445 409.71C208.439 409.71 207.541 409.963 206.752 410.469C205.962 410.969 205.337 411.707 204.877 412.685C204.422 413.656 204.195 414.852 204.195 416.273C204.195 417.693 204.422 418.892 204.877 419.869C205.337 420.841 205.962 421.58 206.752 422.085C207.541 422.585 208.439 422.835 209.445 422.835C210.445 422.835 211.34 422.585 212.13 422.085C212.925 421.58 213.55 420.841 214.005 419.869C214.465 418.892 214.695 417.693 214.695 416.273ZM234.434 407.545V425H232.014L223.142 412.199H222.98V425H220.346V407.545H222.784L231.664 420.364H231.826V407.545H234.434ZM243.694 407.504H255.766V409.136H243.694V407.504ZM243.382 421.52L243.142 419.816C247.054 419.816 252.31 419.768 256.774 419.216L256.894 420.704C252.358 421.448 247.198 421.52 243.382 421.52ZM246.022 408.728H247.966V420.272H246.022V408.728ZM251.494 408.728H253.438V420.272H251.494V408.728ZM258.094 405.176H260.11V426.872H258.094V405.176ZM259.63 413.84H263.662V415.52H259.63V413.84ZM271.34 405.968C274.58 405.968 276.956 407.936 276.956 410.792C276.956 413.624 274.58 415.592 271.34 415.592C268.124 415.592 265.748 413.624 265.748 410.792C265.748 407.936 268.124 405.968 271.34 405.968ZM271.34 407.6C269.252 407.6 267.668 408.92 267.668 410.792C267.668 412.664 269.252 413.96 271.34 413.96C273.452 413.96 275.012 412.664 275.012 410.792C275.012 408.92 273.452 407.6 271.34 407.6ZM281.036 405.176H283.052V416.288H281.036V405.176ZM269.012 417.344H283.052V422.624H271.004V425.888H269.06V421.136H281.084V418.952H269.012V417.344ZM269.06 425H283.772V426.584H269.06V425ZM296.898 405.536C301.674 405.536 304.53 406.88 304.53 409.304C304.53 411.728 301.674 413.072 296.898 413.072C292.098 413.072 289.266 411.728 289.266 409.304C289.266 406.88 292.098 405.536 296.898 405.536ZM296.898 407.048C293.346 407.048 291.306 407.864 291.306 409.304C291.306 410.744 293.346 411.56 296.898 411.56C300.426 411.56 302.466 410.744 302.466 409.304C302.466 407.864 300.426 407.048 296.898 407.048ZM287.082 414.512H306.69V416.12H287.082V414.512ZM289.458 417.968H304.194V422.864H291.474V425.504H289.506V421.424H302.226V419.504H289.458V417.968ZM289.506 425.072H304.842V426.632H289.506V425.072ZM106.325 451.352H108.317V454.136H106.325V451.352ZM115.469 441.2H117.461V455.744H115.469V441.2ZM116.621 447.752H120.629V449.408H116.621V447.752ZM100.781 455.12L100.517 453.488C104.405 453.488 109.685 453.488 114.173 452.84L114.341 454.256C109.709 455.072 104.573 455.096 100.781 455.12ZM103.205 456.824H117.461V462.872H115.469V458.408H103.205V456.824ZM101.069 443.144H113.525V444.632H101.069V443.144ZM107.309 445.472C110.357 445.472 112.349 446.696 112.349 448.688C112.349 450.68 110.357 451.904 107.309 451.904C104.237 451.904 102.245 450.68 102.245 448.688C102.245 446.696 104.237 445.472 107.309 445.472ZM107.309 446.84C105.365 446.84 104.117 447.536 104.117 448.688C104.117 449.792 105.365 450.512 107.309 450.512C109.229 450.512 110.477 449.792 110.477 448.688C110.477 447.536 109.229 446.84 107.309 446.84ZM106.325 441.008H108.317V443.864H106.325V441.008ZM138.267 441.2H140.283V457.04H138.267V441.2ZM126.339 460.76H140.931V462.392H126.339V460.76ZM126.339 455.408H128.307V461.312H126.339V455.408ZM128.643 442.688C131.883 442.688 134.283 444.896 134.283 448.04C134.283 451.16 131.883 453.392 128.643 453.392C125.403 453.392 122.979 451.16 122.979 448.04C122.979 444.896 125.403 442.688 128.643 442.688ZM128.643 444.416C126.531 444.416 124.923 445.904 124.923 448.04C124.923 450.152 126.531 451.64 128.643 451.64C130.755 451.64 132.363 450.152 132.363 448.04C132.363 445.904 130.755 444.416 128.643 444.416ZM159.025 441.176H161.017V462.872H159.025V441.176ZM160.537 450.08H164.569V451.76H160.537V450.08ZM144.217 444.632H157.009V446.264H144.217V444.632ZM150.697 448.064C153.769 448.064 155.977 450.128 155.977 453.056C155.977 455.984 153.769 458.048 150.697 458.048C147.649 458.048 145.417 455.984 145.417 453.056C145.417 450.128 147.649 448.064 150.697 448.064ZM150.697 449.72C148.729 449.72 147.313 451.088 147.313 453.056C147.313 455 148.729 456.392 150.697 456.392C152.665 456.392 154.081 455 154.081 453.056C154.081 451.088 152.665 449.72 150.697 449.72ZM149.665 441.44H151.657V445.376H149.665V441.44ZM168.816 447.68H183.552V449.312H168.816V447.68ZM166.152 452.216H185.832V453.848H166.152V452.216ZM168.816 441.968H170.784V448.496H168.816V441.968ZM168.672 460.712H183.672V462.344H168.672V460.712ZM168.672 456.008H170.64V461.144H168.672V456.008ZM209.917 441.176H211.909V462.872H209.917V441.176ZM203.557 443.504H205.525C205.525 449.792 202.693 455.288 195.445 458.84L194.389 457.232C200.653 454.208 203.557 449.6 203.557 443.84V443.504ZM195.373 443.504H204.421V445.136H195.373V443.504ZM218.627 447.2H233.339V448.832H218.627V447.2ZM218.627 441.608H220.595V447.92H218.627V441.608ZM215.963 451.352H235.571V452.96H215.963V451.352ZM225.731 454.904C230.363 454.904 233.171 456.32 233.171 458.864C233.171 461.36 230.363 462.8 225.731 462.8C221.099 462.8 218.291 461.36 218.291 458.864C218.291 456.32 221.099 454.904 225.731 454.904ZM225.731 456.464C222.347 456.464 220.307 457.328 220.307 458.864C220.307 460.352 222.347 461.216 225.731 461.216C229.139 461.216 231.155 460.352 231.155 458.864C231.155 457.328 229.139 456.464 225.731 456.464ZM247.594 441.536C252.37 441.536 255.226 442.88 255.226 445.304C255.226 447.728 252.37 449.072 247.594 449.072C242.794 449.072 239.962 447.728 239.962 445.304C239.962 442.88 242.794 441.536 247.594 441.536ZM247.594 443.048C244.042 443.048 242.002 443.864 242.002 445.304C242.002 446.744 244.042 447.56 247.594 447.56C251.122 447.56 253.162 446.744 253.162 445.304C253.162 443.864 251.122 443.048 247.594 443.048ZM237.778 450.512H257.386V452.12H237.778V450.512ZM240.154 453.968H254.89V458.864H242.17V461.504H240.202V457.424H252.922V455.504H240.154V453.968ZM240.202 461.072H255.538V462.632H240.202V461.072ZM282.239 441.176H284.159V462.872H282.239V441.176ZM274.343 448.952H278.495V450.608H274.343V448.952ZM277.895 441.68H279.767V461.768H277.895V441.68ZM270.167 444.536H271.703V447.296C271.703 452.048 269.879 456.536 266.687 458.552L265.463 457.064C268.487 455.24 270.167 451.28 270.167 447.296V444.536ZM270.575 444.536H272.111V447.296C272.111 451.064 273.743 454.832 276.719 456.56L275.495 458.024C272.327 456.104 270.575 451.832 270.575 447.296V444.536ZM266.063 443.696H275.975V445.352H266.063V443.696ZM297.309 454.856C301.917 454.856 304.869 456.368 304.869 458.864C304.869 461.336 301.917 462.824 297.309 462.824C292.677 462.824 289.749 461.336 289.749 458.864C289.749 456.368 292.677 454.856 297.309 454.856ZM297.309 456.416C293.901 456.416 291.717 457.352 291.717 458.864C291.717 460.352 293.901 461.288 297.309 461.288C300.717 461.288 302.877 460.352 302.877 458.864C302.877 457.352 300.717 456.416 297.309 456.416ZM289.917 442.256H303.885V443.888H289.917V442.256ZM287.589 451.28H307.173V452.888H287.589V451.28ZM295.629 447.104H297.597V451.736H295.629V447.104ZM302.733 442.256H304.677V444.104C304.677 445.856 304.677 447.608 304.101 449.864L302.133 449.624C302.733 447.392 302.733 445.808 302.733 444.104V442.256ZM324.259 441.176H326.251V453.776H324.259V441.176ZM325.387 446.696H329.467V448.376H325.387V446.696ZM312.619 454.736H314.563V457.04H324.283V454.736H326.251V462.584H312.619V454.736ZM314.563 458.576V460.976H324.283V458.576H314.563ZM309.475 443.384H322.291V445.016H309.475V443.384ZM315.883 446C318.979 446 321.067 447.512 321.067 449.816C321.067 452.12 318.979 453.632 315.883 453.632C312.763 453.632 310.675 452.12 310.675 449.816C310.675 447.512 312.763 446 315.883 446ZM315.883 447.512C313.891 447.512 312.571 448.424 312.571 449.816C312.571 451.208 313.891 452.12 315.883 452.12C317.827 452.12 319.171 451.208 319.171 449.816C319.171 448.424 317.827 447.512 315.883 447.512ZM314.875 440.96H316.867V444.272H314.875V440.96ZM347.034 441.176H349.026V462.872H347.034V441.176ZM332.634 443.288H334.602V456.728H332.634V443.288ZM332.634 455.552H334.41C337.698 455.552 341.13 455.312 344.802 454.544L345.042 456.248C341.274 457.016 337.842 457.28 334.41 457.28H332.634V455.552ZM367.768 441.152H369.784V462.896H367.768V441.152ZM369.304 449.72H373.336V451.4H369.304V449.72ZM354.016 455.816H355.72C359.728 455.816 362.536 455.672 365.776 455.072L365.992 456.752C362.656 457.376 359.8 457.496 355.72 457.496H354.016V455.816ZM354.016 443.264H364.096V444.896H355.984V456.56H354.016V443.264ZM377.134 461.162C376.668 461.162 376.267 460.997 375.932 460.668C375.597 460.332 375.429 459.929 375.429 459.457C375.429 458.991 375.597 458.594 375.932 458.264C376.267 457.929 376.668 457.761 377.134 457.761C377.6 457.761 378 457.929 378.336 458.264C378.671 458.594 378.838 458.991 378.838 459.457C378.838 459.77 378.759 460.057 378.6 460.318C378.446 460.574 378.242 460.778 377.986 460.932C377.731 461.085 377.446 461.162 377.134 461.162Z" fill="white"/>
<rect x="50" y="510" width="380" height="56" rx="16" fill="#999999"/>
<path d="M166.506 529.545H170.153V541.716C170.153 542.841 169.901 543.818 169.395 544.648C168.895 545.477 168.199 546.116 167.307 546.565C166.415 547.014 165.378 547.239 164.196 547.239C163.145 547.239 162.19 547.054 161.332 546.685C160.48 546.31 159.804 545.741 159.304 544.98C158.804 544.213 158.557 543.25 158.562 542.091H162.236C162.247 542.551 162.341 542.946 162.517 543.276C162.699 543.599 162.946 543.849 163.259 544.026C163.577 544.196 163.952 544.281 164.384 544.281C164.838 544.281 165.222 544.185 165.534 543.991C165.852 543.793 166.094 543.503 166.259 543.122C166.423 542.741 166.506 542.273 166.506 541.716V529.545ZM182.433 534.565C182.365 533.878 182.073 533.344 181.555 532.963C181.038 532.582 180.337 532.392 179.45 532.392C178.848 532.392 178.34 532.477 177.925 532.648C177.51 532.812 177.192 533.043 176.97 533.338C176.754 533.634 176.646 533.969 176.646 534.344C176.635 534.656 176.7 534.929 176.842 535.162C176.99 535.395 177.192 535.597 177.448 535.767C177.703 535.932 177.999 536.077 178.334 536.202C178.669 536.321 179.027 536.423 179.408 536.509L180.976 536.884C181.737 537.054 182.436 537.281 183.073 537.565C183.709 537.849 184.26 538.199 184.726 538.614C185.192 539.028 185.553 539.517 185.808 540.08C186.07 540.642 186.203 541.287 186.209 542.014C186.203 543.082 185.93 544.009 185.391 544.793C184.857 545.571 184.084 546.176 183.073 546.608C182.067 547.034 180.854 547.247 179.433 547.247C178.024 547.247 176.797 547.031 175.751 546.599C174.712 546.168 173.899 545.528 173.314 544.682C172.734 543.83 172.43 542.776 172.402 541.52H175.973C176.013 542.105 176.18 542.594 176.476 542.986C176.777 543.372 177.178 543.665 177.678 543.864C178.183 544.057 178.754 544.153 179.391 544.153C180.016 544.153 180.558 544.062 181.019 543.881C181.484 543.699 181.845 543.446 182.101 543.122C182.357 542.798 182.484 542.426 182.484 542.006C182.484 541.614 182.368 541.284 182.135 541.017C181.908 540.75 181.573 540.523 181.129 540.335C180.692 540.148 180.155 539.977 179.519 539.824L177.618 539.347C176.146 538.989 174.984 538.429 174.132 537.668C173.28 536.906 172.857 535.881 172.862 534.591C172.857 533.534 173.138 532.611 173.706 531.821C174.28 531.031 175.067 530.415 176.067 529.972C177.067 529.528 178.203 529.307 179.476 529.307C180.771 529.307 181.902 529.528 182.868 529.972C183.84 530.415 184.595 531.031 185.135 531.821C185.675 532.611 185.953 533.526 185.97 534.565H182.433ZM204.491 538.273C204.491 540.176 204.13 541.795 203.408 543.131C202.693 544.466 201.715 545.486 200.477 546.19C199.244 546.889 197.857 547.239 196.318 547.239C194.766 547.239 193.374 546.886 192.141 546.182C190.908 545.477 189.934 544.457 189.218 543.122C188.502 541.787 188.144 540.17 188.144 538.273C188.144 536.369 188.502 534.75 189.218 533.415C189.934 532.08 190.908 531.062 192.141 530.364C193.374 529.659 194.766 529.307 196.318 529.307C197.857 529.307 199.244 529.659 200.477 530.364C201.715 531.062 202.693 532.08 203.408 533.415C204.13 534.75 204.491 536.369 204.491 538.273ZM200.749 538.273C200.749 537.04 200.565 536 200.195 535.153C199.832 534.307 199.318 533.665 198.653 533.227C197.988 532.79 197.21 532.571 196.318 532.571C195.426 532.571 194.647 532.79 193.982 533.227C193.318 533.665 192.801 534.307 192.431 535.153C192.068 536 191.886 537.04 191.886 538.273C191.886 539.506 192.068 540.545 192.431 541.392C192.801 542.239 193.318 542.881 193.982 543.318C194.647 543.756 195.426 543.974 196.318 543.974C197.21 543.974 197.988 543.756 198.653 543.318C199.318 542.881 199.832 542.239 200.195 541.392C200.565 540.545 200.749 539.506 200.749 538.273ZM221.584 529.545V547H218.396L210.803 536.014H210.675V547H206.985V529.545H210.223L217.757 540.523H217.911V529.545H221.584ZM229.439 528.952H241.703V531.496H229.439V528.952ZM229.199 544.072L228.863 541.456C232.727 541.456 237.959 541.408 242.351 540.856L242.519 543.184C238.031 543.976 232.991 544.072 229.199 544.072ZM231.335 530.944H234.431V542.152H231.335V530.944ZM236.711 530.944H239.807V542.152H236.711V530.944ZM243.359 526.912H246.575V549.136H243.359V526.912ZM245.855 535.336H249.791V537.952H245.855V535.336ZM257.253 527.56C260.637 527.56 263.181 529.672 263.181 532.648C263.181 535.6 260.637 537.712 257.253 537.712C253.869 537.712 251.325 535.6 251.325 532.648C251.325 529.672 253.869 527.56 257.253 527.56ZM257.253 530.152C255.621 530.152 254.397 531.064 254.397 532.648C254.397 534.232 255.621 535.144 257.253 535.144C258.885 535.144 260.085 534.232 260.085 532.648C260.085 531.064 258.885 530.152 257.253 530.152ZM266.253 526.912H269.469V538.024H266.253V526.912ZM254.637 538.936H269.469V545.032H257.805V547.72H254.685V542.728H266.301V541.408H254.637V538.936ZM254.685 546.424H270.021V548.896H254.685V546.424ZM283.182 537.064H286.374V540.256H283.182V537.064ZM292.59 526.936H295.782V542.056H292.59V526.936ZM294.654 533.272H298.566V535.888H294.654V533.272ZM278.238 541.624L277.878 539.152C281.862 539.152 287.118 539.128 291.606 538.576L291.846 540.76C287.214 541.552 282.126 541.6 278.238 541.624ZM280.71 542.944H295.782V549.136H292.59V545.392H280.71V542.944ZM278.454 528.544H291.054V530.824H278.454V528.544ZM284.766 531.352C288.03 531.352 290.166 532.624 290.166 534.664C290.166 536.704 288.03 537.976 284.766 537.976C281.478 537.976 279.342 536.704 279.342 534.664C279.342 532.624 281.478 531.352 284.766 531.352ZM284.766 533.44C283.254 533.44 282.366 533.824 282.366 534.664C282.366 535.456 283.254 535.888 284.766 535.888C286.254 535.888 287.142 535.456 287.142 534.664C287.142 533.824 286.254 533.44 284.766 533.44ZM283.182 526.744H286.374V529.576H283.182V526.744ZM315.244 526.936H318.46V542.896H315.244V526.936ZM303.652 546.208H319.012V548.752H303.652V546.208ZM303.652 541.288H306.844V547.24H303.652V541.288ZM306.364 528.328C309.772 528.328 312.388 530.68 312.388 533.968C312.388 537.232 309.772 539.608 306.364 539.608C302.956 539.608 300.316 537.232 300.316 533.968C300.316 530.68 302.956 528.328 306.364 528.328ZM306.364 531.088C304.708 531.088 303.436 532.144 303.436 533.968C303.436 535.768 304.708 536.824 306.364 536.824C307.996 536.824 309.268 535.768 309.268 533.968C309.268 532.144 307.996 531.088 306.364 531.088Z" fill="white"/>
<defs>
<filter id="filter0_b_66_128" x="-26" y="909" width="532" height="192" filterUnits="userSpaceOnUse" color-interpolation-filters="sRGB">
<feFlood flood-opacity="0" result="BackgroundImageFix"/>
<feGaussianBlur in="BackgroundImageFix" stdDeviation="25"/>
<feComposite in2="SourceAlpha" operator="in" result="effect1_backgroundBlur_66_128"/>
<feBlend mode="normal" in="SourceGraphic" in2="effect1_backgroundBlur_66_128" result="shape"/>
</filter>
<linearGradient id="paint0_linear_66_128" x1="86" y1="975" x2="86" y2="1035" gradientUnits="userSpaceOnUse">
<stop offset="0.5" stop-color="#57F371"/>
<stop offset="1" stop-color="#58BA68"/>
</linearGradient>
<linearGradient id="paint1_linear_66_128" x1="188.667" y1="975" x2="188.667" y2="1035" gradientUnits="userSpaceOnUse">
<stop stop-color="#F5DE19"/>
<stop offset="1" stop-color="#F5DE19"/>
</linearGradient>
<linearGradient id="paint2_linear_66_128" x1="291.333" y1="975" x2="291.333" y2="1035" gradientUnits="userSpaceOnUse">
<stop stop-color="#1C74F2"/>
<stop offset="1" stop-color="#38BDF8"/>
</linearGradient>
<linearGradient id="paint3_linear_66_128" x1="394" y1="975" x2="394" y2="1035" gradientUnits="userSpaceOnUse">
<stop stop-color="#FB576F"/>
<stop offset="1" stop-color="#E9213E"/>
</linearGradient>
<clipPath id="clip0_66_128">
<rect width="40" height="40" fill="white" transform="translate(424 68)"/>
</clipPath>
<clipPath id="clip1_66_128">
<rect x="261.333" y="975" width="60" height="60" rx="16" fill="white"/>
</clipPath>
</defs>
</svg>
